<svg width="50" height="50" viewBox="0 0 50 50" fill="none" xmlns="http://www.w3.org/2000/svg">
<g clip-path="url(#clip0_1594_11976)">
<rect width="50" height="50" fill="#C0C2E1"/>
<path d="M38.195 47.5785V43.9364C38.195 42.0044 37.4276 40.1516 36.0615 38.7855C34.6954 37.4194 32.8426 36.652 30.9107 36.652H19.9841C18.0522 36.652 16.1993 37.4194 14.8333 38.7855C13.4672 40.1516 12.6997 42.0044 12.6997 43.9364V47.5785" fill="#695E93"/>
<path d="M25.4474 29.3676C29.4704 29.3676 32.7318 26.1063 32.7318 22.0832C32.7318 18.0602 29.4704 14.7988 25.4474 14.7988C21.4243 14.7988 18.163 18.0602 18.163 22.0832C18.163 26.1063 21.4243 29.3676 25.4474 29.3676Z" fill="#695E93"/>
<path d="M38.195 47.5785V43.9364C38.195 42.0044 37.4276 40.1516 36.0615 38.7855C34.6954 37.4194 32.8426 36.652 30.9107 36.652H19.9841C18.0522 36.652 16.1993 37.4194 14.8333 38.7855C13.4672 40.1516 12.6997 42.0044 12.6997 43.9364V47.5785H38.195ZM32.7318 22.0832C32.7318 26.1063 29.4704 29.3676 25.4474 29.3676C21.4243 29.3676 18.163 26.1063 18.163 22.0832C18.163 18.0602 21.4243 14.7988 25.4474 14.7988C29.4704 14.7988 32.7318 18.0602 32.7318 22.0832Z" stroke="#695E93" stroke-width="3.64219" stroke-linecap="round" stroke-linejoin="round"/>
</g>
<defs>
<clipPath id="clip0_1594_11976">
<rect width="50" height="50" fill="white"/>
</clipPath>
</defs>
</svg>
