<svg width="24" height="24" viewBox="0 0 24 24" fill="none" xmlns="http://www.w3.org/2000/svg">
<path d="M4 22H18C18.5304 22 19.0391 21.7893 19.4142 21.4142C19.7893 21.0391 20 20.5304 20 20V7L15 2H6C5.46957 2 4.96086 2.21071 4.58579 2.58579C4.21071 2.96086 4 3.46957 4 4V8" stroke="currentColor" stroke-width="2" stroke-linecap="round" stroke-linejoin="round"/>
<path d="M14 2V6C14 6.53043 14.2107 7.03914 14.5858 7.41421C14.9609 7.78929 15.4696 8 16 8H20" stroke="currentColor" stroke-width="2" stroke-linecap="round" stroke-linejoin="round"/>
<path fill-rule="evenodd" clip-rule="evenodd" d="M9.70711 12.2929C10.0976 12.6834 10.0976 13.3166 9.70711 13.7071L5.70711 17.7071C5.31658 18.0976 4.68342 18.0976 4.29289 17.7071L2.29289 15.7071C1.90237 15.3166 1.90237 14.6834 2.29289 14.2929C2.68342 13.9024 3.31658 13.9024 3.70711 14.2929L5 15.5858L8.29289 12.2929C8.68342 11.9024 9.31658 11.9024 9.70711 12.2929Z" fill="currentColor"/>
</svg>
