<svg width="688" height="270" viewBox="0 0 688 270" fill="none" xmlns="http://www.w3.org/2000/svg">
<g clip-path="url(#clip0_2608_16281)">
<path opacity="0.1" d="M260.046 219.016L250.621 186.176C249.05 180.634 244.668 176.25 239.129 174.678L206.307 165.248C190.103 160.616 190.103 137.619 206.307 132.987L239.129 123.557C244.668 121.985 249.05 117.601 250.621 112.059L260.046 79.2186C264.676 63.0053 287.659 63.0053 292.289 79.2186L301.714 112.059C303.285 117.601 307.667 121.985 313.206 123.557L346.028 132.987C362.232 137.619 362.232 160.616 346.028 165.248L313.206 174.678C307.667 176.25 303.285 180.634 301.714 186.176L292.289 219.016C287.659 235.23 264.676 235.23 260.046 219.016Z" fill="#5C547F"/>
<path opacity="0.1" d="M349.363 71.3775L352.156 87.1266L398.241 78.998L367.39 115.767L379.642 126.055L409.731 90.1748L409.731 138.184L425.727 138.184L425.727 91.3179L456.514 128.087L468.766 117.863L438.677 81.9828L485.968 90.3018L488.698 74.5527L442.612 66.4242L484.191 42.4195L476.193 28.6391L435.63 52.0087L452.071 6.92057L437.026 1.45922L421.03 45.4678L404.652 0.379677L389.608 5.84103L405.668 49.8495L364.09 25.8449L356.091 39.6253L396.654 63.0584L349.363 71.3775Z" fill="#5C547F"/>
<path opacity="0.1" fill-rule="evenodd" clip-rule="evenodd" d="M477.033 270L356.469 270L356.469 301.765L349.363 301.765L349.363 240.29C349.363 193.361 387.393 155.294 434.279 155.294L495.753 155.294L495.753 216.769C495.753 236.916 488.743 255.43 477.033 270Z" fill="#5C547F"/>
<path opacity="0.1" fill-rule="evenodd" clip-rule="evenodd" d="M171.225 221.804C125.381 157.408 88.2193 194.012 153.632 239.111C88.1733 284.256 125.381 320.814 171.225 256.419C217.069 320.814 254.231 284.21 188.819 239.111C254.277 194.012 217.069 157.454 171.225 221.804Z" fill="#5C547F"/>
<path opacity="0.1" fill-rule="evenodd" clip-rule="evenodd" d="M688 213.937L688 270L673.229 270L653.82 267.298C630.544 264.027 612.25 245.723 608.981 222.434L602.753 177.647L647.515 183.878C665.57 186.416 680.627 197.999 688 213.937ZM689.841 136.837L688 136.837L688 141.357C680.627 157.296 665.57 168.878 647.515 171.416L602.753 177.647L608.981 132.86C612.25 109.571 630.544 91.2673 653.82 87.9959L698.582 81.7647L692.355 126.551C691.855 130.108 691.006 133.548 689.841 136.837ZM602.753 177.647L596.525 222.434C593.255 245.723 574.961 264.027 551.685 267.298L532.277 270L507.414 270L513.151 228.743C516.42 205.454 534.714 187.15 557.991 183.878L602.753 177.647ZM602.753 177.647L596.525 132.86C593.255 109.571 574.961 91.2673 551.685 87.9959L506.923 81.7647L513.151 126.551C516.42 149.84 534.714 168.144 557.991 171.416L602.753 177.647Z" fill="#5C547F"/>
</g>
<defs>
<clipPath id="clip0_2608_16281">
<rect width="687.857" height="270" fill="white" transform="translate(688 270) rotate(-180)"/>
</clipPath>
</defs>
</svg>
