<?xml version="1.0" encoding="utf-8"?>
<!-- Generator: Adobe Illustrator 25.1.0, SVG Export Plug-In . SVG Version: 6.00 Build 0)  -->
<svg version="1.1" id="Capa_1" xmlns="http://www.w3.org/2000/svg" xmlns:xlink="http://www.w3.org/1999/xlink" x="0px" y="0px"
	 viewBox="0 0 15 15" style="enable-background:new 0 0 15 15;" xml:space="preserve">
<style type="text/css">
	.st0{fill:#ED7D31;}
</style>
<g>
	<path class="st0" d="M7.9,6c-0.1,0-0.3-0.1-0.4-0.1c-0.1,0-0.3,0-0.4,0.1c0.3,0.4,0.2,0.9-0.2,1.1c-0.3,0.2-0.7,0.2-1,0
		C5.7,7.9,6.2,8.8,7.1,9c0.9,0.2,1.7-0.3,2-1.1S8.8,6.2,7.9,6z"/>
	<path class="st0" d="M12.3,7.3c-0.9-1.8-2.7-3-4.8-3c-2.1,0-3.9,1.2-4.8,3c-0.1,0.2-0.1,0.3,0,0.5c0.9,1.8,2.7,3,4.8,3
		s3.9-1.2,4.8-3C12.4,7.6,12.4,7.4,12.3,7.3z M7.5,9.9C7.5,9.9,7.5,9.9,7.5,9.9c-1.3,0-2.4-1.1-2.4-2.4c0-1.3,1.1-2.4,2.4-2.4
		c1.3,0,2.4,1.1,2.4,2.4C9.9,8.8,8.8,9.9,7.5,9.9z"/>
</g>
<path class="st0" d="M7.5,15C3.4,15,0,11.6,0,7.5C0,3.4,3.4,0,7.5,0C11.6,0,15,3.4,15,7.5C15,11.6,11.6,15,7.5,15z M7.5,0.6
	c-3.8,0-6.9,3.1-6.9,6.9c0,3.8,3.1,6.9,6.9,6.9c3.8,0,6.9-3.1,6.9-6.9C14.4,3.7,11.3,0.6,7.5,0.6z"/>
</svg>
