<?xml version="1.0" encoding="utf-8"?>
<!-- Generator: Adobe Illustrator 16.0.0, SVG Export Plug-In . SVG Version: 6.00 Build 0)  -->
<!DOCTYPE svg PUBLIC "-//W3C//DTD SVG 1.1//EN" "http://www.w3.org/Graphics/SVG/1.1/DTD/svg11.dtd">
<svg version="1.1" id="Capa_1" xmlns="http://www.w3.org/2000/svg" xmlns:xlink="http://www.w3.org/1999/xlink" x="0px" y="0px"
	 width="30px" height="21px" viewBox="385 389.5 30 21" enable-background="new 385 389.5 30 21" xml:space="preserve">
<path d="M385,395.5c0-3.314,2.686-6,6-6h10.5c3.313,0,6,2.686,6,6v0.107l4.803-2.761c1.2-0.689,2.697,0.177,2.697,1.561v11.216
	c0,1.308-1.35,2.179-2.541,1.641l-4.98-2.25c-0.261,3.073-2.838,5.486-5.979,5.486H391c-3.314,0-6-2.687-6-6V395.5z M407.5,401.731
	l4.5,2.032v-7.283l-4.5,2.587V401.731z M404.5,395.5c0-1.657-1.344-3-3-3H391c-1.657,0-3,1.343-3,3v9c0,1.656,1.343,3,3,3h10.5
	c1.656,0,3-1.344,3-3V395.5z"/>
</svg>
