<?xml version="1.0" encoding="utf-8"?>
<!-- Generator: Adobe Illustrator 16.0.0, SVG Export Plug-In . SVG Version: 6.00 Build 0)  -->
<!DOCTYPE svg PUBLIC "-//W3C//DTD SVG 1.1//EN" "http://www.w3.org/Graphics/SVG/1.1/DTD/svg11.dtd">
<svg version="1.1" id="Capa_1" xmlns="http://www.w3.org/2000/svg" xmlns:xlink="http://www.w3.org/1999/xlink" x="0px" y="0px"
	 width="17.967px" height="18px" viewBox="0 0 17.967 18" enable-background="new 0 0 17.967 18" xml:space="preserve">
<g>
	<path d="M2.558,0C1.147,0,0,1.15,0,2.563c0,1.414,1.147,2.564,2.558,2.564s2.558-1.15,2.558-2.564C5.117,1.15,3.97,0,2.558,0
		L2.558,0z M2.558,3.619c-0.582,0-1.055-0.474-1.055-1.056c0-0.582,0.473-1.055,1.055-1.055c0.581,0,1.053,0.473,1.053,1.055
		C3.611,3.146,3.14,3.619,2.558,3.619L2.558,3.619z"/>
	<path d="M16.313,0.453H7.074c-0.913,0-1.656,0.744-1.656,1.659v0.904c0,0.915,0.743,1.659,1.656,1.659h9.239
		c0.913,0.001,1.654-0.744,1.654-1.658V2.111C17.967,1.196,17.226,0.453,16.313,0.453L16.313,0.453z M6.924,2.111
		c0-0.083,0.067-0.151,0.15-0.151h9.239c0.083,0,0.15,0.067,0.15,0.151v0.904c0,0.083-0.067,0.151-0.15,0.151H7.074
		c-0.083,0-0.15-0.066-0.15-0.151V2.111L6.924,2.111L6.924,2.111z"/>
	<path d="M2.558,6.437C1.147,6.437,0,7.586,0,9c0,1.415,1.147,2.564,2.558,2.564S5.117,10.413,5.117,9
		C5.117,7.586,3.97,6.437,2.558,6.437L2.558,6.437z M2.558,10.056c-0.582,0-1.054-0.474-1.054-1.056s0.472-1.056,1.054-1.056
		c0.581,0,1.053,0.473,1.053,1.054C3.611,9.581,3.14,10.056,2.558,10.056L2.558,10.056z"/>
	<path d="M16.313,6.89H7.074c-0.913,0-1.656,0.744-1.656,1.659v0.904c0,0.914,0.743,1.659,1.656,1.659h9.239
		c0.913,0,1.654-0.745,1.654-1.659V8.548C17.967,7.633,17.226,6.89,16.313,6.89L16.313,6.89z M6.924,8.548
		c0-0.083,0.067-0.151,0.15-0.151h9.239c0.083,0,0.15,0.067,0.15,0.151v0.904c0,0.083-0.067,0.15-0.15,0.15H7.074
		c-0.083,0-0.15-0.066-0.15-0.15V8.548L6.924,8.548L6.924,8.548z"/>
	<path d="M2.558,12.873C1.147,12.873,0,14.023,0,15.436C0,16.851,1.147,18,2.558,18s2.558-1.149,2.558-2.564
		C5.117,14.023,3.97,12.873,2.558,12.873L2.558,12.873z M2.558,16.491c-0.582,0-1.055-0.474-1.055-1.056s0.473-1.055,1.055-1.055
		c0.581,0,1.053,0.473,1.053,1.055S3.14,16.491,2.558,16.491L2.558,16.491z"/>
	<path d="M16.313,13.324H7.074c-0.913,0-1.656,0.743-1.656,1.66v0.903c0,0.914,0.743,1.657,1.656,1.657h9.239
		c0.913,0,1.654-0.743,1.654-1.657v-0.903C17.967,14.067,17.226,13.324,16.313,13.324L16.313,13.324z M6.924,14.984
		c0-0.084,0.067-0.15,0.15-0.15h9.239c0.083,0,0.15,0.066,0.15,0.15v0.903c0,0.084-0.067,0.15-0.15,0.15H7.074
		c-0.083,0-0.15-0.066-0.15-0.15V14.984L6.924,14.984L6.924,14.984z"/>
</g>
</svg>
