<?xml version="1.0" encoding="utf-8"?>
<!-- Generator: Adobe Illustrator 25.1.0, SVG Export Plug-In . SVG Version: 6.00 Build 0)  -->
<svg version="1.1" id="Capa_1" xmlns="http://www.w3.org/2000/svg" xmlns:xlink="http://www.w3.org/1999/xlink" x="0px" y="0px"
	 viewBox="0 0 15 15" style="enable-background:new 0 0 15 15;" xml:space="preserve">
<style type="text/css">
	.st0{fill:#ED7D31;}
</style>
<path class="st0" d="M7.5,15C3.4,15,0,11.6,0,7.5C0,3.4,3.4,0,7.5,0C11.6,0,15,3.4,15,7.5C15,11.6,11.6,15,7.5,15z M7.5,0.6
	c-3.8,0-6.9,3.1-6.9,6.9c0,3.8,3.1,6.9,6.9,6.9c3.8,0,6.9-3.1,6.9-6.9C14.4,3.7,11.3,0.6,7.5,0.6z"/>
<path class="st0" d="M5.1,6.7c0.3-0.3,0.7-0.3,1,0l0.8,0.8V3.7C6.8,3.3,7.1,3,7.5,3c0.4,0,0.7,0.3,0.7,0.7v3.8l0.8-0.8
	c0.3-0.3,0.7-0.3,1,0c0.3,0.3,0.3,0.7,0,1L8.1,9.5c-0.3,0.3-0.8,0.3-1.1,0L5.1,7.7C4.8,7.4,4.8,7,5.1,6.7z"/>
<path class="st0" d="M10.7,12H4.3c-0.6,0-1.1-0.5-1.1-1.1V9.1c0-0.4,0.3-0.7,0.7-0.7c0.4,0,0.7,0.3,0.7,0.7v1.6h5.9V9.1
	c0-0.4,0.3-0.7,0.7-0.7c0.4,0,0.7,0.3,0.7,0.7v1.8h0C11.8,11.5,11.3,12,10.7,12z"/>
</svg>
