<?xml version="1.0" encoding="utf-8"?>
<!-- Generator: Adobe Illustrator 16.0.0, SVG Export Plug-In . SVG Version: 6.00 Build 0)  -->
<!DOCTYPE svg PUBLIC "-//W3C//DTD SVG 1.1//EN" "http://www.w3.org/Graphics/SVG/1.1/DTD/svg11.dtd">
<svg version="1.1" id="Capa_1" xmlns="http://www.w3.org/2000/svg" xmlns:xlink="http://www.w3.org/1999/xlink" x="0px" y="0px"
	 width="17.991px" height="18px" viewBox="0 0 17.991 18" enable-background="new 0 0 17.991 18" xml:space="preserve">
<g>
	<path fill-rule="evenodd" clip-rule="evenodd" d="M15.893,1.4c-0.899,0-0.899,0-0.899,0c0-1.4,0-1.4,0-1.4
		c-1.399,0-1.399,0-1.399,0c0,1.4,0,1.4,0,1.4c-9.196,0-9.196,0-9.196,0c0-1.4,0-1.4,0-1.4c-1.5,0-1.5,0-1.5,0c0,1.4,0,1.4,0,1.4
		c-0.799,0-0.799,0-0.799,0C0.899,1.4,0,2.4,0,3.5c0,12.4,0,12.4,0,12.4c0,1.2,0.899,2.1,2.099,2.1c13.793,0,13.793,0,13.793,0
		c1.1,0,2.099-0.899,2.099-2.1c0-12.4,0-12.4,0-12.4C17.991,2.4,16.992,1.4,15.893,1.4L15.893,1.4z M16.593,15.9
		c0,0.399-0.301,0.7-0.7,0.7c-13.793,0-13.793,0-13.793,0c-0.4,0-0.7-0.301-0.7-0.7c0-9.3,0-9.3,0-9.3c15.193,0,15.193,0,15.193,0
		V15.9L16.593,15.9L16.593,15.9z M16.593,5.2c-15.193,0-15.193,0-15.193,0c0-1.7,0-1.7,0-1.7c0-0.4,0.3-0.7,0.7-0.7
		c0.799,0,0.799,0,0.799,0c0,1.4,0,1.4,0,1.4c1.5,0,1.5,0,1.5,0c0-1.4,0-1.4,0-1.4c9.196,0,9.196,0,9.196,0c0,1.4,0,1.4,0,1.4
		c1.399,0,1.399,0,1.399,0c0-1.4,0-1.4,0-1.4c0.899,0,0.899,0,0.899,0c0.399,0,0.7,0.3,0.7,0.7V5.2L16.593,5.2L16.593,5.2z"/>
	<polygon fill-rule="evenodd" clip-rule="evenodd" points="2.671,8.105 4.127,8.105 4.127,9.487 2.671,9.487 2.671,8.105 	"/>
	<polygon fill-rule="evenodd" clip-rule="evenodd" points="5.509,8.105 6.891,8.105 6.891,9.487 5.509,9.487 5.509,8.105 	"/>
	<polygon fill-rule="evenodd" clip-rule="evenodd" points="8.264,8.105 9.72,8.105 9.72,9.487 8.264,9.487 8.264,8.105 	"/>
	<polygon fill-rule="evenodd" clip-rule="evenodd" points="11.102,8.105 12.482,8.105 12.482,9.487 11.102,9.487 11.102,8.105 	"/>
	<polygon fill-rule="evenodd" clip-rule="evenodd" points="13.855,8.105 15.32,8.105 15.32,9.487 13.855,9.487 13.855,8.105 	"/>
	<polygon fill-rule="evenodd" clip-rule="evenodd" points="2.671,10.943 4.127,10.943 4.127,12.325 2.671,12.325 2.671,10.943 	"/>
	<polygon fill-rule="evenodd" clip-rule="evenodd" points="5.509,10.943 6.891,10.943 6.891,12.325 5.509,12.325 5.509,10.943 	"/>
	<polygon fill-rule="evenodd" clip-rule="evenodd" points="8.264,10.943 9.72,10.943 9.72,12.325 8.264,12.325 8.264,10.943 	"/>
	<polygon fill-rule="evenodd" clip-rule="evenodd" points="11.102,10.943 12.482,10.943 12.482,12.325 11.102,12.325 11.102,10.943 
			"/>
	<polygon fill-rule="evenodd" clip-rule="evenodd" points="2.671,13.706 4.127,13.706 4.127,15.162 2.671,15.162 2.671,13.706 	"/>
	<polygon fill-rule="evenodd" clip-rule="evenodd" points="5.509,13.706 6.891,13.706 6.891,15.162 5.509,15.162 5.509,13.706 	"/>
	<polygon fill-rule="evenodd" clip-rule="evenodd" points="8.264,13.706 9.72,13.706 9.72,15.162 8.264,15.162 8.264,13.706 	"/>
	<polygon fill-rule="evenodd" clip-rule="evenodd" points="11.102,13.706 12.482,13.706 12.482,15.162 11.102,15.162 11.102,13.706 
			"/>
	<polygon fill-rule="evenodd" clip-rule="evenodd" points="13.855,10.943 15.32,10.943 15.32,12.325 13.855,12.325 13.855,10.943 	
		"/>
</g>
</svg>
