<?xml version="1.0" encoding="utf-8"?>
<!-- Generator: Adobe Illustrator 16.0.0, SVG Export Plug-In . SVG Version: 6.00 Build 0)  -->
<!DOCTYPE svg PUBLIC "-//W3C//DTD SVG 1.1//EN" "http://www.w3.org/Graphics/SVG/1.1/DTD/svg11.dtd">
<svg version="1.1" id="Capa_1" xmlns="http://www.w3.org/2000/svg" xmlns:xlink="http://www.w3.org/1999/xlink" x="0px" y="0px"
	 width="18px" height="16.435px" viewBox="0 0 18 16.435" enable-background="new 0 0 18 16.435" xml:space="preserve">
<path d="M7.146,16.435c-0.134,0-0.268-0.033-0.369-0.102c-0.201-0.135-0.335-0.372-0.335-0.611V8.335l-6.27-7.183
	C0.004,0.949-0.063,0.644,0.071,0.406C0.206,0.168,0.44,0,0.708,0h16.598c0.27,0,0.538,0.168,0.638,0.406
	c0.101,0.272,0.065,0.542-0.101,0.779l-6.54,7.455v5.354c0,0.272-0.168,0.508-0.402,0.646l-3.419,1.693
	C7.415,16.402,7.281,16.435,7.146,16.435L7.146,16.435L7.146,16.435L7.146,16.435z M2.251,1.39L7.683,7.59
	c0.101,0.135,0.167,0.305,0.167,0.475v6.473l2.013-1.017V8.37c0-0.17,0.064-0.34,0.166-0.476l5.701-6.506
	C15.764,1.39,2.251,1.39,2.251,1.39L2.251,1.39L2.251,1.39L2.251,1.39z"/>
</svg>
