<?xml version="1.0" encoding="utf-8"?>
<!-- Generator: Adobe Illustrator 16.0.0, SVG Export Plug-In . SVG Version: 6.00 Build 0)  -->
<!DOCTYPE svg PUBLIC "-//W3C//DTD SVG 1.1//EN" "http://www.w3.org/Graphics/SVG/1.1/DTD/svg11.dtd">
<svg version="1.1" id="Capa_1" focusable="false" xmlns="http://www.w3.org/2000/svg" xmlns:xlink="http://www.w3.org/1999/xlink"
	 x="0px" y="0px" width="15px" height="13.331px" viewBox="17.5 18.339 15 13.331" enable-background="new 17.5 18.339 15 13.331"
	 xml:space="preserve">
<path fill="#666666" d="M27.984,20.503l2.349,2.349c0.1,0.099,0.1,0.26,0,0.359l-5.687,5.688l-2.417,0.268
	c-0.323,0.037-0.596-0.237-0.56-0.56l0.268-2.417l5.688-5.688C27.724,20.404,27.886,20.404,27.984,20.503z M32.203,19.907
	l-1.271-1.271c-0.396-0.396-1.039-0.396-1.438,0l-0.922,0.922c-0.1,0.099-0.1,0.261,0,0.359l2.349,2.349
	c0.099,0.099,0.261,0.099,0.359,0l0.922-0.922C32.599,20.946,32.599,20.303,32.203,19.907z M27.5,27.353v2.65h-8.333V21.67h5.985
	c0.083,0,0.161-0.034,0.221-0.091l1.042-1.042c0.198-0.198,0.058-0.534-0.222-0.534H18.75c-0.69,0-1.25,0.56-1.25,1.25v9.167
	c0,0.689,0.56,1.25,1.25,1.25h9.167c0.689,0,1.25-0.561,1.25-1.25v-4.109c0-0.279-0.336-0.417-0.534-0.222l-1.042,1.042
	C27.534,27.19,27.5,27.269,27.5,27.353z"/>
</svg>
