<?xml version="1.0" encoding="utf-8"?>
<!-- Generator: Adobe Illustrator 25.1.0, SVG Export Plug-In . SVG Version: 6.00 Build 0)  -->
<svg version="1.1" id="Capa_1" xmlns="http://www.w3.org/2000/svg" xmlns:xlink="http://www.w3.org/1999/xlink" x="0px" y="0px"
	 viewBox="0 0 15 15" style="enable-background:new 0 0 15 15;" xml:space="preserve">
<style type="text/css">
	.st0{fill:#ED7D31;}
</style>
<path class="st0" d="M7.5,15C3.4,15,0,11.6,0,7.5S3.4,0,7.5,0S15,3.4,15,7.5S11.6,15,7.5,15z M7.5,0.9c-3.6,0-6.6,2.9-6.6,6.6
	c0,3.6,2.9,6.6,6.6,6.6c3.6,0,6.6-2.9,6.6-6.6C14.1,3.9,11.1,0.9,7.5,0.9z"/>
<path class="st0" d="M5,5l1.9-2c0.3-0.3,0.8-0.3,1.2,0L10,5c0.3,0.3,0.3,0.7,0,1C9.7,6.2,9.3,6.2,9,6L8.2,5.2v4
	c0,0.4-0.3,0.7-0.7,0.7c-0.4,0-0.7-0.3-0.7-0.7v-4L6,6C5.7,6.2,5.3,6.2,5,6C4.7,5.7,4.7,5.2,5,5z"/>
<path class="st0" d="M10.8,12.2H4.2C3.5,12.2,3,11.7,3,11V9.1c0-0.4,0.3-0.7,0.7-0.7s0.7,0.3,0.7,0.7v1.7h6.1V9.1
	c0-0.4,0.3-0.7,0.7-0.7s0.7,0.3,0.7,0.7V11l0,0C12,11.7,11.5,12.2,10.8,12.2z"/>
</svg>
