<?xml version="1.0" encoding="utf-8"?>
<!-- Generator: Adobe Illustrator 16.0.0, SVG Export Plug-In . SVG Version: 6.00 Build 0)  -->
<!DOCTYPE svg PUBLIC "-//W3C//DTD SVG 1.1//EN" "http://www.w3.org/Graphics/SVG/1.1/DTD/svg11.dtd">
<svg version="1.1" id="Capa_1" xmlns="http://www.w3.org/2000/svg" xmlns:xlink="http://www.w3.org/1999/xlink" x="0px" y="0px"
	 width="18px" height="15.295px" viewBox="0 0 18 15.295" enable-background="new 0 0 18 15.295" xml:space="preserve">
<g>
	<path fill="#FFFFFF" d="M16.729,3.817h-1.59c0,0,0,5.667,0,6.2c0,0.532-0.69,1.219-1.225,1.219c-0.531,0-6.22,0.029-6.22,0.029
		c0,0.702,0.57,1.129,1.271,1.129h2.449l3.195,2.9l-0.004-2.9h2.123c0.703,0,1.271-0.427,1.271-1.129V5.053
		C18,4.352,17.432,3.817,16.729,3.817z"/>
	<path fill="#FFFFFF" d="M13.666,8.368V1.271C13.666,0.569,13.098,0,12.395,0H1.271C0.569-0.001,0,0.569,0,1.271v7.098
		c0,0.7,0.569,1.271,1.271,1.271h2.12v2.92l3.241-2.92h5.763C13.098,9.64,13.666,9.069,13.666,8.368z M8.174,7.407
		c0,0.125-0.102,0.227-0.228,0.227H2.695c-0.125,0-0.228-0.102-0.228-0.227V6.543c0-0.126,0.102-0.228,0.228-0.228h5.252
		c0.126,0,0.228,0.102,0.228,0.228L8.174,7.407L8.174,7.407z M11.676,5.178c0,0.126-0.102,0.229-0.229,0.229H2.695
		c-0.125,0-0.228-0.103-0.228-0.229V4.314c0-0.125,0.102-0.227,0.228-0.227h8.752c0.127,0,0.229,0.102,0.229,0.227V5.178z
		 M11.676,2.95c0,0.125-0.102,0.227-0.229,0.227H2.695c-0.125,0-0.228-0.102-0.228-0.227V2.086c0-0.125,0.102-0.228,0.228-0.228
		h8.752c0.127,0,0.229,0.103,0.229,0.228V2.95z"/>
</g>
</svg>
