<?xml version="1.0" encoding="utf-8"?>
<!-- Generator: Adobe Illustrator 25.1.0, SVG Export Plug-In . SVG Version: 6.00 Build 0)  -->
<svg version="1.1" id="Capa_1" xmlns="http://www.w3.org/2000/svg" xmlns:xlink="http://www.w3.org/1999/xlink" x="0px" y="0px"
	 viewBox="0 0 16 16" style="enable-background:new 0 0 16 16;" xml:space="preserve">
<style type="text/css">
	.st0{fill:#FFC000;}
	.st1{fill:#999999;}
</style>
<path class="st0" d="M8,16c-4.4,0-8-3.6-8-8s3.6-8,8-8s8,3.6,8,8S12.4,16,8,16z M8,1C4.1,1,1,4.1,1,8s3.1,7,7,7s7-3.1,7-7
	S11.9,1,8,1z"/>
<path class="st1" d="M4.9,5.9L4.9,5.9c0,0.3,0.2,0.5,0.4,0.5H6c0.2,0,0.4-0.2,0.4-0.4c0-1,0.7-1.5,1.8-1.5c1,0,1.6,0.5,1.6,1.3
	c0,0.7-0.4,1-1.3,1.4L8.3,7.3c-0.8,0.3-1,0.8-1,1.7v0.1C7.2,9.3,7.4,9.5,7.6,9.5h0.7c0.2,0,0.4-0.2,0.4-0.4c0-0.4,0.1-0.5,0.4-0.7
	l0.3-0.1c1.1-0.5,1.9-1.1,1.9-2.5V5.7c0-1.5-1.3-2.6-3.1-2.6C6.3,3.1,4.9,4.2,4.9,5.9L4.9,5.9z"/>
<path class="st1" d="M6.9,11.7c0,0.6,0.5,1.1,1.1,1.1s1.1-0.5,1.1-1.1c0-0.7-0.5-1.1-1.1-1.1C7.4,10.6,6.9,11.1,6.9,11.7z"/>
</svg>
