<?xml version="1.0" encoding="utf-8"?>
<!-- Generator: Adobe Illustrator 16.0.0, SVG Export Plug-In . SVG Version: 6.00 Build 0)  -->
<!DOCTYPE svg PUBLIC "-//W3C//DTD SVG 1.1//EN" "http://www.w3.org/Graphics/SVG/1.1/DTD/svg11.dtd">
<svg version="1.1" id="Capa_1" xmlns="http://www.w3.org/2000/svg" xmlns:xlink="http://www.w3.org/1999/xlink" x="0px" y="0px"
	 width="30px" height="30px" viewBox="-6 -6 30 30" enable-background="new -6 -6 30 30" xml:space="preserve">
<path d="M16.796,14.4c1.636-2.141,2.617-4.798,2.617-7.694C19.413-0.302,13.715-6,6.707-6S-6-0.302-6,6.707
	s5.698,12.707,12.707,12.707c2.896,0,5.555-0.981,7.696-2.617L21.604,24L24,21.603L16.796,14.4z M6.707,16.024
	c-5.138,0-9.318-4.181-9.318-9.318c0-5.137,4.18-9.318,9.318-9.318s9.318,4.181,9.318,9.318
	C16.024,11.844,11.845,16.024,6.707,16.024L6.707,16.024z"/>
</svg>
