<?xml version="1.0" encoding="utf-8"?>
<!-- Generator: Adobe Illustrator 16.0.0, SVG Export Plug-In . SVG Version: 6.00 Build 0)  -->
<!DOCTYPE svg PUBLIC "-//W3C//DTD SVG 1.1//EN" "http://www.w3.org/Graphics/SVG/1.1/DTD/svg11.dtd">
<svg version="1.1" id="Capa_1" xmlns="http://www.w3.org/2000/svg" xmlns:xlink="http://www.w3.org/1999/xlink" x="0px" y="0px"
	 width="17.996px" height="18px" viewBox="0 0 17.996 18" enable-background="new 0 0 17.996 18" xml:space="preserve">
<g>
	<path d="M10.545,18c-0.001,0-0.002,0-0.003,0H3.844C1.724,18,0,16.273,0,14.154V3.844C0,1.725,1.724,0,3.844,0h10.309
		c2.119,0,3.844,1.725,3.844,3.844v7.217c0,0.002,0,0.004,0,0.008l0,0l0,0c-0.001,0.105-0.023,0.205-0.063,0.295
		c-0.038,0.088-0.095,0.17-0.169,0.24c-0.004,0.004-0.008,0.008-0.012,0.012l-6.695,6.184c-0.012,0.01-0.023,0.021-0.037,0.031
		c-0.061,0.051-0.129,0.09-0.199,0.117c-0.072,0.029-0.15,0.047-0.232,0.051c-0.001,0-0.001,0-0.002,0
		C10.572,17.998,10.559,18,10.545,18z M3.844,1.504c-1.29,0-2.34,1.049-2.34,2.34v10.311c0,1.291,1.05,2.34,2.34,2.34h5.949v-3.371
		c0-1.551,1.262-2.813,2.813-2.813h3.887V3.844c0-1.291-1.05-2.34-2.34-2.34H3.844z M12.605,11.813
		c-0.722,0-1.309,0.588-1.309,1.311v2.406l4.024-3.717H12.605z"/>
	<path d="M13.121,5.627H4.875c-0.416,0-0.752-0.336-0.752-0.752c0-0.414,0.336-0.752,0.752-0.752h8.246
		c0.416,0,0.752,0.338,0.752,0.752C13.873,5.291,13.537,5.627,13.121,5.627z"/>
	<path d="M8.998,9.752H4.875C4.459,9.752,4.123,9.414,4.123,9c0-0.416,0.336-0.752,0.752-0.752h4.123C9.414,8.248,9.75,8.584,9.75,9
		C9.75,9.414,9.414,9.752,8.998,9.752z"/>
</g>
</svg>
