<?xml version="1.0" encoding="utf-8"?>
<!-- Generator: Adobe Illustrator 16.0.0, SVG Export Plug-In . SVG Version: 6.00 Build 0)  -->
<!DOCTYPE svg PUBLIC "-//W3C//DTD SVG 1.1//EN" "http://www.w3.org/Graphics/SVG/1.1/DTD/svg11.dtd">
<svg version="1.1" id="Capa_1" xmlns="http://www.w3.org/2000/svg" xmlns:xlink="http://www.w3.org/1999/xlink" x="0px" y="0px"
	 width="23.994px" height="30px" viewBox="388.003 385.076 23.994 30" enable-background="new 388.003 385.076 23.994 30"
	 xml:space="preserve">
<title>ic_fluent_patient_24_regular</title>
<desc>Created with Sketch.</desc>
<g id="_xD83D__xDD0D_-Product-Icons">
	<g id="ic_fluent_patient_24_regular">
		<path id="_xD83C__xDFA8_-Color" d="M408.623,385.076c1.863,0,3.374,1.511,3.374,3.375v23.251c0,1.863-1.511,3.374-3.374,3.374
			h-17.246c-1.864,0-3.375-1.511-3.375-3.374v-23.251c0-1.786,1.388-3.248,3.143-3.367l0.231-0.008H408.623z M409.748,406.071
			h-19.496v5.631c0,0.621,0.503,1.125,1.125,1.125h17.246c0.621,0,1.125-0.504,1.125-1.125V406.071z M393.628,408.321h12.746
			c0.621,0,1.124,0.503,1.124,1.124c0,0.57-0.423,1.04-0.972,1.115l-0.152,0.01h-12.746c-0.621,0-1.125-0.503-1.125-1.125
			c0-0.569,0.423-1.039,0.972-1.114L393.628,408.321h12.746H393.628z M408.623,387.326h-17.246l-0.153,0.01
			c-0.549,0.075-0.972,0.545-0.972,1.115v15.372h3.749v-3.381c0-0.971,0.738-1.769,1.683-1.865l0.191-0.01h8.248
			c0.971,0,1.77,0.738,1.865,1.683l0.01,0.192v3.381h3.749v-15.372C409.748,387.83,409.244,387.326,408.623,387.326z
			 M403.749,400.816h-7.498v3.006h7.498V400.816z M400,389.569c2.07,0,3.749,1.678,3.749,3.749s-1.679,3.749-3.749,3.749
			s-3.749-1.678-3.749-3.749S397.93,389.569,400,389.569z M400,391.818c-0.828,0-1.5,0.671-1.5,1.5s0.671,1.5,1.5,1.5
			s1.5-0.671,1.5-1.5S400.828,391.818,400,391.818z"/>
	</g>
</g>
</svg>
