<?xml version="1.0" encoding="utf-8"?>
<!-- Generator: Adobe Illustrator 16.0.0, SVG Export Plug-In . SVG Version: 6.00 Build 0)  -->
<!DOCTYPE svg PUBLIC "-//W3C//DTD SVG 1.1//EN" "http://www.w3.org/Graphics/SVG/1.1/DTD/svg11.dtd">
<svg version="1.1" id="Capa_1" xmlns="http://www.w3.org/2000/svg" xmlns:xlink="http://www.w3.org/1999/xlink" x="0px" y="0px"
	 width="18px" height="18px" viewBox="391 391 18 18" enable-background="new 391 391 18 18" xml:space="preserve">
<path d="M404.678,403.24c0.981-1.284,1.57-2.879,1.57-4.616c0-4.205-3.419-7.624-7.624-7.624c-4.205,0-7.624,3.419-7.624,7.624
	c0,4.205,3.419,7.624,7.624,7.624c1.737,0,3.333-0.589,4.617-1.57l4.321,4.322l1.438-1.438L404.678,403.24z M398.624,404.215
	c-3.083,0-5.591-2.509-5.591-5.591s2.508-5.591,5.591-5.591s5.591,2.509,5.591,5.591S401.707,404.215,398.624,404.215
	L398.624,404.215z"/>
</svg>
