<?xml version="1.0" encoding="utf-8"?>
<!-- Generator: Adobe Illustrator 16.0.0, SVG Export Plug-In . SVG Version: 6.00 Build 0)  -->
<!DOCTYPE svg PUBLIC "-//W3C//DTD SVG 1.1//EN" "http://www.w3.org/Graphics/SVG/1.1/DTD/svg11.dtd">
<svg version="1.1" id="Capa_1" xmlns="http://www.w3.org/2000/svg" xmlns:xlink="http://www.w3.org/1999/xlink" x="0px" y="0px"
	 width="30px" height="25.492px" viewBox="0 0 30 25.492" enable-background="new 0 0 30 25.492" xml:space="preserve">
<g>
	<path d="M20.658,0H2.118C0.948-0.001,0,0.949,0,2.119V13.95c0,1.167,0.948,2.118,2.119,2.118h3.533v4.866l5.401-4.866h9.604
		c1.172,0,2.119-0.951,2.119-2.12V2.119C22.777,0.949,21.83,0,20.658,0z M21.334,12.506c0,1.021-0.827,1.852-1.851,1.852h-8.387
		l-4.322,3.819v-3.819H3.293c-1.022,0-1.851-0.83-1.851-1.85V3.176c0-1.021,0.828-1.852,1.851-1.85h16.19
		c1.023,0,1.851,0.828,1.851,1.85V12.506z"/>
	<path d="M13.623,12.346c0,0.209-0.168,0.377-0.379,0.377H4.492c-0.208,0-0.381-0.168-0.381-0.377v-1.44
		c0-0.21,0.171-0.38,0.381-0.38h8.754c0.209,0,0.379,0.17,0.379,0.38v1.44H13.623z"/>
	<path d="M19.459,8.629c0,0.211-0.168,0.383-0.381,0.383H4.491c-0.208,0-0.381-0.172-0.381-0.383V7.191
		c0-0.208,0.171-0.378,0.381-0.378h14.587c0.213,0,0.381,0.17,0.381,0.378V8.629z"/>
	<path d="M19.459,4.917c0,0.208-0.168,0.378-0.381,0.378H4.491c-0.208,0-0.381-0.169-0.381-0.378V3.477
		c0-0.208,0.171-0.38,0.381-0.38h14.587c0.213,0,0.381,0.172,0.381,0.38V4.917z"/>
	<path d="M27.881,6.362h-2.648c0,0,0,0.534,0,1.345h1.514c1.059,0,1.911,0.805,1.911,1.859v7.994c0,1.057-0.853,1.699-1.91,1.699
		h-3.331l-0.032,4.016l-4.285-4.016h-3.684c-0.547,0-1.038-0.177-1.387-0.491c-0.728,0.003-1.204,0.006-1.204,0.006
		c0,1.171,0.95,1.883,2.118,1.883h4.083l5.326,4.834l-0.008-4.834h3.539c1.172,0,2.117-0.712,2.117-1.883V8.422
		C30,7.254,29.055,6.362,27.881,6.362z"/>
</g>
</svg>
