<?xml version="1.0" encoding="utf-8"?>
<!-- Generator: Adobe Illustrator 16.0.0, SVG Export Plug-In . SVG Version: 6.00 Build 0)  -->
<!DOCTYPE svg PUBLIC "-//W3C//DTD SVG 1.1//EN" "http://www.w3.org/Graphics/SVG/1.1/DTD/svg11.dtd">
<svg version="1.1" id="Capa_1" xmlns="http://www.w3.org/2000/svg" xmlns:xlink="http://www.w3.org/1999/xlink" x="0px" y="0px"
	 width="30px" height="30.002px" viewBox="-6 -6.001 30 30.002" enable-background="new -6 -6.001 30 30.002" xml:space="preserve">
<g>
	<path d="M9.002,15.43c3.549,0,6.43-2.881,6.43-6.429c0-3.55-2.881-6.429-6.43-6.429c-3.55,0-6.429,2.879-6.429,6.429
		C2.573,12.552,5.452,15.43,9.002,15.43z M13.287,9.001c0,2.366-1.917,4.286-4.285,4.286c-2.367,0-4.286-1.92-4.286-4.286
		c0-2.367,1.919-4.286,4.286-4.286C11.37,4.715,13.287,6.634,13.287,9.001z"/>
	<path d="M21.136,4.733c-0.176-0.498-0.381-0.98-0.612-1.445c0.983-1.26,0.896-3.086-0.264-4.245l-1.517-1.515
		c-1.186-1.187-3.07-1.252-4.333-0.195c-0.371-0.174-0.752-0.329-1.143-0.466c-0.173-1.611-1.536-2.868-3.196-2.868H7.928
		c-1.657,0-3.023,1.255-3.194,2.868C4.295-2.979,3.869-2.801,3.454-2.603c-1.261-1.125-3.197-1.083-4.409,0.13l-1.514,1.515
		C-3.68,0.252-3.723,2.189-2.6,3.451C-2.798,3.866-2.977,4.292-3.13,4.733C-4.743,4.904-6,6.27-6,7.928v2.143
		c0,1.657,1.256,3.024,2.869,3.196c0.137,0.388,0.293,0.771,0.464,1.143c-1.056,1.26-0.991,3.145,0.195,4.333l1.516,1.514
		c1.159,1.159,2.985,1.25,4.247,0.267c0.464,0.231,0.945,0.434,1.44,0.609c0.174,1.611,1.538,2.868,3.197,2.868h2.143
		c1.656,0,3.021-1.257,3.193-2.868c0.452-0.16,0.892-0.342,1.314-0.547c1.257,0.915,3.027,0.804,4.164-0.329l1.514-1.514
		c1.133-1.136,1.243-2.903,0.328-4.163c0.205-0.424,0.388-0.863,0.548-1.313C22.744,13.096,24,11.731,24,10.071V7.93
		C24.004,6.271,22.747,4.906,21.136,4.733z M21.858,10.071c0,0.593-0.479,1.074-1.071,1.074H20.38c-0.511,0-0.943,0.361-1.087,0.85
		c-0.222,0.762-0.521,1.487-0.898,2.168c-0.244,0.446-0.192,1.006,0.169,1.367l0.183,0.183c0.417,0.42,0.417,1.097,0,1.514
		l-1.514,1.517c-0.42,0.417-1.097,0.417-1.517,0l-0.183-0.183c-0.361-0.361-0.921-0.413-1.367-0.169
		c-0.681,0.378-1.409,0.681-2.168,0.901c-0.491,0.141-0.853,0.573-0.853,1.084v0.41c0,0.59-0.479,1.071-1.071,1.071H7.931
		c-0.592,0-1.072-0.479-1.072-1.071v-0.41c0-0.511-0.36-0.943-0.85-1.087c-0.807-0.234-1.574-0.56-2.29-0.967
		C3.27,18.069,2.7,18.118,2.335,18.482l-0.26,0.261c-0.418,0.417-1.097,0.417-1.514,0l-1.517-1.517
		c-0.417-0.417-0.417-1.094,0-1.514l0.324-0.322c0.356-0.355,0.412-0.908,0.174-1.354c-0.344-0.645-0.624-1.328-0.83-2.041
		c-0.142-0.491-0.576-0.853-1.086-0.853h-0.408c-0.593,0-1.073-0.479-1.073-1.071V7.928c0-0.592,0.48-1.072,1.073-1.072h0.408
		c0.51,0,0.944-0.36,1.086-0.85c0.22-0.762,0.524-1.488,0.898-2.167c0.244-0.448,0.192-1.008-0.166-1.369l-0.4-0.398
		c-0.417-0.418-0.417-1.097,0-1.516l1.517-1.514c0.417-0.418,1.095-0.418,1.514,0L2.474-0.56c0.36,0.361,0.921,0.412,1.369,0.168
		c0.68-0.376,1.404-0.677,2.165-0.898c0.49-0.142,0.85-0.575,0.85-1.086v-0.41c0-0.591,0.48-1.071,1.073-1.071h2.145
		c0.589,0,1.071,0.48,1.071,1.071v0.409c0,0.509,0.361,0.944,0.85,1.085c0.713,0.208,1.396,0.487,2.044,0.83
		c0.442,0.238,0.996,0.181,1.354-0.174l0.322-0.321c0.416-0.418,1.097-0.418,1.514,0l1.514,1.514c0.42,0.418,0.42,1.097,0,1.516
		l-0.261,0.262c-0.364,0.365-0.41,0.935-0.159,1.382c0.406,0.716,0.735,1.484,0.97,2.292c0.14,0.488,0.576,0.85,1.084,0.85h0.41
		c0.59,0,1.071,0.48,1.071,1.073V10.071L21.858,10.071z"/>
</g>
</svg>
