<?xml version="1.0" encoding="utf-8"?>
<!-- Generator: Adobe Illustrator 16.0.0, SVG Export Plug-In . SVG Version: 6.00 Build 0)  -->
<!DOCTYPE svg PUBLIC "-//W3C//DTD SVG 1.1//EN" "http://www.w3.org/Graphics/SVG/1.1/DTD/svg11.dtd">
<svg version="1.1" id="Capa_1" xmlns="http://www.w3.org/2000/svg" xmlns:xlink="http://www.w3.org/1999/xlink" x="0px" y="0px"
	 width="13.86px" height="18px" viewBox="0 0 13.86 18" enable-background="new 0 0 13.86 18" xml:space="preserve">
<g>
	<g>
		<defs>
			<polygon id="SVGID_1_" points="0,18 13.86,18 13.86,0 0,0 0,18 			"/>
		</defs>
		<clipPath id="SVGID_2_">
			<use xlink:href="#SVGID_1_"  overflow="visible"/>
		</clipPath>
		<g clip-path="url(#SVGID_2_)">
			<defs>
				<polygon id="SVGID_3_" points="0,18 13.86,18 13.86,0 0,0 0,18 				"/>
			</defs>
			<defs>
				<polygon id="SVGID_4_" points="0,0 13.86,0 13.86,18 0,18 0,0 				"/>
			</defs>
			<clipPath id="SVGID_5_">
				<use xlink:href="#SVGID_3_"  overflow="visible"/>
			</clipPath>
			<clipPath id="SVGID_6_" clip-path="url(#SVGID_5_)">
				<use xlink:href="#SVGID_4_"  overflow="visible"/>
			</clipPath>
			<g clip-path="url(#SVGID_6_)">
				<defs>
					<polygon id="SVGID_7_" points="0,18 13.86,18 13.86,0 0,0 0,18 					"/>
				</defs>
				<clipPath id="SVGID_8_">
					<use xlink:href="#SVGID_7_"  overflow="visible"/>
				</clipPath>
				<g clip-path="url(#SVGID_8_)">
					<defs>
						<polygon id="SVGID_9_" points="0.647,17.746 13.441,17.746 13.441,0.673 0.647,0.673 0.647,17.746 						"/>
					</defs>
					<clipPath id="SVGID_10_">
						<use xlink:href="#SVGID_9_"  overflow="visible"/>
					</clipPath>
					<path clip-path="url(#SVGID_10_)" fill="#EB5757" d="M10.927,11.743c-0.194,0.06-0.482,0.067-0.79,0.021
						c-0.329-0.049-0.666-0.154-0.996-0.309c0.59-0.09,1.046-0.063,1.438,0.083C10.671,11.573,10.823,11.662,10.927,11.743
						L10.927,11.743z M7.638,11.182c-0.024,0.007-0.048,0.014-0.071,0.02c-0.158,0.046-0.314,0.089-0.463,0.127l-0.2,0.054
						c-0.404,0.106-0.816,0.214-1.224,0.344c0.155-0.388,0.298-0.781,0.439-1.163c0.104-0.284,0.211-0.573,0.321-0.86
						c0.057,0.096,0.114,0.192,0.174,0.288C6.891,10.428,7.24,10.833,7.638,11.182L7.638,11.182z M6.611,6.813
						C6.637,7.291,6.537,7.75,6.392,8.191C6.212,7.646,6.128,7.043,6.354,6.556C6.411,6.431,6.458,6.364,6.489,6.33
						C6.536,6.405,6.598,6.576,6.611,6.813L6.611,6.813z M4.505,12.871c-0.101,0.187-0.204,0.362-0.309,0.527
						c-0.255,0.398-0.671,0.826-0.886,0.826c-0.021,0-0.046-0.004-0.083-0.046c-0.025-0.025-0.028-0.045-0.027-0.07
						c0.007-0.145,0.195-0.406,0.465-0.649C3.911,13.24,4.188,13.044,4.505,12.871L4.505,12.871z M11.608,11.764
						c-0.033-0.488-0.825-0.801-0.833-0.804c-0.306-0.112-0.639-0.168-1.016-0.168c-0.405,0-0.841,0.061-1.4,0.197
						c-0.499-0.366-0.928-0.826-1.251-1.334c-0.143-0.224-0.27-0.449-0.38-0.667C7,8.313,7.244,7.587,7.199,6.776
						C7.164,6.125,6.881,5.688,6.496,5.688c-0.265,0-0.492,0.202-0.677,0.604C5.49,7.004,5.577,7.919,6.077,9.007
						c-0.18,0.44-0.347,0.896-0.509,1.335c-0.202,0.549-0.41,1.115-0.644,1.651c-0.657,0.27-1.196,0.597-1.646,0.998
						c-0.295,0.264-0.648,0.666-0.669,1.084c-0.009,0.197,0.055,0.379,0.188,0.522c0.141,0.154,0.318,0.236,0.512,0.236
						c0.642,0,1.26-0.917,1.378-1.1c0.235-0.369,0.456-0.781,0.672-1.256c0.545-0.204,1.127-0.356,1.689-0.505l0.201-0.053
						c0.152-0.04,0.31-0.084,0.472-0.131c0.17-0.048,0.346-0.096,0.525-0.144c0.576,0.381,1.198,0.63,1.804,0.721
						c0.513,0.077,0.965,0.032,1.272-0.134C11.598,12.086,11.616,11.855,11.608,11.764L11.608,11.764z M12.852,15.962
						c0,0.893-0.76,0.947-0.911,0.95H2.148c-0.858,0-0.91-0.794-0.911-0.95V2.457c0-0.895,0.76-0.949,0.911-0.95h6.614L8.766,1.51
						v2.68c0,0.537,0.313,1.556,1.5,1.556h2.564l0.021,0.022V15.962L12.852,15.962L12.852,15.962z M12.243,5.135h-1.979
						c-0.857,0-0.908-0.79-0.91-0.945V2.124L12.243,5.135L12.243,5.135L12.243,5.135z M13.441,15.962V5.516L9.354,1.257v-0.02H9.335
						L9.007,0.896h-6.86c-0.519,0-1.5,0.327-1.5,1.562v13.504c0,0.539,0.313,1.561,1.5,1.561h9.794
						C12.458,17.523,13.441,17.197,13.441,15.962L13.441,15.962z"/>
				</g>
			</g>
		</g>
	</g>
</g>
</svg>
