<?xml version="1.0" encoding="utf-8"?>
<!-- Generator: Adobe Illustrator 16.0.0, SVG Export Plug-In . SVG Version: 6.00 Build 0)  -->
<!DOCTYPE svg PUBLIC "-//W3C//DTD SVG 1.1//EN" "http://www.w3.org/Graphics/SVG/1.1/DTD/svg11.dtd">
<svg version="1.1" id="Capa_1" xmlns="http://www.w3.org/2000/svg" xmlns:xlink="http://www.w3.org/1999/xlink" x="0px" y="0px"
	 width="30px" height="30px" viewBox="0 8.361 30 30" enable-background="new 0 8.361 30 30" xml:space="preserve">
<g>
	<path d="M27.201,25.786l-3.973-1.589c-1.479-0.593-3.285-0.303-4.505,0.714l-1.025,0.855c-0.576,0.479-1.592,0.43-2.121-0.096
		l-2.885-2.89c-0.58-0.579-0.622-1.49-0.099-2.118l0.857-1.026c1.048-1.259,1.322-2.985,0.713-4.504l-1.59-3.973
		c-0.682-1.7-2.305-2.799-4.136-2.799H4.294C1.926,8.361,0,10.288,0,12.657c0,14.174,11.531,25.705,25.705,25.705
		c2.367,0,4.294-1.927,4.295-4.296V29.92C30,28.089,28.901,26.466,27.201,25.786z M25.705,35.481
		c-12.586,0-22.826-10.238-22.826-22.824c0-0.78,0.635-1.416,1.416-1.416h4.145c0.648,0,1.221,0.388,1.46,0.989l1.591,3.97
		c0.215,0.537,0.118,1.146-0.252,1.592l-0.858,1.026c-1.482,1.781-1.364,4.36,0.274,5.999l2.887,2.891
		c0.842,0.841,1.961,1.304,3.149,1.304c1.039,0,2.051-0.366,2.853-1.033l1.024-0.854c0.429-0.356,1.071-0.459,1.592-0.253
		l3.971,1.59c0.602,0.239,0.988,0.812,0.988,1.459l-0.001,4.146C27.118,34.847,26.484,35.481,25.705,35.481z"/>
	<g>
		<path d="M25.272,8.362v4.931H30v2.125h-4.728v4.976h-2.217v-4.976H18.33v-2.125h4.726V8.362H25.272z"/>
	</g>
</g>
</svg>
