<?xml version="1.0" encoding="utf-8"?>
<!-- Generator: Adobe Illustrator 16.0.0, SVG Export Plug-In . SVG Version: 6.00 Build 0)  -->
<!DOCTYPE svg PUBLIC "-//W3C//DTD SVG 1.1//EN" "http://www.w3.org/Graphics/SVG/1.1/DTD/svg11.dtd">
<svg version="1.1" id="Capa_1" xmlns="http://www.w3.org/2000/svg" xmlns:xlink="http://www.w3.org/1999/xlink" x="0px" y="0px"
	 width="30px" height="29.732px" viewBox="0 0 30 29.732" enable-background="new 0 0 30 29.732" xml:space="preserve">
<g>
	<g>
		<defs>
			<polygon id="SVGID_1_" points="0,29.732 30,29.732 30,0 0,0 0,29.732 			"/>
		</defs>
		<clipPath id="SVGID_2_">
			<use xlink:href="#SVGID_1_"  overflow="visible"/>
		</clipPath>
		<path clip-path="url(#SVGID_2_)" fill-rule="evenodd" clip-rule="evenodd" fill="#F2F2F2" d="M10.65,23.293
			c-4.444,2.422-4.444,2.422-4.444,2.422c-0.259,0.146-0.497,0.322-0.714,0.508c2.589,2.195,5.945,3.51,9.602,3.51
			c3.636,0,6.96-1.305,9.55-3.458c-0.237-0.196-0.497-0.383-0.787-0.527c-4.765-2.382-4.765-2.382-4.765-2.382
			c-0.61-0.3-1.005-0.932-1.005-1.625c0-1.863,0-1.863,0-1.863c0.135-0.155,0.291-0.353,0.456-0.58
			c0.643-0.921,1.14-1.925,1.481-2.981c0.61-0.187,1.056-0.756,1.056-1.429c0-1.988,0-1.988,0-1.988
			c0-0.445-0.197-0.839-0.496-1.108c0-2.888,0-2.888,0-2.888s0.589-4.483-5.49-4.483c-6.08,0-5.49,4.483-5.49,4.483
			c0,2.888,0,2.888,0,2.888c-0.3,0.269-0.497,0.663-0.497,1.108c0,1.988,0,1.988,0,1.988c0,0.528,0.279,0.994,0.694,1.253
			c0.497,2.174,1.803,3.737,1.803,3.737c0,1.822,0,1.822,0,1.822C11.603,22.361,11.24,22.972,10.65,23.293L10.65,23.293z"/>
		<g clip-path="url(#SVGID_2_)">
			<defs>
				<polygon id="SVGID_3_" points="0,29.732 30,29.732 30,0 0,0 0,29.732 				"/>
			</defs>
			<clipPath id="SVGID_4_">
				<use xlink:href="#SVGID_3_"  overflow="visible"/>
			</clipPath>
			<path clip-path="url(#SVGID_4_)" fill-rule="evenodd" clip-rule="evenodd" fill="#671E75" d="M15.229,0.134
				C6.994,0,0.217,6.527,0.073,14.724C0,19.373,2.069,23.55,5.38,26.333c0.217-0.187,0.455-0.36,0.713-0.506
				c4.438-2.411,4.438-2.411,4.438-2.411c0.59-0.321,0.952-0.929,0.952-1.589c0-1.814,0-1.814,0-1.814s-1.303-1.558-1.8-3.722
				c-0.414-0.259-0.693-0.722-0.693-1.248c0-1.979,0-1.979,0-1.979c0-0.443,0.197-0.835,0.497-1.103c0-2.877,0-2.877,0-2.877
				s-0.59-4.464,5.482-4.464c6.073,0,5.483,4.464,5.483,4.464c0,2.877,0,2.877,0,2.877c0.3,0.268,0.496,0.66,0.496,1.103
				c0,1.979,0,1.979,0,1.979c0,0.67-0.455,1.227-1.065,1.423c-0.331,1.052-0.828,2.052-1.479,2.97
				c-0.155,0.227-0.311,0.423-0.445,0.577c0,1.856,0,1.856,0,1.856c0,0.689,0.383,1.318,1.004,1.618
				c4.759,2.371,4.759,2.371,4.759,2.371c0.29,0.145,0.548,0.33,0.776,0.526c3.217-2.671,5.285-6.661,5.368-11.146
				C30,7.032,23.452,0.279,15.229,0.134L15.229,0.134z"/>
		</g>
	</g>
</g>
</svg>
