<?xml version="1.0" encoding="utf-8"?>
<!-- Generator: Adobe Illustrator 16.0.0, SVG Export Plug-In . SVG Version: 6.00 Build 0)  -->
<!DOCTYPE svg PUBLIC "-//W3C//DTD SVG 1.1//EN" "http://www.w3.org/Graphics/SVG/1.1/DTD/svg11.dtd">
<svg version="1.1" id="Capa_1" xmlns="http://www.w3.org/2000/svg" xmlns:xlink="http://www.w3.org/1999/xlink" x="0px" y="0px"
	 width="17.782px" height="18px" viewBox="0 0 17.782 18" enable-background="new 0 0 17.782 18" xml:space="preserve">
<path d="M6.828,0h-4.94C0.847,0,0,0.856,0,1.908V6.9c0,1.052,0.847,1.907,1.888,1.907h4.94c1.039,0,1.886-0.854,1.888-1.907V1.908
	C8.715,0.856,7.87,0,6.828,0z M7.418,6.9c0,0.33-0.265,0.598-0.591,0.598h-4.94c-0.326,0-0.591-0.268-0.591-0.598V1.908
	c0-0.331,0.266-0.598,0.591-0.598h4.94c0.327,0,0.591,0.269,0.591,0.598L7.418,6.9z"/>
<path d="M15.893,0h-4.938c-1.043,0-1.89,0.855-1.89,1.908V6.9c0,1.053,0.847,1.908,1.89,1.908h4.938c1.043,0,1.89-0.856,1.89-1.909
	V1.907C17.782,0.856,16.936,0,15.893,0z M16.486,6.899c0,0.335-0.262,0.599-0.595,0.599h-4.938c-0.328,0-0.595-0.268-0.595-0.599
	V1.907c0-0.33,0.267-0.598,0.595-0.598h4.938c0.328,0,0.595,0.269,0.595,0.598V6.899z"/>
<path d="M6.828,9.192h-4.94C0.847,9.192,0,10.049,0,11.1v4.992C0,17.144,0.847,18,1.887,18h4.939c1.042,0,1.888-0.856,1.888-1.908
	L8.716,11.1C8.716,10.049,7.87,9.192,6.828,9.192z M7.418,16.092c0,0.329-0.266,0.599-0.592,0.599H1.887
	c-0.326,0-0.592-0.27-0.592-0.599V11.1c0-0.328,0.266-0.598,0.592-0.598h4.941c0.327,0,0.591,0.27,0.591,0.598L7.418,16.092z"/>
<path d="M15.893,9.192h-4.938c-1.043,0-1.89,0.855-1.89,1.905v4.992c0,1.054,0.847,1.909,1.89,1.909h4.938
	c1.043,0,1.89-0.855,1.89-1.909v-4.992C17.782,10.049,16.936,9.192,15.893,9.192z M16.486,16.092c0,0.336-0.262,0.599-0.595,0.599
	h-4.938c-0.328,0-0.595-0.27-0.595-0.599V11.1c0-0.328,0.267-0.598,0.595-0.598h4.938c0.328,0,0.595,0.27,0.595,0.598V16.092z"/>
</svg>
