<?xml version="1.0" encoding="utf-8"?>
<!-- Generator: Adobe Illustrator 16.0.0, SVG Export Plug-In . SVG Version: 6.00 Build 0)  -->
<!DOCTYPE svg PUBLIC "-//W3C//DTD SVG 1.1//EN" "http://www.w3.org/Graphics/SVG/1.1/DTD/svg11.dtd">
<svg version="1.1" id="Capa_1" xmlns="http://www.w3.org/2000/svg" xmlns:xlink="http://www.w3.org/1999/xlink" x="0px" y="0px"
	 width="30px" height="28.952px" viewBox="385 396.793 30 28.952" enable-background="new 385 396.793 30 28.952"
	 xml:space="preserve">
<path d="M414.648,408.412l-11.894-10.572c-1.57-1.396-3.939-1.396-5.51,0l-11.894,10.572c-0.432,0.384-0.471,1.046-0.087,1.478
	c0.384,0.432,1.045,0.471,1.478,0.087l1.359-1.208v9.729c0,3.106,0,4.818,1.215,6.033s2.926,1.215,6.033,1.215h9.303
	c3.106,0,4.818,0,6.033-1.215s1.215-2.927,1.215-6.033v-9.729l1.358,1.208c0.2,0.178,0.448,0.265,0.695,0.265
	c0.288,0,0.576-0.119,0.782-0.352C415.119,409.458,415.081,408.796,414.648,408.412z M402.055,423.651h-4.109v-5.154
	c0-1.133,0.921-2.055,2.054-2.055s2.055,0.922,2.055,2.055V423.651z M409.807,418.497c0,2.74-0.024,3.976-0.603,4.553
	c-0.577,0.578-1.813,0.602-4.553,0.602h-0.504v-5.154c0-2.287-1.86-4.147-4.147-4.147c-2.287,0-4.147,1.86-4.147,4.147v5.154h-0.504
	c-2.74,0-3.976-0.023-4.553-0.602c-0.577-0.577-0.602-1.813-0.602-4.553v-11.589l8.441-7.503c0.778-0.692,1.952-0.692,2.729,0
	l8.442,7.503V418.497z"/>
</svg>
