<?xml version="1.0" encoding="utf-8"?>
<!-- Generator: Adobe Illustrator 16.0.0, SVG Export Plug-In . SVG Version: 6.00 Build 0)  -->
<!DOCTYPE svg PUBLIC "-//W3C//DTD SVG 1.1//EN" "http://www.w3.org/Graphics/SVG/1.1/DTD/svg11.dtd">
<svg version="1.1" id="Capa_1" xmlns="http://www.w3.org/2000/svg" xmlns:xlink="http://www.w3.org/1999/xlink" x="0px" y="0px"
	 width="15px" height="15px" viewBox="0 0 15 15" enable-background="new 0 0 15 15" xml:space="preserve">
<g>
	<path fill-rule="evenodd" clip-rule="evenodd" fill="#FF6C00" d="M9.32,11.807c-4.218,0-4.218,0-4.218,0
		c-0.269,0-0.487,0.128-0.487,0.286s0.218,0.288,0.487,0.288c4.218,0,4.218,0,4.218,0c0.27,0,0.486-0.13,0.486-0.288
		S9.59,11.807,9.32,11.807L9.32,11.807z"/>
	<path fill-rule="evenodd" clip-rule="evenodd" fill="#FF6C00" d="M9.32,10.084c-4.218,0-4.218,0-4.218,0
		c-0.269,0-0.487,0.257-0.487,0.574c0,0.315,0.218,0.574,0.487,0.574c4.218,0,4.218,0,4.218,0c0.27,0,0.486-0.259,0.486-0.574
		C9.807,10.341,9.59,10.084,9.32,10.084L9.32,10.084z"/>
	<path fill-rule="evenodd" clip-rule="evenodd" fill="#FF6C00" d="M13.833,4.109c-1.588,0-1.588,0-1.588,0c0-2.739,0-2.739,0-2.739
		c0-0.262-0.226-0.474-0.501-0.474c-8.489,0-8.489,0-8.489,0c-0.276,0-0.5,0.211-0.5,0.474c0,2.739,0,2.739,0,2.739
		c-1.588,0-1.588,0-1.588,0C0.521,4.109,0,4.607,0,5.214c0,4.768,0,4.768,0,4.768c0,0.611,0.521,1.105,1.167,1.105
		c1.588,0,1.588,0,1.588,0c0,2.541,0,2.541,0,2.541c0,0.262,0.224,0.475,0.5,0.475c8.489,0,8.489,0,8.489,0
		c0.275,0,0.501-0.213,0.501-0.475c0-2.541,0-2.541,0-2.541c1.588,0,1.588,0,1.588,0c0.646,0,1.167-0.494,1.167-1.105
		c0-4.768,0-4.768,0-4.768C15,4.607,14.479,4.109,13.833,4.109L13.833,4.109z M3.755,1.843c7.489,0,7.489,0,7.489,0
		c0,2.266,0,2.266,0,2.266c-7.489,0-7.489,0-7.489,0V1.843L3.755,1.843L3.755,1.843z M11.244,13.154c-7.489,0-7.489,0-7.489,0
		c0-0.089,0-3.76,0-3.873c7.489,0,7.489,0,7.489,0C11.244,9.399,11.244,13.065,11.244,13.154L11.244,13.154z M11.744,6.893
		c-1.276,0-1.276,0-1.276,0c-0.275,0-0.499-0.212-0.499-0.474c0-0.261,0.224-0.474,0.499-0.474c1.276,0,1.276,0,1.276,0
		c0.275,0,0.501,0.212,0.501,0.474C12.245,6.68,12.02,6.893,11.744,6.893L11.744,6.893z"/>
</g>
</svg>
