<svg width="27" height="27" viewBox="0 0 27 27" fill="none" xmlns="http://www.w3.org/2000/svg">
<path d="M3.11359 19.9514V23.1622C3.11359 23.8044 3.54169 24.2325 4.18386 24.2325H8.46494V21.0217H11.6757V17.8109H13.8163L15.3147 16.3125C16.8022 16.8306 18.4215 16.8287 19.9077 16.3069C21.3939 15.7851 22.6591 14.7743 23.4962 13.44C24.3333 12.1057 24.6928 10.5268 24.5159 8.96158C24.339 7.39637 23.6361 5.93754 22.5223 4.82373C21.4085 3.70992 19.9497 3.00707 18.3845 2.83016C16.8193 2.65325 15.2404 3.01275 13.9061 3.84986C12.5717 4.68697 11.561 5.95212 11.0392 7.43835C10.5174 8.92458 10.5154 10.5439 11.0336 12.0314L3.11359 19.9514Z" stroke="#656565" stroke-width="2.14054" stroke-linecap="round" stroke-linejoin="round"/>
<path d="M18.6325 9.24849C18.928 9.24849 19.1676 9.0089 19.1676 8.71336C19.1676 8.41781 18.928 8.17822 18.6325 8.17822C18.3369 8.17822 18.0974 8.41781 18.0974 8.71336C18.0974 9.0089 18.3369 9.24849 18.6325 9.24849Z" stroke="white" stroke-width="2.14054" stroke-linecap="round" stroke-linejoin="round"/>
</svg>
