<?xml version="1.0" encoding="utf-8"?>
<!-- Generator: Adobe Illustrator 16.0.0, SVG Export Plug-In . SVG Version: 6.00 Build 0)  -->
<!DOCTYPE svg PUBLIC "-//W3C//DTD SVG 1.1//EN" "http://www.w3.org/Graphics/SVG/1.1/DTD/svg11.dtd">
<svg version="1.1" id="Capa_1" xmlns="http://www.w3.org/2000/svg" xmlns:xlink="http://www.w3.org/1999/xlink" x="0px" y="0px"
	 width="1156.154px" height="172.874px" viewBox="0 0 1156.154 172.874" enable-background="new 0 0 1156.154 172.874"
	 xml:space="preserve">
<g>
	<g>
		<text transform="matrix(1 0 0 1 191.395 151.0952)" fill="#666666" font-family="'TimesNewRomanPSMT'" font-size="71.0237">Excellence and Innovation Center</text>
	</g>
	<path fill="#521C78" d="M573.828,79.414c3.826,0,6.999-3.173,6.999-7.279c0-3.92-3.079-7.186-6.999-7.186
		c-3.919,0-7.092,3.172-7.092,7.186C566.829,76.147,570.001,79.414,573.828,79.414 M573.828,64.109c4.479,0,8.118,3.546,8.118,8.025
		c0,4.573-3.639,8.212-8.118,8.212c-4.573,0-8.119-3.639-8.119-8.212C565.709,67.655,569.348,64.109,573.828,64.109"/>
	<path fill="#521C78" d="M572.894,71.948c0.84,0,1.4-0.094,1.773-0.188c0.373-0.187,0.653-0.373,0.84-0.653
		c0.187-0.279,0.28-0.653,0.28-0.933c0-0.56-0.187-1.026-0.561-1.399c-0.373-0.374-0.839-0.561-1.399-0.561
		c-0.28,0-0.56,0.093-0.934,0.187V71.948z M570.561,67.655h4.014c0.933,0,1.679,0.28,2.146,0.653
		c0.56,0.467,0.839,1.026,0.839,1.587c0,0.56-0.187,1.027-0.56,1.399c-0.373,0.373-0.934,0.654-1.68,0.84l2.053,3.079
		c0.279,0.28,0.467,0.56,0.747,0.747c0.093,0,0.279,0.093,0.466,0.093v0.373h-1.865l-2.894-4.105h-0.839V75.4
		c0.093,0.28,0.187,0.374,0.373,0.56c0.093,0.093,0.373,0.093,0.84,0.093v0.373h-3.64v-0.373c0.281,0,0.467,0,0.654-0.093
		c0.093-0.093,0.187-0.187,0.28-0.373c0.093-0.093,0.093-0.374,0.093-0.933v-5.32c0-0.559,0-0.839-0.093-0.933
		c0-0.093-0.093-0.28-0.187-0.373c-0.187,0-0.373-0.093-0.654-0.093v-0.28H570.561z"/>
	<path fill="#521C78" d="M248.506,45.539h-2.52c-1.773-10.545-11.571-14.464-21.37-14.464c-10.731,0-21.276,7.746-21.276,22.023
		c0,13.811,8.772,26.315,22.77,26.315c6.065,0,15.397-3.267,22.396-13.251v8.585c-8.492,5.599-16.331,7.652-24.917,7.652
		c-27.995,0-32.194-19.597-32.194-27.623c0-11.851,9.332-26.409,34.434-26.409c5.133,0,15.024,1.306,22.677,4.013V45.539
		L248.506,45.539z"/>
	<path fill="#521C78" d="M254.199,77.641c4.759-0.093,6.065-1.68,6.065-5.413V39.66c0-3.639-1.307-5.319-6.065-5.412v-1.959h21.369
		v1.959c-4.759,0.093-6.065,1.68-6.065,5.412v13.438h27.342V39.66c0-3.639-1.306-5.319-6.065-5.412v-1.959h21.276v1.959
		c-4.759,0.093-6.065,1.68-6.065,5.412v32.568c0,3.639,1.307,5.319,6.065,5.413V79.6h-21.276v-1.959
		c4.759-0.093,6.065-1.68,6.065-5.413V55.897h-27.342v16.331c0,3.639,1.307,5.319,6.065,5.413V79.6h-21.369V77.641z"/>
	<path fill="#521C78" d="M337.718,55.524c-1.399,0-3.359-0.187-4.853-0.467V34.621c1.027-0.187,1.773-0.28,3.079-0.28
		c9.519,0,12.318,7.279,12.318,12.038C348.263,52.911,344.25,55.524,337.718,55.524 M386.803,34.248v-1.959H365.34v1.959
		c4.853,0.093,6.159,1.68,6.159,5.412v32.568c-0.28,2.799-2.146,4.666-4.853,5.039v-0.093c-3.453-0.653-7.652-3.267-11.292-8.865
		l-7.746-12.039c7.093-1.959,10.172-7.092,10.172-11.571c0-6.533-4.106-12.225-16.797-12.225c-4.759,0-19.97,0.093-23.423,0v1.959
		c4.759,0.094,6.065,1.68,6.065,5.413v32.381c0,3.639-1.307,5.319-6.065,5.413V79.6h21.37v-1.959
		c-4.759-0.093-6.066-1.68-6.066-5.413V57.483c4.946,0.094,5.973-0.28,8.958,5.599l2.894,5.6
		c4.012,7.839,8.119,10.918,17.823,10.918h24.263v-1.959c-4.853-0.093-6.159-1.68-6.159-5.413V39.66
		C380.645,36.021,381.951,34.341,386.803,34.248"/>
	<path fill="#521C78" d="M507.09,32.288v1.959c5.132,0,6.065,1.773,6.065,5.786l0.28,9.612c0,2.892,0.093,5.599,0.093,9.238
		c0,11.572-4.386,18.943-16.424,18.943c-7.745,0-14.371-5.413-14.371-15.304V39.566c0-3.639,1.213-5.319,5.786-5.412v-1.959
		l-64.39,0.093c-3.639-0.747-7.839-0.934-10.918-0.934c-16.33,0-18.477,10.452-18.477,13.812c0,14.744,26.689,14.277,26.689,24.822
		c0,3.639-3.453,7.839-10.639,7.839c-5.039,0-12.131-3.359-13.998-11.105h-2.52V78.2c5.227,1.307,11.479,2.146,16.238,2.146
		c12.132,0,18.291-6.252,18.291-14.091c0-14.838-27.155-15.677-27.155-25.383c0-3.546,3.452-7.372,9.425-6.999
		c14.091,0.84,13.158,11.199,13.158,11.199h2.706c0,0-1.679-9.519,9.892-9.612h8.305v36.768c0,3.639-1.306,5.319-6.16,5.413V79.6
		h21.464v-1.959c-4.853-0.093-6.159-1.68-6.159-5.413V35.647h9.705c5.506,0,9.146,1.307,9.985,8.305v16.983
		c0,14.278,9.798,19.504,22.676,19.504c15.304,0,19.503-9.705,19.69-19.411l0.28-21.37c0-3.639,1.213-5.319,5.786-5.412v-1.959
		H507.09z"/>
	<path fill="#521C78" d="M525.287,66.722h2.52c1.68,7.746,8.866,11.105,13.998,11.105c7.186,0,10.639-4.2,10.639-7.839
		c0-10.545-26.689-10.078-26.689-24.822c0-3.267,2.146-13.812,18.384-13.812c3.919,0,9.705,0.374,13.811,1.68v11.758h-2.426
		c-0.839-6.813-5.692-10.919-13.438-10.919c-5.973,0-9.425,3.36-9.425,6.999c0,9.706,27.155,10.545,27.155,25.383
		c0,7.839-6.253,14.091-18.291,14.091c-4.759,0-11.011-0.84-16.238-2.146V66.722L525.287,66.722z"/>
	<path fill="#521C78" d="M248.506,45.539h-2.52c-1.773-10.545-11.571-14.464-21.37-14.464c-10.731,0-21.276,7.746-21.276,22.023
		c0,13.811,8.772,26.315,22.77,26.315c6.065,0,15.397-3.267,22.396-13.251v8.585c-8.492,5.599-16.331,7.652-24.917,7.652
		c-27.995,0-32.194-19.597-32.194-27.623c0-11.851,9.332-26.409,34.434-26.409c5.133,0,15.024,1.306,22.677,4.013V45.539
		L248.506,45.539z"/>
	<path fill="#521C78" d="M254.199,77.641c4.759-0.093,6.065-1.68,6.065-5.413V39.66c0-3.639-1.307-5.319-6.065-5.412v-1.959h21.369
		v1.959c-4.759,0.093-6.065,1.68-6.065,5.412v13.438h27.342V39.66c0-3.639-1.306-5.319-6.065-5.412v-1.959h21.276v1.959
		c-4.759,0.093-6.065,1.68-6.065,5.412v32.568c0,3.639,1.307,5.319,6.065,5.413V79.6h-21.276v-1.959
		c4.759-0.093,6.065-1.68,6.065-5.413V55.897h-27.342v16.331c0,3.639,1.307,5.319,6.065,5.413V79.6h-21.369V77.641z"/>
	<path fill="#521C78" d="M337.718,55.524c-1.399,0-3.359-0.187-4.853-0.467V34.621c1.027-0.187,1.773-0.28,3.079-0.28
		c9.519,0,12.318,7.279,12.318,12.038C348.263,52.911,344.25,55.524,337.718,55.524 M386.803,34.248v-1.959H365.34v1.959
		c4.853,0.093,6.159,1.68,6.159,5.412v32.568c-0.28,2.799-2.146,4.666-4.853,5.039v-0.093c-3.453-0.653-7.652-3.267-11.292-8.865
		l-7.746-12.039c7.093-1.959,10.172-7.092,10.172-11.571c0-6.533-4.106-12.225-16.797-12.225c-4.759,0-19.97,0.093-23.423,0v1.959
		c4.759,0.094,6.065,1.68,6.065,5.413v32.381c0,3.639-1.307,5.319-6.065,5.413V79.6h21.37v-1.959
		c-4.759-0.093-6.066-1.68-6.066-5.413V57.483c4.946,0.094,5.973-0.28,8.958,5.599l2.894,5.6
		c4.012,7.839,8.119,10.918,17.823,10.918h24.263v-1.959c-4.853-0.093-6.159-1.68-6.159-5.413V39.66
		C380.645,36.021,381.951,34.341,386.803,34.248"/>
	<path fill="#521C78" d="M507.09,32.288v1.959c5.132,0,6.065,1.773,6.065,5.786l0.28,9.612c0,2.892,0.093,5.599,0.093,9.238
		c0,11.572-4.386,18.943-16.424,18.943c-7.745,0-14.371-5.413-14.371-15.304V39.566c0-3.639,1.213-5.319,5.786-5.412v-1.959
		l-64.39,0.093c-3.639-0.747-7.839-0.934-10.918-0.934c-16.33,0-18.477,10.452-18.477,13.812c0,14.744,26.689,14.277,26.689,24.822
		c0,3.639-3.453,7.839-10.639,7.839c-5.039,0-12.131-3.359-13.998-11.105h-2.52V78.2c5.227,1.307,11.479,2.146,16.238,2.146
		c12.132,0,18.291-6.252,18.291-14.091c0-14.838-27.155-15.677-27.155-25.383c0-3.546,3.452-7.372,9.425-6.999
		c14.091,0.84,13.158,11.199,13.158,11.199h2.706c0,0-1.679-9.519,9.892-9.612h8.305v36.768c0,3.639-1.306,5.319-6.16,5.413V79.6
		h21.464v-1.959c-4.853-0.093-6.159-1.68-6.159-5.413V35.647h9.705c5.506,0,9.146,1.307,9.985,8.305v16.983
		c0,14.278,9.798,19.504,22.676,19.504c15.304,0,19.503-9.705,19.69-19.411l0.28-21.37c0-3.639,1.213-5.319,5.786-5.412v-1.959
		H507.09z"/>
	<path fill="#521C78" d="M525.287,66.722h2.52c1.68,7.746,8.866,11.105,13.998,11.105c7.186,0,10.639-4.2,10.639-7.839
		c0-10.545-26.689-10.078-26.689-24.822c0-3.267,2.146-13.812,18.384-13.812c3.919,0,9.705,0.374,13.811,1.68v11.758h-2.426
		c-0.839-6.813-5.692-10.919-13.438-10.919c-5.973,0-9.425,3.36-9.425,6.999c0,9.706,27.155,10.545,27.155,25.383
		c0,7.839-6.253,14.091-18.291,14.091c-4.759,0-11.011-0.84-16.238-2.146V66.722L525.287,66.722z"/>
	<path fill="#521C78" d="M34.621,77.174c25.476,0,48.525-10.358,65.136-27.156V9.332H42.833v42.554H0.187v18.569
		C10.731,74.748,22.396,77.174,34.621,77.174"/>
	<path fill="#521C78" d="M99.757,51.978c-12.039,29.861-39.288,49.365-73.069,49.365c-9.332,0-18.29-1.587-26.502-4.572v11.758
		H43.02v42.646h56.738v-42.646h42.366V51.885H99.757V51.978z"/>
	<path fill="#BCA6CC" d="M97.984,51.885c-8.398-3.546-17.451-5.693-26.876-5.693c-10.078,0-19.596,2.053-28.275,5.879v24.916
		C63.923,75.027,83.333,65.79,97.984,51.885"/>
	<path fill="#BCA6CC" d="M99.477,52.538c-2.986,7.279-6.906,13.998-11.571,19.784c23.236,3.08,42.926,16.985,54.218,36.394
		C139.884,86.039,122.713,63.269,99.477,52.538"/>
	<path fill="#BCA6CC" d="M0.187,108.715c11.571,23.89,36.487,32.102,63.83,32.102c12.971,0,25.196-2.894,35.741-7.933v26.783
		c-9.239,3.732-19.877,5.692-30.982,5.692c-39.38,0-65.229-23.797-68.775-56.645H0.187z"/>
	<path fill="#BCA6CC" d="M99.757,52.071c15.304-16.891,36.487-27.342,59.816-27.342c11.198,0,21.929,2.426,31.821,6.906V4.759
		C183.743,1.773,175.438,0,166.946,0c-30.422,0-56.55,20.81-67.283,50.298v1.773H99.757z"/>
</g>
</svg>
