<?xml version="1.0" encoding="utf-8"?>
<!-- Generator: Adobe Illustrator 16.0.0, SVG Export Plug-In . SVG Version: 6.00 Build 0)  -->
<!DOCTYPE svg PUBLIC "-//W3C//DTD SVG 1.1//EN" "http://www.w3.org/Graphics/SVG/1.1/DTD/svg11.dtd">
<svg version="1.1" id="Capa_1" xmlns="http://www.w3.org/2000/svg" xmlns:xlink="http://www.w3.org/1999/xlink" x="0px" y="0px"
	 width="956.891px" height="244.124px" viewBox="0 0 956.891 244.124" enable-background="new 0 0 956.891 244.124"
	 xml:space="preserve">
<g>
	<path d="M339.895,192.32v-53.623h-12.112v-21.144h12.112V98.62h26.258v18.934h14.146v21.144h-14.146v53.623H339.895z"/>
	<path d="M410.956,117.554h26.258v15.063c4.283-10.227,11.193-16.86,23.631-16.307v27.639h-2.211
		c-13.682,0-21.42,7.877-21.42,25.152v23.219h-26.258V117.554z"/>
	<path d="M489.403,170.898v-0.277c0-15.479,11.746-23.492,29.297-23.492c6.91,0,13.684,1.381,17.967,2.902v-1.244
		c0-7.74-4.836-12.162-14.926-12.162c-7.877,0-13.957,1.52-20.592,4.145l-5.389-18.518c8.43-3.455,17.412-5.805,30.264-5.805
		c13.406,0,22.527,3.179,28.471,9.121c5.666,5.529,8.014,13.268,8.014,23.77v42.982h-25.98v-7.74
		c-5.113,5.666-12.162,9.396-21.973,9.396C500.321,193.977,489.403,185.822,489.403,170.898z M536.942,165.232v-3.455
		c-2.625-1.107-6.355-1.936-10.227-1.936c-7.602,0-12.021,3.732-12.021,9.26v0.275c0,5.113,3.869,8.154,9.258,8.154
		C531.553,177.531,536.942,172.695,536.942,165.232z"/>
	<path d="M596.95,155.283v-0.279c0-21.142,16.445-38.971,40.076-38.971c15.34,0,25.568,6.634,31.926,16.723l-17.828,13.266
		c-3.594-4.975-7.602-7.877-13.959-7.877c-8.43,0-14.648,7.463-14.648,16.584v0.275c0,9.676,6.08,17,14.926,17
		c6.219,0,10.227-2.902,14.373-7.738l17.551,12.713c-6.91,10.227-16.859,17.137-33.307,17.137
		C613.534,194.115,596.95,176.426,596.95,155.283z"/>
	<path d="M700.754,71h26.258v71.566l20.316-25.013h29.713l-25.982,29.987l26.674,44.779h-28.885l-15.063-25.43l-6.773,7.879v17.551
		h-26.258V71z"/>
	<path opacity="0.914" fill="#9ED1FE" enable-background="new    " d="M907,117.554h26.258v15.063
		c4.285-10.227,11.193-16.86,23.633-16.307v27.639h-2.211c-13.684,0-21.422,7.877-21.422,25.152v23.219H907V117.554z"/>
	<circle opacity="0.934" fill="#9BD8AC" enable-background="new    " cx="838.339" cy="175.951" r="20.569"/>
	<path opacity="0.795" fill="#D0B7EF" enable-background="new    " d="M229.5,63c-0.333-10.334-0.667-20.666-1-31
		c-8.088-0.817-16.255-1.317-24.5-1.5C184.604,13.801,162.271,3.634,137,0c-10,0-20,0-30,0C81.729,3.634,59.396,13.801,40,30.5
		c-7.913,0.184-15.746,0.684-23.5,1.5c-0.333,9.666-0.667,19.334-1,29C7.597,75.545,2.43,90.878,0,107c0,10.333,0,20.667,0,31
		c2.638,15.742,7.804,30.742,15.5,45c0.5,20.33,0.667,40.664,0.5,61c70.904,0.33,141.738-0.002,212.5-1
		c0.333-20.668,0.667-41.334,1-62c3.055-5.834,5.722-11.834,8-18C248.433,128.54,245.766,95.207,229.5,63z M15.5,168
		c-8.559-21.715-10.892-44.047-7-67c2.074-8.384,4.241-16.717,6.5-25C16.164,106.497,16.331,137.164,15.5,168z M223,37
		c0.166,4.346-0.001,8.68-0.5,13c-3.282-4.26-6.782-8.26-10.5-12C215.462,37.019,219.129,36.686,223,37z M221,74.5
		c-21.985,1.666-43.985,2.666-66,3c1.908-3.411,4.575-5.911,8-7.5c19.003-0.166,38.003,0,57,0.5
		C222.092,71.453,222.425,72.786,221,74.5z M205,48.5c1.21-1.039,2.21-2.206,3-3.5c4.661,5.34,8.995,11.006,13,17
		c-14.655,1.166-29.322,1.333-44,0.5C186.333,57.834,195.667,53.166,205,48.5z M202,41.5c-13.823,6.744-27.49,13.744-41,21
		c-4,0.666-8,0.666-12,0c-0.808-0.308-1.475-0.808-2-1.5c17.734-8.016,35.401-16.016,53-24C202.446,37.893,203.112,39.393,202,41.5z
		 M108,66c2.126,0.898,4.126,2.064,6,3.5c2.079,0.808,4.079,0.641,6-0.5c0.928-1.268,1.095-2.602,0.5-4
		c-10.925-7.611-12.092-16.444-3.5-26.5c10.711-3.145,16.378,0.855,17,12c0.227,6.049-2.273,10.549-7.5,13.5
		c-0.667,1.666-0.667,3.334,0,5c0.561,0.521,1.228,0.855,2,1c2.793-1.791,5.793-3.125,9-4c4.779,0.813,9.279,2.313,13.5,4.5
		c-1.294,2.087-2.461,4.254-3.5,6.5c-1.269,10.971-4.436,21.304-9.5,31c3.769,19.545,6.269,39.211,7.5,59
		c-5.711-8.256-11.544-16.422-17.5-24.5c-3.923-0.793-7.756-0.627-11.5,0.5c-5.03,7.184-10.197,14.184-15.5,21
		c1.226-18.631,3.559-37.131,7-55.5c-4.62-11.194-8.454-22.694-11.5-34.5c-0.465-1.431-1.299-2.598-2.5-3.5
		C98.525,68.747,103.192,67.247,108,66z M104.5,56C90.519,49.508,76.352,43.508,62,38c15.161-1.161,30.495-1.328,46-0.5
		c-0.96,1.42-1.793,2.92-2.5,4.5C105.167,46.666,104.833,51.334,104.5,56z M137,38c14.828-1.161,29.828-1.328,45-0.5
		c-14.026,5.764-27.859,11.93-41.5,18.5c-0.333-4.334-0.667-8.666-1-13C139.126,41.009,138.293,39.342,137,38z M110,7
		c24.751-1.75,48.084,3.083,70,14.5c4.333,3,8.667,6,13,9c-47.333,0.666-94.667,0.666-142,0C68.493,17.061,88.16,9.228,110,7z
		 M43,37c18.433,7.715,36.767,15.715,55,24c-0.525,0.692-1.192,1.192-2,1.5c-4.333,0.666-8.667,0.666-13,0
		c-13.51-7.256-27.177-14.256-41-21C40.918,39.789,41.252,38.289,43,37z M90,77.5c-22.014-0.334-44.014-1.334-66-3
		c-1.243-1.816-0.91-3.316,1-4.5c19.336-0.166,38.669,0,58,0.5C86,72.166,88.333,74.5,90,77.5z M67,62.5
		c-14.711,0.183-29.378,0.683-44,1.5c-1.021-0.502-1.188-1.168-0.5-2c3.688-6.052,7.854-11.719,12.5-17
		C45.452,51.063,56.119,56.896,67,62.5z M21,37c4.014-0.166,8.014,0.001,12,0.5c-4.214,4.545-8.047,9.379-11.5,14.5
		C21,47.012,20.834,42.012,21,37z M21,238c0-15,0-30,0-45c15.391,20.881,35.391,35.713,60,44.5C61.003,238,41.003,238.166,21,238z
		 M92,234c-8.055-1.742-15.722-4.574-23-8.5c8.224-11.227,16.058-22.727,23.5-34.5C92.052,205.275,91.886,219.609,92,234z M92.5,178
		c-9.332,13.326-18.165,26.992-26.5,41c-4.423,2.762-5.923,1.43-4.5-4c9.812-21.627,20.645-42.627,32.5-63
		C93.737,160.676,93.237,169.342,92.5,178z M53.5,216c-12.976-9.957-23.643-21.957-32-36c-0.5-32.998-0.667-65.998-0.5-99
		c23.632,1.629,47.299,3.129,71,4.5c2.402,8.205,5.402,16.205,9,24c-1.352,6.796-2.519,13.629-3.5,20.5
		C81.271,157.791,66.604,186.457,53.5,216z M99.5,233c-0.829-18.025-0.496-36.025,1-54c5.103-7.219,9.936-14.553,14.5-22
		c-3.324,25.443-6.824,51.111-10.5,77C102.418,236.65,100.751,236.316,99.5,233z M111,236c4.039-25.943,7.706-51.943,11-78
		c4.928,25.982,9.261,52.148,13,78.5C126.926,238.543,118.926,238.377,111,236z M146.5,232c-2.902,6.746-5.235,6.412-7-1
		c-2.949-25.813-6.783-51.48-11.5-77c5.97,8.154,11.804,16.486,17.5,25C146.429,196.662,146.762,214.328,146.5,232z M144,109
		c3.588-7.43,6.588-15.097,9-23c18.774-1.77,37.441-3.103,56-4c4.667,0,9.333,0,14,0c0.167,32.668,0,65.334-0.5,98
		c-8.219,13.551-18.552,25.217-31,35c-13.614-29.229-28.281-57.896-44-86C146.655,122.262,145.488,115.596,144,109z M183.5,214
		c0.667,2,0.667,4,0,6c-2.091,1-3.757,0.332-5-2c-8.417-13.836-17.084-27.502-26-41c-0.655-8.662-1.155-17.328-1.5-26
		C162.329,171.656,173.163,192.656,183.5,214z M152,191c7.644,11.268,15.31,22.602,23,34c-7.138,4.711-14.805,7.377-23,8
		C152.555,219.045,152.555,205.045,152,191z M223,238c-20.003,0.166-40.003,0-60-0.5c16.251-6.121,30.917-14.787,44-26
		c5.959-5.117,10.959-10.951,15-17.5C222.996,208.49,223.329,223.156,223,238z M229.5,166c-0.5-28.998-0.667-57.998-0.5-87
		C240.796,107.799,240.963,136.799,229.5,166z"/>
</g>
</svg>
