<?xml version="1.0" encoding="utf-8"?>
<!-- Generator: Adobe Illustrator 16.0.0, SVG Export Plug-In . SVG Version: 6.00 Build 0)  -->
<!DOCTYPE svg PUBLIC "-//W3C//DTD SVG 1.1//EN" "http://www.w3.org/Graphics/SVG/1.1/DTD/svg11.dtd">
<svg version="1.1" id="Capa_1" xmlns="http://www.w3.org/2000/svg" xmlns:xlink="http://www.w3.org/1999/xlink" x="0px" y="0px"
	 width="629.107px" height="125.52px" viewBox="0 0 629.107 125.52" enable-background="new 0 0 629.107 125.52"
	 xml:space="preserve">
<path d="M12.112,121.32V67.697H0V46.553h12.112V27.62H38.37v18.934h14.146v21.145H38.37v53.621H12.112L12.112,121.32z"/>
<path d="M83.173,46.554h26.258v15.063c4.283-10.227,11.193-16.86,23.631-16.307v27.639h-2.211c-13.682,0-21.42,7.877-21.42,25.152
	v23.219H83.173V46.554z"/>
<path d="M161.62,99.898v-0.277c0-15.479,11.746-23.492,29.297-23.492c6.91,0,13.684,1.381,17.967,2.902v-1.244
	c0-7.74-4.836-12.162-14.926-12.162c-7.877,0-13.957,1.52-20.593,4.145l-5.389-18.518c8.43-3.455,17.412-5.805,30.264-5.805
	c13.406,0,22.527,3.179,28.472,9.121c5.666,5.529,8.014,13.268,8.014,23.77v42.982h-25.979v-7.74
	c-5.113,5.666-12.162,9.396-21.974,9.396C172.538,122.977,161.62,114.822,161.62,99.898z M209.159,94.232v-3.455
	c-2.625-1.107-6.355-1.936-10.228-1.936c-7.602,0-12.021,3.732-12.021,9.26v0.275c0,5.113,3.868,8.152,9.258,8.152
	C203.77,106.531,209.159,101.695,209.159,94.232z"/>
<path d="M269.167,84.283v-0.279c0-21.142,16.444-38.971,40.076-38.971c15.34,0,25.567,6.634,31.926,16.722l-17.828,13.266
	c-3.594-4.975-7.603-7.877-13.959-7.877c-8.43,0-14.647,7.463-14.647,16.584v0.275c0,9.676,6.079,17,14.926,17
	c6.219,0,10.227-2.902,14.373-7.738l17.551,12.713c-6.91,10.229-16.859,17.139-33.307,17.139
	C285.751,123.115,269.167,105.426,269.167,84.283z"/>
<path d="M372.971,0h26.258v71.566l20.316-25.014h29.713l-25.982,29.988l26.675,44.777h-28.886l-15.063-25.43l-6.773,7.879v17.551
	h-26.258V0z"/>
<path opacity="0.914" fill="#9ED1FE" enable-background="new    " d="M579.217,46.554h26.258v15.063
	c4.285-10.227,11.193-16.86,23.633-16.307v27.639h-2.211c-13.684,0-21.422,7.877-21.422,25.152v23.219h-26.258V46.554z"/>
<circle opacity="0.934" fill="#9BD8AC" enable-background="new    " cx="510.556" cy="104.951" r="20.568"/>
</svg>
