<?xml version="1.0" encoding="utf-8"?>
<!-- Generator: Adobe Illustrator 16.0.0, SVG Export Plug-In . SVG Version: 6.00 Build 0)  -->
<!DOCTYPE svg PUBLIC "-//W3C//DTD SVG 1.1//EN" "http://www.w3.org/Graphics/SVG/1.1/DTD/svg11.dtd">
<svg version="1.1" id="Capa_1" xmlns="http://www.w3.org/2000/svg" xmlns:xlink="http://www.w3.org/1999/xlink" x="0px" y="0px"
	 width="1921.394px" height="316.173px" viewBox="0 0 1921.394 316.173" enable-background="new 0 0 1921.394 316.173"
	 xml:space="preserve">
<g>
	<path fill="none" stroke="#F1DDFF" stroke-miterlimit="10" d="M0.096,155.559c0,0,291.752-24.425,717.874,122.56
		c426.122,146.981,566.925-179.83,725.027-253.939c158.098-74.106,477.986,49.406,477.986,49.406"/>
	<path fill="none" stroke="#F1DDFF" stroke-miterlimit="10" d="M0.096,155.559c0,0,68.181-5.207,190.926,7.568
		c75.855,7.894,158.581,11.073,258.055,28.938c82.979,14.903,176.105,49.792,278.009,84.901
		c205.826,70.954,342.391,24.007,450.673-45.993c110.598-71.697,187.551-169.193,268.963-204.569
		c45.145-19.617,102.8-24.171,162.504-20.591c85.352,5.167,165.312,24.918,226.601,41.027
		c52.138,13.704,85.156,26.746,85.156,26.746"/>
	<path fill="none" stroke="#F1DDFF" stroke-miterlimit="10" d="M0.096,155.559c0,0,68.16-4.604,195.041,10.131
		c82.405,9.569,161.363,3.991,260.098,17.857c83.003,11.656,176.872,56.442,280.968,92.266
		c202.822,69.877,335.646,17.743,444.814-52.216c109.444-70.515,187.203-162.02,269.431-194.969
		c45.13-18.084,102.119-22.132,161.212-18.562c88.866,5.465,163.317,24.181,224.781,38.419c52.719,12.212,84.542,25.1,84.542,25.1"
		/>
	<path fill="none" stroke="#F1DDFF" stroke-miterlimit="10" d="M0.096,155.559c0,0,68.134-3.922,199.156,12.694
		c88.954,11.281,164.171-3.12,262.141,6.776c83.049,8.389,177.638,63.093,283.927,99.631
		c199.819,68.8,328.902,11.479,438.955-58.438c108.292-69.333,186.833-154.865,269.9-185.37
		c45.101-16.563,101.438-20.094,159.92-16.534c92.38,5.763,161.333,23.431,222.962,35.813c53.308,10.71,83.927,23.454,83.927,23.454
		"/>
	<path fill="none" stroke="#F1DDFF" stroke-miterlimit="10" d="M0.096,155.559c0,0,68.104-3.179,203.271,15.257
		c95.5,13.025,167.003-10.265,264.183-4.305c83.118,5.098,178.406,69.743,286.886,106.997
		c196.815,67.722,322.314,5.462,433.097-64.661c107.291-67.913,186.439-147.73,270.368-175.771
		c45.061-15.055,100.758-18.056,158.628-14.504c95.894,6.06,159.358,22.665,221.143,33.206
		c53.906,9.197,83.313,21.808,83.313,21.808"/>
	<path fill="none" stroke="#F1DDFF" stroke-miterlimit="10" d="M0.097,155.559c0,0,68.068-2.386,207.385,17.82
		c102.044,14.8,169.856-17.446,266.225-15.386c83.205,1.779,179.173,76.394,289.845,114.361
		c193.811,66.646,315.599-0.754,427.237-70.883c106.163-66.69,186.026-140.616,270.838-166.171
		c45.008-13.562,100.075-16.018,157.336-12.476c99.407,6.357,157.391,21.882,219.323,30.598
		c54.512,7.671,82.697,20.162,82.697,20.162"/>
	<path fill="none" stroke="#F1DDFF" stroke-miterlimit="10" d="M0.097,155.559c0,0,68.027-1.553,211.5,20.383
		c108.584,16.602,172.727-24.664,268.268-26.466c83.306-1.571,179.94,83.044,292.804,121.727
		c190.807,65.567,308.879-6.977,421.378-77.106c105.029-65.474,185.593-133.527,271.306-156.571
		c44.946-12.084,99.396-13.979,156.045-10.446c102.92,6.654,155.432,21.085,217.503,27.991
		c55.123,6.133,82.083,18.516,82.083,18.516"/>
	<path fill="none" stroke="#F1DDFF" stroke-miterlimit="10" d="M0.096,155.559c0.001,0,67.983-0.686,215.616,22.946
		c115.122,18.428,175.608-31.925,270.311-37.547c83.419-4.952,180.706,89.694,295.763,129.092
		c187.804,64.489,302.155-13.205,415.519-83.329c103.893-64.266,185.143-126.465,271.774-146.972
		c44.875-10.623,98.715-11.941,154.753-8.418c106.435,6.952,153.478,20.271,215.685,25.384c55.737,4.582,81.468,16.87,81.468,16.87"
		/>
	<path fill="none" stroke="#F1DDFF" stroke-miterlimit="10" d="M0.096,155.559c0.001,0,67.933,0.208,219.731,25.51
		c121.655,20.277,178.498-39.228,272.353-48.629c83.539-8.368,181.474,96.346,298.722,136.457
		c184.8,63.413,295.427-19.439,409.659-89.551c102.751-63.064,184.679-119.434,272.243-137.373
		c44.796-9.177,98.034-9.902,153.462-6.389c109.948,7.25,151.527,19.441,213.864,22.777c56.357,3.016,80.854,15.224,80.854,15.224"
		/>
	<path fill="none" stroke="#F1DDFF" stroke-miterlimit="10" d="M0.096,155.559c0,0,67.877,1.125,223.846,28.072
		c128.184,22.146,181.39-46.57,274.395-59.708c83.661-11.819,182.241,102.996,301.681,143.822
		c181.795,62.335,288.694-25.682,403.8-95.773c101.604-61.869,184.202-112.433,272.712-127.773
		c44.71-7.749,97.353-7.864,152.17-4.36c113.461,7.547,149.578,18.595,212.045,20.169c56.979,1.437,80.238,13.578,80.238,13.578"/>
	<path fill="none" stroke="#F1DDFF" stroke-miterlimit="10" d="M0.096,155.559c0,0,67.819,2.063,227.961,30.636
		c134.709,24.034,184.28-53.954,276.438-70.79c83.782-15.306,183.008,109.646,304.64,151.188
		c178.792,61.258,281.956-31.932,397.94-101.997c100.453-60.683,183.718-105.463,273.181-118.173
		c44.62-6.339,96.673-5.826,150.878-2.331c116.975,7.845,147.655,19.277,210.227,17.562c57.579-1.578,79.623,11.932,79.623,11.932"
		/>
	<path fill="none" stroke="#F1DDFF" stroke-miterlimit="10" d="M0.096,155.559c0,0,67.756,3.019,232.076,33.199
		c141.231,25.94,187.164-61.377,278.48-81.871c83.896-18.829,183.774,116.296,307.599,158.553
		c175.788,60.18,275.214-38.189,392.082-108.22c99.297-59.501,183.227-98.531,273.648-108.574
		c44.528-4.946,95.992-3.788,149.587-0.302c120.487,8.143,145.684,16.856,208.407,14.955c58.223-1.765,79.008,10.286,79.008,10.286"
		/>
	<path fill="none" stroke="#F1DDFF" stroke-miterlimit="10" d="M0.096,155.559c0,0,67.69,3.987,236.191,35.762
		c147.75,27.861,190.036-68.837,280.522-92.951c84.001-22.386,184.542,122.946,310.558,165.918
		c172.784,59.103,268.467-44.454,386.223-114.442c98.139-58.329,182.733-91.633,274.117-98.975
		c44.435-3.569,95.312-1.749,148.295,1.727c124.003,8.44,143.735,15.965,206.588,12.348c58.844-3.386,78.394,8.64,78.394,8.64"/>
	<path fill="none" stroke="#F1DDFF" stroke-miterlimit="10" d="M0.096,155.559c0,0,67.62,4.969,240.306,38.325
		c154.264,29.798,192.893-76.333,282.565-104.033c84.09-25.976,185.308,129.598,313.516,173.283
		c169.781,58.026,261.715-50.728,380.363-120.665c96.975-57.162,182.24-84.77,274.587-89.375c44.34-2.211,94.63,0.289,147.003,3.756
		c127.516,8.737,141.784,15.059,204.768,9.74c59.463-5.021,77.779,6.994,77.779,6.994"/>
	<path fill="none" stroke="#F1DDFF" stroke-miterlimit="10" d="M0.096,155.559c0,0,67.547,5.962,244.422,40.889
		c160.775,31.747,195.731-83.858,284.607-115.114C613.287,51.735,715.2,217.581,845.601,261.981
		c166.776,56.948,254.957-57.011,374.504-126.888c95.808-56.001,181.75-77.944,275.055-79.774
		c44.248-0.868,93.949,2.327,145.712,5.784c131.028,9.035,139.83,14.141,202.948,7.134c60.078-6.669,77.164,5.348,77.164,5.348"/>
	<path fill="none" stroke="#F1DDFF" stroke-miterlimit="10" d="M0.096,155.559c0,0,67.471,6.964,248.537,43.451
		c167.282,33.709,198.548-91.411,286.649-126.194c84.214-33.249,186.843,142.898,319.435,188.013
		c163.772,55.871,248.195-63.301,368.646-133.109c94.636-54.847,181.281-68.216,275.522-70.175
		c44.152-0.918,93.269,4.365,144.42,7.813c134.543,9.333,137.87,13.209,201.13,4.526c60.688-8.33,76.549,3.702,76.549,3.702"/>
	<path fill="none" stroke="#F1DDFF" stroke-miterlimit="10" d="M0.096,155.559c0,0,67.392,7.976,252.652,46.015
		c173.788,35.684,201.341-98.988,288.692-137.275c84.242-36.924,187.61,149.549,322.393,195.378
		c160.77,54.794,241.429-69.603,362.786-139.332c93.462-53.701,180.793-64.401,275.992-60.576
		c44.074,1.771,92.587,6.404,143.128,9.842c138.057,9.629,135.905,12.267,199.31,1.919c61.294-10.003,75.935,2.056,75.935,2.056"/>
	<path fill="none" stroke="#F1DDFF" stroke-miterlimit="10" d="M0.097,155.559c0,0,67.31,8.994,256.766,48.577
		C437.151,241.804,460.972,97.552,547.598,55.78c84.244-40.624,188.376,156.199,325.352,202.743
		c157.766,53.716,234.655-75.915,356.927-145.555c92.284-52.561,180.333-57.681,276.461-50.976
		c43.997,3.069,91.906,8.442,141.836,11.871c141.57,9.927,133.935,11.313,197.491-0.688c61.894-11.688,75.319,0.41,75.319,0.41"/>
	<path fill="none" stroke="#F1DDFF" stroke-miterlimit="10" d="M0.096,155.559c0,0,67.226,10.02,260.881,51.141
		C447.765,246.361,467.829,92.501,553.755,47.262c84.222-44.341,189.144,162.85,328.311,210.109
		c154.761,52.639,227.876-82.238,351.068-151.778c91.103-51.426,179.887-50.996,276.929-41.377
		c43.927,4.354,91.227,10.48,140.545,13.9c145.084,10.225,131.957,10.351,195.671-3.295c62.488-13.383,74.705-1.236,74.705-1.236"/>
	<path fill="none" stroke="#F1DDFF" stroke-miterlimit="10" d="M0.096,155.559c0,0,67.078,11.338,264.997,53.704
		c193.223,41.945,209.565-121.824,294.82-170.519c84.17-48.075,189.911,169.5,331.27,217.474
		c151.757,51.562,220.993-88.749,345.208-158c89.847-50.428,179.458-44.343,277.397-31.777
		c43.865,5.628,90.546,12.519,139.254,15.929c148.597,10.522,129.973,9.379,193.852-5.902c63.074-15.089,74.09-2.882,74.09-2.882"/>
	<path fill="none" stroke="#F1DDFF" stroke-miterlimit="10" d="M0.096,155.559c0,0,67.02,12.234,269.112,56.267
		C468.952,255.649,481.461,82.368,566.07,30.227c84.094-51.823,190.678,176.15,334.229,224.838
		c148.754,50.484,214.248-95.015,339.349-164.223c88.694-49.247,179.05-37.719,277.867-22.178
		c43.811,6.89,89.864,14.557,137.962,17.958c152.109,10.819,127.949,8.281,192.032-8.509c63.621-16.921,73.475-4.528,73.475-4.528"
		/>
	<path fill="none" stroke="#F1DDFF" stroke-miterlimit="10" d="M0.096,155.559c0,0,66.96,13.132,273.227,58.83
		C479.589,260.091,488.236,77.29,572.228,21.709c83.988-55.58,191.445,182.801,337.188,232.204
		c145.75,49.406,207.504-101.279,333.49-170.446c125.982-69.17,259.377-3.708,415.005,7.409
		c155.624,11.117,125.981,7.413,190.213-11.117c64.225-18.526,72.86-6.174,72.86-6.174"/>
</g>
</svg>
