<?xml version="1.0" encoding="utf-8"?>
<svg version="1.1" id="Capa_1" xmlns="http://www.w3.org/2000/svg" xmlns:xlink="http://www.w3.org/1999/xlink" x="0px" y="0px"
	 width="15px" height="15px" viewBox="0 0 15 15" enable-background="new 0 0 15 15" xml:space="preserve">
<g>
	<path fill-rule="evenodd" clip-rule="evenodd" fill="#666666" d="M11.354,6.738c-0.08-0.164-0.254-0.272-0.443-0.272
		c-1.947,0-1.947,0-1.947,0c0-6.005,0-6.005,0-6.005C8.964,0.205,8.746,0,8.478,0C6.528,0,6.528,0,6.528,0
		C6.257,0,6.042,0.205,6.042,0.461c0,6.005,0,6.005,0,6.005c-1.948,0-1.948,0-1.948,0c-0.189,0-0.363,0.108-0.444,0.272
		c-0.082,0.165-0.048,0.36,0.076,0.493c3.409,3.695,3.409,3.695,3.409,3.695c0.093,0.103,0.228,0.16,0.369,0.16
		c0.141,0,0.276-0.058,0.368-0.16c3.41-3.695,3.41-3.695,3.41-3.695C11.403,7.098,11.431,6.903,11.354,6.738L11.354,6.738z"/>
	<path fill-rule="evenodd" clip-rule="evenodd" fill="#666666" d="M12.784,10.435c0,2.739,0,2.739,0,2.739c-10.57,0-10.57,0-10.57,0
		c0-2.739,0-2.739,0-2.739c-1.922,0-1.922,0-1.922,0c0,3.652,0,3.652,0,3.652C0.292,14.593,0.725,15,1.253,15
		c12.494,0,12.494,0,12.494,0c0.533,0,0.961-0.407,0.961-0.913c0-3.652,0-3.652,0-3.652H12.784L12.784,10.435L12.784,10.435z"/>
</g>
</svg>
