<svg width="84" height="85" viewBox="0 0 84 85" fill="none" xmlns="http://www.w3.org/2000/svg">
<g clip-path="url(#clip0_1106_10130)">
<path d="M82.6795 54.2261C81.3816 52.3929 79.2797 51.2991 77.0542 51.2991C76.6359 51.2991 76.2145 51.3384 75.8012 51.4148C73.6146 51.8145 71.3728 52.0169 69.1443 52.0169C68.376 52.0169 67.6005 51.9932 66.8393 51.9457C47.3257 50.7517 31.661 32.9614 32.6314 13.0972C32.711 11.4684 32.8956 9.85103 33.1814 8.28941C33.6752 5.63919 32.5957 2.91462 30.4304 1.34886L30.4141 1.3375C29.2254 0.462703 27.8183 0 26.3438 0C25.1725 0 24.0103 0.302616 22.9838 0.874798C6.89047 9.79216 -1.98471 27.5381 0.376426 46.0813C2.91103 65.9992 19.0431 82.2227 38.7352 84.6581C40.6066 84.8854 42.4647 85 44.2585 85H44.3565C60.5099 85 75.3676 76.094 83.1316 61.7574C84.4356 59.383 84.2581 56.4281 82.6795 54.2261ZM66.3679 59.7228C67.3066 59.7827 68.2709 59.8126 69.2341 59.8126C71.3075 59.8126 73.3921 59.6773 75.5604 59.4016C68.9382 70.4156 57.0835 77.1909 44.2391 77.1909C42.7228 77.1909 41.1811 77.0958 39.6566 76.9079C23.4042 74.9001 10.0924 61.5147 8.00472 45.0815C6.12111 30.2699 12.8984 16.0748 25.3439 8.48254C25.1388 9.90164 25.0021 11.3176 24.9378 12.7088C23.7388 37.1577 42.3249 58.25 66.3679 59.7228Z" fill="currentColor"/>
</g>
<defs>
<clipPath id="clip0_1106_10130">
<rect width="84" height="85" fill="currentColor"/>
</clipPath>
</defs>
</svg>
