<svg width="24" height="24" viewBox="0 0 24 24" fill="none" xmlns="http://www.w3.org/2000/svg">
<path fill-rule="evenodd" clip-rule="evenodd" d="M11.3861 1.21065C11.7472 0.929784 12.2528 0.929784 12.6139 1.21065L21.6139 8.21065C21.8575 8.4001 22 8.69141 22 9V20C22 20.7957 21.6839 21.5587 21.1213 22.1213C20.5587 22.6839 19.7957 23 19 23H16V14.3C16 13.582 15.418 13 14.7 13H9.3C8.58203 13 8 13.582 8 14.3V23H5C4.20435 23 3.44129 22.6839 2.87868 22.1213C2.31607 21.5587 2 20.7957 2 20V9C2 8.69141 2.14247 8.4001 2.38606 8.21065L11.3861 1.21065ZM10 23H14V15H10V23Z" fill="#695E93"/>
</svg>
