<?xml version="1.0" encoding="utf-8"?>
<!-- Generator: Adobe Illustrator 16.0.0, SVG Export Plug-In . SVG Version: 6.00 Build 0)  -->
<!DOCTYPE svg PUBLIC "-//W3C//DTD SVG 1.1//EN" "http://www.w3.org/Graphics/SVG/1.1/DTD/svg11.dtd">
<svg version="1.1" id="Capa_1" xmlns="http://www.w3.org/2000/svg" xmlns:xlink="http://www.w3.org/1999/xlink" x="0px" y="0px"
	 width="12.379px" height="15px" viewBox="0 0 12.379 15" enable-background="new 0 0 12.379 15" xml:space="preserve">
<path fill="#666666" d="M0.905,13.594c0,0.777,0.591,1.406,1.32,1.406l0,0h7.928c0.73,0,1.32-0.629,1.32-1.406l0,0V3.75H0.905
	V13.594z M8.392,6.094c0-0.259,0.196-0.469,0.439-0.469c0.244,0,0.44,0.21,0.44,0.469v6.563c0,0.259-0.196,0.469-0.44,0.469
	c-0.243,0-0.439-0.21-0.439-0.469V6.094z M5.749,6.094c0-0.259,0.197-0.469,0.44-0.469s0.44,0.21,0.44,0.469v6.563
	c0,0.259-0.197,0.469-0.44,0.469s-0.44-0.21-0.44-0.469V6.094z M3.106,6.094c0-0.259,0.197-0.469,0.44-0.469s0.44,0.21,0.44,0.469
	v6.563c0,0.259-0.197,0.469-0.44,0.469s-0.44-0.21-0.44-0.469V6.094z M11.915,0.938H8.611L8.353,0.39C8.241,0.151,8.011,0,7.762,0
	H4.615C4.364-0.001,4.136,0.15,4.026,0.39L3.768,0.938H0.465c-0.244,0-0.44,0.209-0.44,0.469v0.937c0,0.259,0.196,0.469,0.44,0.469
	h11.45c0.242,0,0.439-0.21,0.439-0.469V1.406C12.354,1.147,12.157,0.938,11.915,0.938z"/>
</svg>
