<svg width="44" height="44" viewBox="0 0 44 44" fill="none" xmlns="http://www.w3.org/2000/svg">
<g clip-path="url(#clip0_1183_17646)">
<rect width="44" height="44" rx="22" fill="#C0C2E1"/>
<path d="M33.6115 41.8676V38.6625C33.6115 36.9624 32.9361 35.3319 31.734 34.1298C30.5318 32.9276 28.9013 32.2523 27.2012 32.2523H17.5859C15.8857 32.2523 14.2553 32.9276 13.0531 34.1298C11.851 35.3319 11.1756 36.9624 11.1756 38.6625V41.8676" fill="#695E93"/>
<path d="M22.3935 25.842C25.9338 25.842 28.8038 22.972 28.8038 19.4317C28.8038 15.8915 25.9338 13.0215 22.3935 13.0215C18.8533 13.0215 15.9833 15.8915 15.9833 19.4317C15.9833 22.972 18.8533 25.842 22.3935 25.842Z" fill="#695E93"/>
<path d="M33.6115 41.8676V38.6625C33.6115 36.9624 32.9361 35.3319 31.734 34.1298C30.5318 32.9276 28.9013 32.2523 27.2012 32.2523H17.5859C15.8857 32.2523 14.2553 32.9276 13.0531 34.1298C11.851 35.3319 11.1756 36.9624 11.1756 38.6625V41.8676H33.6115ZM28.8038 19.4317C28.8038 22.972 25.9338 25.842 22.3935 25.842C18.8533 25.842 15.9833 22.972 15.9833 19.4317C15.9833 15.8915 18.8533 13.0215 22.3935 13.0215C25.9338 13.0215 28.8038 15.8915 28.8038 19.4317Z" stroke="#695E93" stroke-width="3.20513" stroke-linecap="round" stroke-linejoin="round"/>
</g>
<rect x="0.912641" y="0.912641" width="42.1747" height="42.1747" rx="21.0874" stroke="white" stroke-width="1.82528"/>
<defs>
<clipPath id="clip0_1183_17646">
<rect width="44" height="44" rx="22" fill="white"/>
</clipPath>
</defs>
</svg>
