<svg width="326" height="326" viewBox="0 0 326 326" fill="none" xmlns="http://www.w3.org/2000/svg">
<path d="M272 0C242.185 0 218 24.1848 218 54C218 83.8152 242.185 108 272 108H326V54C326 24.1848 301.815 0 272 0Z" fill="#A8A6D3"/>
<path d="M-2.40413e-06 163C-1.07673e-06 193.367 24.1848 218 54 218C83.8152 218 108 193.367 108 163L108 108L54 108C24.1848 108 -3.73152e-06 132.633 -2.40413e-06 163Z" fill="#A8A6D3"/>
<path d="M285.505 108H218V176.755C218 199.529 236.135 218 258.495 218H285.505C307.865 218 326 199.529 326 176.755V149.245C326 126.471 307.865 108 285.505 108Z" fill="#4D4867"/>
<path d="M176.755 218H108V285.505C108 307.865 126.471 326 149.245 326H176.755C199.529 326 218 307.865 218 285.505V258.495C218 236.135 199.529 218 176.755 218Z" fill="#A8A6D3"/>
<path d="M62.6475 0C28.0574 0 0 28.0683 0 62.6719V108H45.3525C79.9426 108 108 79.9317 108 45.3282V0H62.6475Z" fill="#E0B58E"/>
<path d="M280.648 218C246.057 218 218 246.068 218 280.672L218 326H263.352C297.943 326 326 297.932 326 263.328V218L280.648 218Z" fill="#F9F9F8"/>
<path d="M-2.73841e-06 263.352C-1.22643e-06 297.943 28.0683 326 62.6719 326L108 326L108 280.648C108 246.057 79.9317 218 45.3282 218L-4.72083e-06 218L-2.73841e-06 263.352Z" fill="#4B443C"/>
<path fill-rule="evenodd" clip-rule="evenodd" d="M137.621 159.469L163 163L159.469 137.621C157.615 124.424 147.243 114.051 134.046 112.198L108.667 108.667L112.198 134.046C114.051 147.243 124.424 157.615 137.621 159.469ZM188.379 159.469L163 163L166.531 137.621C168.385 124.424 178.757 114.051 191.954 112.198L217.333 108.667L213.802 134.046C211.949 147.243 201.576 157.615 188.379 159.469ZM163 163L188.379 166.531C201.576 168.385 211.949 178.757 213.802 191.954L217.333 217.333L191.954 213.802C178.757 211.949 168.385 201.576 166.531 188.379L163 163ZM137.621 166.531L163 163L159.469 188.379C157.615 201.576 147.243 211.949 134.046 213.802L108.667 217.333L112.198 191.954C114.051 178.757 124.424 168.385 137.621 166.531Z" fill="#E0B58E"/>
<path d="M176.755 0H108V67.5053C108 89.8649 126.471 108 149.245 108H176.755C199.529 108 218 89.8649 218 67.5053V40.4947C218 18.1351 199.529 0 176.755 0Z" fill="white"/>
<path d="M295.722 158.737C287.369 154.434 280.566 147.631 276.263 139.278L272 131L267.737 139.278C263.434 147.631 256.631 154.434 248.278 158.737L240 163L248.278 167.263C256.631 171.566 263.434 178.369 267.737 186.722L272 195L276.263 186.722C280.566 178.369 287.369 171.566 295.722 167.263L304 163L295.722 158.737Z" fill="white"/>
<path d="M129 21H162.5C180.987 21 196 36.0134 196 54.5C196 72.9866 180.987 88 162.5 88C144.013 88 129 72.9866 129 54.5V21Z" fill="#5C547F"/>
<path d="M24 242H53.5C69.7793 242 83 255.221 83 271.5C83 287.779 69.7793 301 53.5 301C37.2207 301 24 287.779 24 271.5V242Z" fill="white"/>
<path d="M271.537 77.0408C284.537 77.0408 295.075 66.5104 295.075 53.5204C295.075 40.5304 284.537 30 271.537 30C258.538 30 248 40.5304 248 53.5204C248 66.5104 258.538 77.0408 271.537 77.0408Z" fill="white"/>
<path d="M41 122H96V177C65.6444 177 41 152.356 41 122Z" fill="#5C547F"/>
</svg>
