<svg width="24" height="24" viewBox="0 0 24 24" fill="none" xmlns="http://www.w3.org/2000/svg">
<path fill-rule="evenodd" clip-rule="evenodd" d="M20.4142 16.4142C20.7893 16.0391 21 15.5304 21 15V5C21 4.46957 20.7893 3.96086 20.4142 3.58579C20.0391 3.21071 19.5304 3 19 3H5C4.46957 3 3.96086 3.21071 3.58579 3.58579C3.21071 3.96086 3 4.46957 3 5V21L7 17H19C19.5304 17 20.0391 16.7893 20.4142 16.4142ZM8 9C7.44772 9 7 9.44772 7 10C7 10.5523 7.44772 11 8 11H8.01C8.56228 11 9.01 10.5523 9.01 10C9.01 9.44772 8.56228 9 8.01 9H8ZM12 9C11.4477 9 11 9.44772 11 10C11 10.5523 11.4477 11 12 11H12.01C12.5623 11 13.01 10.5523 13.01 10C13.01 9.44772 12.5623 9 12.01 9H12ZM15 10C15 9.44772 15.4477 9 16 9H16.01C16.5623 9 17.01 9.44772 17.01 10C17.01 10.5523 16.5623 11 16.01 11H16C15.4477 11 15 10.5523 15 10Z" fill="#695E93"/>
</svg>
