<svg width="272" height="32" viewBox="0 0 272 32" fill="none" xmlns="http://www.w3.org/2000/svg">
<path fill-rule="evenodd" clip-rule="evenodd" d="M71.7305 7.99219C69.3737 5.34896 66.1706 4.02734 62.1211 4.02734C58.0716 4.02734 54.8685 5.34896 52.5117 7.99219C50.1549 10.6354 48.9766 13.8841 48.9766 17.7383C48.9766 21.6055 50.1549 24.8607 52.5117 27.5039C54.8685 30.1471 58.0716 31.4688 62.1211 31.4688C66.1706 31.4688 69.3737 30.1471 71.7305 27.5039C74.0872 24.8607 75.2656 21.6055 75.2656 17.7383C75.2656 13.8841 74.0872 10.6354 71.7305 7.99219ZM54.6797 9.57422C56.3594 7.0612 58.8398 5.80469 62.1211 5.80469C65.4023 5.80469 67.8828 7.0612 69.5625 9.57422C71.2422 12.0742 72.082 14.7956 72.082 17.7383C72.082 20.681 71.2422 23.4089 69.5625 25.9219C67.8828 28.4349 65.4023 29.6914 62.1211 29.6914C58.8398 29.6914 56.3594 28.4349 54.6797 25.9219C53 23.4089 52.1602 20.681 52.1602 17.7383C52.1602 14.7956 53 12.0742 54.6797 9.57422ZM146.398 26.2148C146.398 29.6914 148.456 31.4427 152.57 31.4688C153.352 31.4688 154.133 31.3971 154.914 31.2539C155.826 31.0977 156.281 30.8047 156.281 30.375C156.281 29.776 155.741 29.4766 154.66 29.4766C154.322 29.4766 153.983 29.5156 153.645 29.5938C153.306 29.6589 152.948 29.6914 152.57 29.6914C150.578 29.6784 149.582 28.5195 149.582 26.2148V13.2461H153.254C154.322 13.2461 154.855 12.9531 154.855 12.3672C154.855 11.7682 154.322 11.4688 153.254 11.4688H149.582V4.92578C149.582 4.32682 149.055 4.02734 148 4.02734C146.932 4.02734 146.398 4.32682 146.398 4.92578V11.4688H143.82C142.766 11.4688 142.238 11.7682 142.238 12.3672C142.238 12.9531 142.766 13.2461 143.82 13.2461H146.398V26.2148ZM230.148 30.9023C230.487 31.2799 231.086 31.4688 231.945 31.4688C232.401 31.4688 232.818 31.3906 233.195 31.2344C233.664 31.0521 233.898 30.8047 233.898 30.4922C233.898 30.375 233.833 30.2383 233.703 30.082L224.113 19.7109L232.531 12.5039C232.661 12.3867 232.727 12.276 232.727 12.1719C232.727 11.8854 232.492 11.6836 232.023 11.5664C231.802 11.5013 231.568 11.4688 231.32 11.4688C230.799 11.4688 230.415 11.5859 230.168 11.8203L218.625 21.6836V4.90625C218.625 4.32031 218.098 4.02734 217.043 4.02734C215.975 4.02734 215.441 4.32031 215.441 4.90625V30.5703C215.441 31.1693 215.975 31.4688 217.043 31.4688C218.098 31.4688 218.625 31.1693 218.625 30.5703V24.3984L221.711 21.7617L230.148 30.9023ZM245.5 31.4688C242.57 31.4688 240.142 30.5768 238.215 28.793C236.301 26.9961 235.344 24.6068 235.344 21.625C235.344 18.6042 236.314 16.1562 238.254 14.2812C240.207 12.4062 242.674 11.4688 245.656 11.4688C248.456 11.4688 250.839 12.2305 252.805 13.7539C254.784 15.2773 255.773 17.5169 255.773 20.4727C255.773 21.1758 255.246 21.5273 254.191 21.5273H238.508C238.508 23.6107 239.107 25.4922 240.305 27.1719C241.516 28.8516 243.254 29.6914 245.52 29.6914C247.173 29.6914 248.651 29.2487 249.953 28.3633C251.359 27.4258 252.121 26.3516 252.238 25.1406C252.303 24.5807 252.824 24.3008 253.801 24.3008C254.868 24.3008 255.402 24.5938 255.402 25.1797C255.402 25.5964 255.259 26.1042 254.973 26.7031C254.452 27.7969 253.592 28.7344 252.395 29.5156C250.441 30.8177 248.143 31.4688 245.5 31.4688ZM252.57 19.7305C252.245 15.4076 249.94 13.2461 245.656 13.2461C241.828 13.2461 239.504 15.4076 238.684 19.7305H252.57ZM260.305 31.4688C259.237 31.4688 258.703 31.1693 258.703 30.5703V12.3672C258.703 11.7682 259.237 11.4688 260.305 11.4688C261.359 11.4688 261.887 11.7682 261.887 12.3672V14.5352C262.824 12.4909 264.53 11.4688 267.004 11.4688C268.462 11.4688 269.725 11.8203 270.793 12.5234C271.053 12.6927 271.184 12.901 271.184 13.1484C271.184 13.4479 271.008 13.7279 270.656 13.9883C270.383 14.1836 270.077 14.2812 269.738 14.2812C269.283 14.2812 268.859 14.1185 268.469 13.793C268.078 13.4544 267.46 13.2852 266.613 13.2852C264.751 13.2852 263.495 14.1771 262.844 15.9609C262.206 17.7448 261.887 19.4115 261.887 20.9609V30.5703C261.887 31.1693 261.359 31.4688 260.305 31.4688ZM210.949 24.3203C212.004 24.3203 212.531 24.6003 212.531 25.1602C212.531 25.9154 212.186 26.7878 211.496 27.7773C209.751 30.2383 207.017 31.4688 203.293 31.4688C196.639 31.4688 193.312 28.1745 193.312 21.5859C193.286 14.8411 196.685 11.4688 203.508 11.4688C207.089 11.4688 209.712 12.6211 211.379 14.9258C212.121 15.9154 212.492 16.8464 212.492 17.7188C212.492 18.3177 211.965 18.6172 210.91 18.6172C209.921 18.6172 209.393 18.3438 209.328 17.7969C208.911 14.763 206.984 13.2461 203.547 13.2461C201.19 13.2461 199.426 14.099 198.254 15.8047C197.082 17.5104 196.496 19.4375 196.496 21.5859C196.496 23.7083 197.076 25.5898 198.234 27.2305C199.393 28.8711 201.125 29.6914 203.43 29.6914C206.841 29.6914 208.82 28.168 209.367 25.1211C209.458 24.5872 209.986 24.3203 210.949 24.3203ZM187.238 28.6758C187.733 30.5378 188.742 31.4688 190.266 31.4688C191.32 31.4688 191.848 31.1693 191.848 30.5703C191.848 30.3359 191.704 30.1341 191.418 29.9648C190.975 29.7044 190.637 29.3268 190.402 28.832C190.155 28.2721 190.031 27.5104 190.031 26.5469V17.9727C190.031 15.6159 189.094 13.9427 187.219 12.9531C185.344 11.9635 183.397 11.4688 181.379 11.4688C178.996 11.4688 176.978 12.0221 175.324 13.1289C173.658 14.2487 172.811 15.5703 172.785 17.0938C172.785 17.6927 173.312 17.9922 174.367 17.9922C175.422 17.9922 175.949 17.6927 175.949 17.0938C175.949 16 176.548 15.0625 177.746 14.2812C178.801 13.5911 180.012 13.2461 181.379 13.2461C185.025 13.2461 186.848 14.8216 186.848 17.9727V19.9453C186.158 20.375 184.999 20.5898 183.371 20.5898C182.824 20.5898 182.284 20.5768 181.75 20.5508C181.229 20.5247 180.76 20.5117 180.344 20.5117C179.081 20.5117 177.798 20.6354 176.496 20.8828C175.207 21.1172 174.165 21.6641 173.371 22.5234C172.59 23.3698 172.199 24.4896 172.199 25.8828C172.199 27.8099 173.104 29.2747 174.914 30.2773C176.32 31.0716 178.007 31.4688 179.973 31.4688C183.176 31.4688 185.598 30.5378 187.238 28.6758ZM184.562 28.3047C183.039 29.2292 181.509 29.6914 179.973 29.6914C178.618 29.6914 177.538 29.3724 176.73 28.7344C175.832 28.0573 175.37 27.0872 175.344 25.8242C175.344 25.1081 175.507 24.4635 175.832 23.8906C176.262 23.1224 176.9 22.6602 177.746 22.5039C178.592 22.3346 179.406 22.2565 180.188 22.2695C180.786 22.2695 181.385 22.2891 181.984 22.3281C182.583 22.3542 183.182 22.3672 183.781 22.3672C184.979 22.3672 186.001 22.276 186.848 22.0938V24.3203C186.848 26.0521 186.086 27.3802 184.562 28.3047ZM160.344 31.4688C159.276 31.4688 158.742 31.1693 158.742 30.5703V12.3672C158.742 11.7682 159.276 11.4688 160.344 11.4688C161.398 11.4688 161.926 11.7682 161.926 12.3672V14.5352C162.863 12.4909 164.569 11.4688 167.043 11.4688C168.501 11.4688 169.764 11.8203 170.832 12.5234C171.092 12.6927 171.223 12.901 171.223 13.1484C171.223 13.4479 171.047 13.7279 170.695 13.9883C170.422 14.1836 170.116 14.2812 169.777 14.2812C169.322 14.2812 168.898 14.1185 168.508 13.793C168.117 13.4544 167.499 13.2852 166.652 13.2852C164.79 13.2852 163.534 14.1771 162.883 15.9609C162.245 17.7448 161.926 19.4115 161.926 20.9609V30.5703C161.926 31.1693 161.398 31.4688 160.344 31.4688ZM130.52 11.4688C133.527 11.4688 135.988 12.3932 137.902 14.2422C139.816 16.0911 140.773 18.5 140.773 21.4688C140.773 24.4375 139.816 26.8464 137.902 28.6953C135.988 30.5443 133.527 31.4688 130.52 31.4688C127.512 31.4688 125.051 30.5443 123.137 28.6953C121.223 26.8464 120.266 24.4375 120.266 21.4688C120.266 18.5 121.223 16.0911 123.137 14.2422C125.051 12.3932 127.512 11.4688 130.52 11.4688ZM130.52 13.2461C128.241 13.2461 126.49 14.099 125.266 15.8047C124.055 17.5104 123.449 19.3984 123.449 21.4688C123.449 23.5391 124.055 25.4271 125.266 27.1328C126.49 28.8385 128.241 29.6914 130.52 29.6914C132.798 29.6914 134.543 28.8385 135.754 27.1328C136.978 25.4271 137.59 23.5391 137.59 21.4688C137.59 19.3984 136.978 17.5104 135.754 15.8047C134.543 14.099 132.798 13.2461 130.52 13.2461ZM118.312 25.1602C118.312 24.6003 117.785 24.3203 116.73 24.3203C115.767 24.3203 115.24 24.5872 115.148 25.1211C114.602 28.168 112.622 29.6914 109.211 29.6914C106.906 29.6914 105.174 28.8711 104.016 27.2305C102.857 25.5898 102.277 23.7083 102.277 21.5859C102.277 19.4375 102.863 17.5104 104.035 15.8047C105.207 14.099 106.971 13.2461 109.328 13.2461C112.766 13.2461 114.693 14.763 115.109 17.7969C115.174 18.3438 115.702 18.6172 116.691 18.6172C117.746 18.6172 118.273 18.3177 118.273 17.7188C118.273 16.8464 117.902 15.9154 117.16 14.9258C115.493 12.6211 112.87 11.4688 109.289 11.4688C102.466 11.4688 99.0677 14.8411 99.0937 21.5859C99.0937 28.1745 102.421 31.4688 109.074 31.4688C112.798 31.4688 115.533 30.2383 117.277 27.7773C117.967 26.7878 118.312 25.9154 118.312 25.1602ZM94.5625 31.4883C93.5078 31.4883 92.9805 31.1888 92.9805 30.5898V20.2383C92.9805 18.5325 92.5182 16.9505 91.5938 15.4922C90.6823 14.0208 89.2695 13.2851 87.3555 13.2851C83.3711 13.2851 81.3789 15.7917 81.3789 20.8047V30.5898C81.3789 31.1888 80.8516 31.4883 79.7969 31.4883C78.7292 31.4883 78.1953 31.1888 78.1953 30.5898V12.3672C78.1953 11.7682 78.7292 11.4687 79.7969 11.4687C80.8516 11.4687 81.3789 11.7682 81.3789 12.3672V14.5742C82.5378 12.4909 84.6211 11.4492 87.6289 11.4492C89.7122 11.4362 91.6523 12.1719 93.4492 13.6562C95.2591 15.1276 96.1641 17.3216 96.1641 20.2383V30.5898C96.1641 31.1888 95.6302 31.4883 94.5625 31.4883Z" fill="white"/>
<path fill-rule="evenodd" clip-rule="evenodd" d="M8.5264 14.9602L16 16L14.9602 8.5264C14.4143 4.64013 11.3599 1.5857 7.4736 1.0398L0 0L1.0398 7.4736C1.5857 11.3599 4.64013 14.4143 8.5264 14.9602ZM23.4736 14.9602L16 16L17.0398 8.5264C17.5857 4.64013 20.6401 1.5857 24.5264 1.0398L32 0L30.9602 7.4736C30.4143 11.3599 27.3599 14.4143 23.4736 14.9602ZM16 16L23.4736 17.0398C27.3599 17.5857 30.4143 20.6401 30.9602 24.5264L32 32L24.5264 30.9602C20.6401 30.4143 17.5857 27.3599 17.0398 23.4736L16 16ZM8.5264 17.0398L16 16L14.9602 23.4736C14.4143 27.3599 11.3599 30.4143 7.4736 30.9602L0 32L1.0398 24.5264C1.5857 20.6401 4.64013 17.5857 8.5264 17.0398Z" fill="white"/>
</svg>
