<svg width="70" height="88" viewBox="0 0 70 88" fill="none" xmlns="http://www.w3.org/2000/svg">
<g clip-path="url(#clip0_1106_10127)">
<path d="M28.6678 25.8086C26.0871 20.5417 22.2359 17.463 17.8236 17.1407C17.5848 17.1224 17.3296 17.1122 17.0684 17.1122C12.7791 17.1122 8.68904 19.7375 5.55134 24.503C2.54375 29.0714 0.614578 35.3143 0.119581 42.0819C-0.333744 48.2872 0.510903 54.3604 2.49903 59.1839L3.0855 60.6124L3.46564 61.5408L4.46174 61.4238L6.0006 61.2428C7.60147 61.0568 9.29584 60.9622 11.0329 60.9622C12.213 60.9622 13.4154 61.0059 14.6077 61.0924C17.5787 61.3089 20.4368 61.7817 23.1029 62.4965L24.595 62.8971L25.5617 63.1574L26.0739 62.2962L26.8637 60.9663C29.5328 56.4813 31.2516 50.5953 31.7039 44.393C32.2131 37.4444 31.1347 30.8436 28.6678 25.8086ZM24.9955 43.9029C24.6916 48.0605 23.7087 52.0879 22.2085 55.369C19.9225 54.8921 17.536 54.5607 15.0986 54.3817C13.7335 54.2821 12.3665 54.2322 11.0349 54.2322C9.9738 54.2322 8.92993 54.2627 7.91757 54.3238C6.91233 50.8627 6.52711 46.7346 6.83203 42.571C7.22031 37.2512 8.66973 32.3321 10.913 28.7186C12.8086 25.6652 15.1098 23.8422 17.0684 23.8422C17.163 23.8422 17.2483 23.8452 17.3276 23.8513H17.3327C19.5038 24.0109 21.5956 26.1492 23.0724 29.7191C24.6713 33.5828 25.3726 38.752 24.9955 43.9029Z" fill="currentColor"/>
<path d="M27.3384 70.1233C27.3058 69.2438 27.2276 68.3561 27.1076 67.4827L26.8769 65.7918L26.7173 64.6134L25.5291 64.649L4.53697 65.2743L3.33454 65.3099L3.25729 66.5107L3.14853 68.2107C3.08958 69.0902 3.07535 69.984 3.10788 70.8645C3.2705 75.4186 4.58677 79.6727 6.81375 82.843C9.14949 86.1678 12.2587 88 15.5682 88H15.5784L15.8081 87.998H15.8376C18.3878 87.9217 20.7692 86.7779 22.7238 84.6894C24.2423 83.0677 25.4661 80.8938 26.263 78.4007C27.069 75.8812 27.441 73.019 27.3384 70.1233ZM20.629 71.1776C20.6147 75.7053 19.144 78.9091 17.7098 80.4404C17.0197 81.1775 16.2838 81.5954 15.6353 81.6168L15.5601 81.6188C14.4827 81.6117 13.1522 80.5431 12.0859 78.8268C10.8672 76.8634 10.0958 74.2879 9.88132 71.4989L20.629 71.1776Z" fill="currentColor"/>
<path d="M69.882 24.9697C69.387 18.2021 67.4588 11.9592 64.4513 7.39087C61.3125 2.62529 57.2214 0 52.9301 0C52.678 0 52.426 0.00915089 52.178 0.0274527C47.7646 0.350784 43.9134 3.42955 41.3327 8.69741C38.8659 13.7324 37.7874 20.3333 38.2967 27.2839C38.751 33.4861 40.4708 39.3712 43.1389 43.8561L43.9297 45.185L44.4409 46.0442L45.4065 45.7859L46.8997 45.3853C49.5536 44.6716 52.4117 44.1988 55.3959 43.9812C56.5801 43.8937 57.7774 43.85 58.9534 43.85C60.6925 43.85 62.392 43.9456 64.0061 44.1327L65.5409 44.3106L66.5349 44.4265L66.9151 43.5003L67.5026 42.0717C69.4886 37.2533 70.3333 31.1791 69.882 24.9697ZM58.9687 37.1201C57.627 37.1201 56.2599 37.1709 54.905 37.2695C52.4656 37.4475 50.079 37.7789 47.7941 38.2568C46.2949 34.9788 45.312 30.9513 45.0081 26.7907C44.631 21.6398 45.3313 16.4696 46.9302 12.6059C48.407 9.03599 50.4998 6.89773 52.6709 6.7381H52.678C52.7553 6.732 52.8376 6.72895 52.9311 6.72895C54.8928 6.72895 57.195 8.55201 59.0917 11.6064C61.3349 15.22 62.7843 20.1401 63.1736 25.4598C63.4775 29.6214 63.0913 33.7495 62.084 37.2116C61.0625 37.1506 60.0186 37.1201 58.9687 37.1201Z" fill="currentColor"/>
<path d="M66.857 51.0427L66.7493 49.3813L66.6721 48.1805L65.4696 48.1459L44.4703 47.5348L43.2872 47.5002L43.1226 48.6726L42.8929 50.3218C42.7719 51.1769 42.6957 52.0452 42.6652 52.9003C42.5615 55.7299 42.9132 58.4193 43.7121 60.8921C44.4897 63.3008 45.687 65.4136 47.173 67.0018C49.1489 69.1126 51.566 70.2687 54.1629 70.3459H54.1823L54.413 70.349H54.4323C57.7357 70.349 60.8419 68.5646 63.1786 65.3241C65.4117 62.2271 66.732 58.0716 66.8957 53.6232C66.9251 52.7529 66.9119 51.8856 66.857 51.0427ZM54.4435 64.0654H54.3693C53.6954 64.042 52.9351 63.6129 52.2267 62.8554C50.8301 61.3628 49.399 58.278 49.3756 53.9648L60.1222 54.279C59.6374 60.2718 56.5251 64.0532 54.4435 64.0654Z" fill="currentColor"/>
</g>
<defs>
<clipPath id="clip0_1106_10127">
<rect width="70" height="88" fill="currentColor"/>
</clipPath>
</defs>
</svg>
