<svg width="26" height="26" viewBox="0 0 26 26" fill="none" xmlns="http://www.w3.org/2000/svg">
<path d="M22.0715 3.58836C21.9663 3.48365 21.8334 3.41115 21.6884 3.37938C21.5434 3.34762 21.3923 3.35792 21.2529 3.40906L4.1027 9.64552C3.95479 9.70162 3.82745 9.80139 3.73759 9.93158C3.64773 10.0618 3.59961 10.2162 3.59961 10.3744C3.59961 10.5326 3.64773 10.687 3.73759 10.8172C3.82745 10.9474 3.95479 11.0472 4.1027 11.1033L10.7991 13.7772L15.7415 8.81919L16.8407 9.91836L11.8749 14.8841L14.5566 21.5805C14.6143 21.7256 14.7143 21.8499 14.8436 21.9375C14.9728 22.0251 15.1254 22.0718 15.2815 22.0716C15.4391 22.0684 15.5919 22.0175 15.72 21.9257C15.848 21.8338 15.9452 21.7053 15.9987 21.5571L22.2352 4.4069C22.2883 4.26897 22.3011 4.1188 22.2721 3.97387C22.2431 3.82895 22.1736 3.69525 22.0715 3.58836Z" fill="currentColor"/>
</svg>
