<?xml version="1.0" encoding="utf-8"?>
<!-- Generator: Adobe Illustrator 16.0.0, SVG Export Plug-In . SVG Version: 6.00 Build 0)  -->
<!DOCTYPE svg PUBLIC "-//W3C//DTD SVG 1.1//EN" "http://www.w3.org/Graphics/SVG/1.1/DTD/svg11.dtd">
<svg version="1.1" id="Capa_1" xmlns="http://www.w3.org/2000/svg" xmlns:xlink="http://www.w3.org/1999/xlink" x="0px" y="0px"
	 width="576.46px" height="712.036px" viewBox="0 0 576.46 712.036" enable-background="new 0 0 576.46 712.036"
	 xml:space="preserve">
<g>
	<path d="M11.098,708.186v-49.137H0v-19.372h11.098v-17.35h24.061v17.35h12.963v19.372H35.159v49.137H11.098z"/>
	<path d="M76.212,639.677h24.061v13.801c3.923-9.37,10.256-15.445,21.653-14.941v25.327H119.9c-12.537,0-19.627,7.216-19.627,23.047
		v21.275H76.212V639.677z"/>
	<path d="M148.092,688.555v-0.252c0-14.18,10.764-21.527,26.846-21.527c6.333,0,12.538,1.267,16.464,2.659v-1.141
		c0-7.09-4.43-11.142-13.675-11.142c-7.219,0-12.79,1.393-18.871,3.8l-4.938-16.971c7.726-3.164,15.957-5.319,27.732-5.319
		c12.285,0,20.642,2.911,26.09,8.356c5.189,5.066,7.342,12.163,7.342,21.786v39.381h-23.809v-7.09
		c-4.683,5.192-11.142,8.608-20.132,8.608C158.097,709.705,148.092,702.237,148.092,688.555z M191.654,683.369v-3.17
		c-2.404-1.015-5.823-1.771-9.368-1.771c-6.967,0-11.019,3.422-11.019,8.482v0.252c0,4.688,3.545,7.474,8.482,7.474
		C186.717,694.636,191.654,690.207,191.654,683.369z"/>
	<path d="M246.642,674.25v-0.252c0-19.378,15.068-35.713,36.722-35.713c14.057,0,23.428,6.075,29.253,15.32l-16.337,12.156
		c-3.293-4.557-6.964-7.216-12.79-7.216c-7.723,0-13.423,6.838-13.423,15.2v0.252c0,8.86,5.57,15.572,13.675,15.572
		c5.703,0,9.371-2.659,13.171-7.09l16.083,11.646c-6.33,9.377-15.446,15.704-30.521,15.704
		C261.836,709.831,246.642,693.622,246.642,674.25z"/>
	<path d="M341.757,597.019h24.061v65.578l18.616-22.92h27.228l-23.809,27.477l24.441,41.032h-26.468l-13.801-23.299l-6.208,7.216
		v16.083h-24.061V597.019z"/>
	<path opacity="0.914" fill="#9ED1FE" enable-background="new    " d="M530.742,639.677h24.063v13.801
		c3.927-9.37,10.254-15.445,21.654-14.941v25.327h-2.026c-12.538,0-19.628,7.216-19.628,23.047v21.275h-24.063V639.677z"/>
	<circle opacity="0.934" fill="#9BD8AC" enable-background="new    " cx="467.829" cy="693.187" r="18.847"/>
</g>
<path opacity="0.795" fill="#D0B7EF" enable-background="new    " d="M536.442,147.257c-0.781-24.149-1.56-48.305-2.338-72.46
	c-18.906-1.909-37.994-3.075-57.269-3.504C431.499,32.259,379.298,8.495,320.227,0c-23.374,0-46.748,0-70.122,0
	c-59.067,8.495-111.27,32.259-156.609,71.293c-18.493,0.429-36.803,1.595-54.931,3.504c-0.778,22.599-1.553,45.191-2.334,67.79
	C17.756,176.586,5.678,212.425,0,250.104c0,24.156,0,48.311,0,72.466c6.163,36.797,18.241,71.854,36.23,105.179
	c1.169,47.523,1.556,95.053,1.169,142.588c165.734,0.775,331.305-0.007,496.706-2.338c0.778-48.311,1.557-96.615,2.338-144.92
	c7.141-13.637,13.376-27.658,18.698-42.077C580.698,300.457,574.462,222.54,536.442,147.257z M36.23,392.692
	c-20.005-50.755-25.46-102.961-16.363-156.609c4.849-19.599,9.913-39.072,15.193-58.438
	C37.783,248.933,38.168,320.617,36.23,392.692z M521.249,86.488c0.387,10.159-0.004,20.286-1.17,30.388
	c-7.672-9.957-15.852-19.309-24.543-28.05C503.628,86.532,512.199,85.75,521.249,86.488z M516.572,174.141
	c-51.386,3.895-102.81,6.232-154.271,7.014c4.461-7.978,10.693-13.82,18.7-17.532c44.419-0.391,88.829,0,133.232,1.166
	C519.125,167.02,519.903,170.133,516.572,174.141z M479.174,113.365c2.829-2.426,5.164-5.155,7.011-8.18
	c10.896,12.484,21.026,25.724,30.388,39.74c-34.254,2.723-68.536,3.113-102.848,1.166
	C435.542,135.183,457.359,124.274,479.174,113.365z M472.163,97.005c-32.313,15.761-64.258,32.127-95.837,49.086
	c-9.349,1.557-18.698,1.557-28.05,0c-1.888-0.718-3.444-1.891-4.673-3.504c41.454-18.735,82.744-37.439,123.884-56.1
	C473.202,88.574,474.759,92.078,472.163,97.005z M252.443,154.271c4.969,2.099,9.645,4.828,14.025,8.18
	c4.859,1.891,9.535,1.5,14.025-1.166c2.168-2.962,2.559-6.082,1.169-9.352c-25.539-17.79-28.264-38.436-8.183-61.941
	c25.038-7.348,38.281,2.004,39.737,28.05c0.529,14.142-5.313,24.659-17.532,31.554c-1.557,3.895-1.557,7.795,0,11.69
	c1.311,1.216,2.874,1.998,4.676,2.338c6.529-4.185,13.543-7.304,21.036-9.353c11.173,1.903,21.691,5.407,31.557,10.518
	c-3.024,4.878-5.75,9.944-8.18,15.194c-2.969,25.643-10.37,49.798-22.208,72.46c8.813,45.689,14.655,91.655,17.532,137.911
	c-13.348-19.296-26.985-38.385-40.906-57.266c-9.169-1.853-18.127-1.468-26.881,1.166c-11.756,16.788-23.834,33.154-36.229,49.086
	c2.867-43.547,8.318-86.791,16.363-129.726c-10.798-26.166-19.76-53.05-26.881-80.646c-1.087-3.34-3.035-6.069-5.842-8.18
	C230.295,160.693,241.203,157.189,252.443,154.271z M244.26,130.897c-32.679-15.175-65.792-29.197-99.341-42.072
	c35.439-2.716,71.278-3.107,107.524-1.172c-2.244,3.321-4.191,6.825-5.845,10.518C245.819,109.08,245.041,119.989,244.26,130.897z
	 M320.227,88.826c34.663-2.716,69.722-3.107,105.186-1.172c-32.783,13.473-65.118,27.886-97.003,43.244
	c-0.778-10.127-1.56-20.254-2.338-30.388C325.195,95.859,323.251,91.958,320.227,88.826z M257.116,16.366
	c57.855-4.096,112.395,7.203,163.624,33.892c10.127,7.008,20.258,14.022,30.385,21.036c-110.637,1.557-221.273,1.557-331.917,0
	C160.098,39.878,206.067,21.572,257.116,16.366z M100.51,86.488c43.086,18.03,85.939,36.734,128.559,56.1
	c-1.229,1.613-2.786,2.786-4.676,3.504c-10.13,1.557-20.254,1.557-30.384,0c-31.579-16.958-63.527-33.325-95.836-49.086
	C95.642,93.004,96.423,89.5,100.51,86.488z M210.368,181.155c-51.455-0.782-102.879-3.12-154.271-7.014
	c-2.905-4.248-2.127-7.751,2.338-10.518c45.198-0.391,90.389,0,135.574,1.166C201.019,168.684,206.474,174.141,210.368,181.155z
	 M156.606,146.091c-34.384,0.429-68.666,1.594-102.848,3.504c-2.385-1.172-2.773-2.729-1.166-4.67
	c8.618-14.147,18.354-27.395,29.216-39.74C106.241,119.358,131.175,132.996,156.606,146.091z M49.086,86.488
	c9.38-0.391,18.732,0,28.05,1.166c-9.85,10.625-18.812,21.924-26.881,33.892C49.086,109.887,48.698,98.203,49.086,86.488z
	 M49.086,556.309c0-35.058,0-70.122,0-105.179c35.975,48.802,82.722,83.475,140.246,104.013
	C142.591,556.309,95.843,556.7,49.086,556.309z M215.044,546.963c-18.827-4.071-36.75-10.694-53.762-19.87
	c19.224-26.241,37.534-53.125,54.931-80.64C215.167,479.823,214.776,513.324,215.044,546.963z M216.213,416.066
	c-21.814,31.15-42.459,63.095-61.944,95.834c-10.335,6.453-13.843,3.34-10.519-9.353c22.937-50.548,48.257-99.634,75.97-147.257
	C219.103,375.576,217.937,395.831,216.213,416.066z M125.053,504.885c-30.332-23.267-55.262-51.316-74.798-84.144
	c-1.169-77.135-1.557-154.271-1.169-231.406c55.239,3.806,110.558,7.31,165.958,10.518c5.615,19.177,12.626,37.875,21.036,56.1
	c-3.157,15.881-5.886,31.856-8.18,47.914C189.962,368.827,155.68,435.835,125.053,504.885z M232.573,544.625
	c-1.938-42.135-1.16-84.206,2.338-126.222c11.929-16.876,23.226-34.018,33.895-51.424c-7.771,59.472-15.953,119.466-24.546,179.983
	C239.395,553.158,235.497,552.376,232.573,544.625z M259.454,551.633c9.444-60.638,18.014-121.413,25.712-182.315
	c11.52,60.732,21.647,121.893,30.388,183.487C296.679,557.583,277.981,557.191,259.454,551.633z M342.435,542.288
	c-6.784,15.768-12.235,14.985-16.363-2.338c-6.895-60.335-15.855-120.336-26.881-179.983c13.956,19.057,27.593,38.536,40.906,58.438
	C342.268,459.688,343.046,500.985,342.435,542.288z M336.589,254.781c8.389-17.368,15.399-35.285,21.039-53.762
	c43.881-4.134,87.516-7.247,130.895-9.346c10.908,0,21.817,0,32.727,0c0.391,76.354,0,152.714-1.17,229.068
	c-19.211,31.674-43.363,58.942-72.459,81.806c-31.825-68.319-66.107-135.327-102.848-201.019
	C342.797,285.78,340.068,270.202,336.589,254.781z M428.919,500.215c1.557,4.67,1.557,9.346,0,14.022
	c-4.887,2.338-8.781,0.781-11.688-4.677c-19.674-32.341-39.932-64.286-60.772-95.833c-1.531-20.248-2.7-40.503-3.507-60.776
	C379.433,401.238,404.757,450.324,428.919,500.215z M355.29,446.454c17.869,26.336,35.786,52.829,53.762,79.474
	c-16.688,11.01-34.606,17.242-53.762,18.698C356.585,512.006,356.585,479.281,355.29,446.454z M521.249,556.309
	c-46.755,0.391-93.506,0-140.247-1.166c37.985-14.306,72.265-34.565,102.848-60.775c13.927-11.961,25.614-25.593,35.061-40.906
	C521.239,487.334,522.018,521.617,521.249,556.309z M536.442,388.016c-1.169-67.784-1.56-135.567-1.169-203.357
	C562.845,251.976,563.235,319.76,536.442,388.016z"/>
</svg>
