<svg width="25" height="25" viewBox="0 0 25 25" fill="none" xmlns="http://www.w3.org/2000/svg">
<path d="M19.9502 21.2002V19.2002C19.9502 18.1393 19.5288 17.1219 18.7786 16.3718C18.0285 15.6216 17.0111 15.2002 15.9502 15.2002H9.9502C8.88933 15.2002 7.87191 15.6216 7.12177 16.3718C6.37162 17.1219 5.9502 18.1393 5.9502 19.2002V21.2002" fill="#695E93"/>
<path d="M12.9502 11.2002C15.1593 11.2002 16.9502 9.40933 16.9502 7.2002C16.9502 4.99106 15.1593 3.2002 12.9502 3.2002C10.7411 3.2002 8.9502 4.99106 8.9502 7.2002C8.9502 9.40933 10.7411 11.2002 12.9502 11.2002Z" fill="#695E93"/>
<path d="M19.9502 21.2002V19.2002C19.9502 18.1393 19.5288 17.1219 18.7786 16.3718C18.0285 15.6216 17.0111 15.2002 15.9502 15.2002H9.9502C8.88933 15.2002 7.87191 15.6216 7.12177 16.3718C6.37162 17.1219 5.9502 18.1393 5.9502 19.2002V21.2002H19.9502ZM16.9502 7.2002C16.9502 9.40933 15.1593 11.2002 12.9502 11.2002C10.7411 11.2002 8.9502 9.40933 8.9502 7.2002C8.9502 4.99106 10.7411 3.2002 12.9502 3.2002C15.1593 3.2002 16.9502 4.99106 16.9502 7.2002Z" stroke="#695E93" stroke-width="2" stroke-linecap="round" stroke-linejoin="round"/>
</svg>
