<svg width="448" height="448" viewBox="0 0 448 448" fill="none" xmlns="http://www.w3.org/2000/svg">
<path opacity="0.1" d="M92.6563 317.501C108.109 328.33 99.3302 337.119 88.5 321.657C77.6698 337.109 68.8797 328.33 84.3437 317.501C68.8906 306.673 77.6698 297.884 88.5 313.346C99.3302 297.884 108.12 306.662 92.6563 317.501Z" fill="white"/>
<path opacity="0.1" d="M370.656 165.501C386.109 176.33 377.33 185.119 366.5 169.657C355.67 185.109 346.88 176.33 362.344 165.501C346.891 154.673 355.67 145.884 366.5 161.346C377.33 145.884 386.12 154.662 370.656 165.501Z" fill="white"/>
<path opacity="0.1" d="M67.6563 209.501C83.1094 220.33 74.3302 229.119 63.5 213.657C52.6698 229.109 43.8797 220.33 59.3437 209.501C43.8906 198.673 52.6698 189.884 63.5 205.346C74.3302 189.884 83.1203 198.662 67.6563 209.501Z" fill="white"/>
<rect x="170" y="170" width="108" height="108" rx="54" fill="white"/>
<rect x="159.2" y="159.2" width="129.6" height="129.6" rx="64.8" stroke="white" stroke-opacity="0.15" stroke-width="21.6"/>
<path d="M242 210.499L217.25 235.249L206 223.999" stroke="#695E93" stroke-width="4.5" stroke-linecap="round" stroke-linejoin="round"/>
<circle opacity="0.5" cx="256" cy="111" r="5" fill="white"/>
<circle opacity="0.5" cx="103" cy="254" r="5" fill="white"/>
<circle opacity="0.5" cx="290" cy="186" r="5" fill="white"/>
<circle opacity="0.9" cx="260" cy="292" r="9" fill="white"/>
<path opacity="0.3" d="M289.495 139.715C294.232 134.571 302.501 135 306.129 136.023C311.178 137.448 317.584 140.967 318 148" stroke="white" stroke-width="6" stroke-linecap="round"/>
<path opacity="0.3" d="M139.149 345.233C138.651 338.258 144.631 332.531 147.863 330.591C152.361 327.891 159.314 325.64 164.721 330.158" stroke="white" stroke-width="6" stroke-linecap="round"/>
<path opacity="0.3" d="M112.367 152.408L113.459 156.21C113.641 156.851 114.149 157.359 114.79 157.541L118.592 158.633C120.469 159.169 120.469 161.831 118.592 162.367L114.79 163.459C114.149 163.641 113.641 164.149 113.459 164.79L112.367 168.592C111.831 170.469 109.169 170.469 108.633 168.592L107.541 164.79C107.359 164.149 106.851 163.641 106.21 163.459L102.408 162.367C100.531 161.831 100.531 159.169 102.408 158.633L106.21 157.541C106.851 157.359 107.359 156.851 107.541 156.21L108.633 152.408C109.169 150.531 111.831 150.531 112.367 152.408Z" fill="white"/>
<path opacity="0.3" d="M345.162 255.63L346.426 260.032C346.637 260.775 347.225 261.363 347.968 261.574L352.37 262.838C354.543 263.459 354.543 266.541 352.37 267.162L347.968 268.426C347.225 268.637 346.637 269.225 346.426 269.968L345.162 274.37C344.541 276.543 341.459 276.543 340.838 274.37L339.574 269.968C339.363 269.225 338.775 268.637 338.032 268.426L333.63 267.162C331.457 266.541 331.457 263.459 333.63 262.838L338.032 261.574C338.775 261.363 339.363 260.775 339.574 260.032L340.838 255.63C341.459 253.457 344.541 253.457 345.162 255.63Z" fill="white"/>
<path opacity="0.3" d="M324 331.483L323.298 327.597L311.722 329.603L319.472 320.531L316.394 317.993L308.836 326.845V315H304.818V326.563L297.084 317.491L294.007 320.014L301.565 328.866L289.686 326.814L289 330.7L300.576 332.705L290.132 338.628L292.141 342.028L302.33 336.262L298.2 347.386L301.979 348.734L305.998 337.876L310.112 349L313.891 347.653L309.856 336.794L320.301 342.717L322.31 339.317L312.121 333.535L324 331.483Z" fill="white"/>
<path opacity="0.3" d="M181 105.665L180.519 103.151L172.581 104.449L177.895 98.5788L175.785 96.9364L170.602 102.665V95H167.846V102.482L162.544 96.612L160.433 98.2442L165.616 103.972L157.47 102.644L157 105.159L164.938 106.456L157.776 110.288L159.154 112.488L166.141 108.758L163.309 115.956L165.9 116.828L168.656 109.802L171.477 117L174.068 116.128L171.302 109.102L178.463 112.935L179.841 110.735L172.854 106.994L181 105.665Z" fill="white"/>
<circle opacity="0.5" cx="224" cy="224" r="95.5" stroke="white"/>
<circle opacity="0.3" cx="224" cy="224" r="120.5" stroke="white"/>
<circle opacity="0.15" cx="224" cy="224" r="153.5" stroke="white"/>
<circle opacity="0.1" cx="224" cy="224" r="186.5" stroke="white"/>
<circle opacity="0.05" cx="224" cy="224" r="223.5" stroke="white"/>
</svg>
