<svg width="390" height="844" viewBox="0 0 390 844" fill="none" xmlns="http://www.w3.org/2000/svg">
<g clip-path="url(#clip0_219_2426)">
<rect width="390" height="844" fill="#F3F4FA"/>
<path opacity="0.04" d="M128.043 265C115.872 265 106 274.616 106 286.471V302H121.957C134.128 302 144 292.384 144 280.529V265H128.043Z" fill="#695E93"/>
<path opacity="0.04" d="M44.0427 338C31.872 338 22 347.616 22 359.471V375H37.9573C50.128 375 60 365.384 60 353.529V338H44.0427Z" fill="#695E93"/>
<path opacity="0.04" d="M33.1423 236C22.5731 236 14 244.317 14 254.569V268H27.8577C38.4269 268 47 259.683 47 249.431V236H33.1423Z" fill="#695E93"/>
<path opacity="0.04" d="M119.043 407C106.872 407 97 416.616 97 428.471V444H112.957C125.128 444 135 434.384 135 422.529V407H119.043Z" fill="#695E93"/>
<path opacity="0.04" d="M158.043 551C145.872 551 136 560.616 136 572.471V588H151.957C164.128 588 174 578.384 174 566.529V551H158.043Z" fill="#695E93"/>
<path opacity="0.04" d="M3.04265 522C-9.12796 522 -19 531.616 -19 543.471V559H-3.04265C9.12795 559 19 549.384 19 537.529V522H3.04265Z" fill="#695E93"/>
<path opacity="0.04" d="M347.043 338C334.872 338 325 347.616 325 359.471V375H340.957C353.128 375 363 365.384 363 353.529V338H347.043Z" fill="#695E93"/>
<path opacity="0.04" d="M257.043 382C244.872 382 235 391.616 235 403.471V419H250.957C263.128 419 273 409.384 273 397.529V382H257.043Z" fill="#695E93"/>
<path opacity="0.04" d="M221.043 478C208.872 478 199 487.616 199 499.471V515H214.957C227.128 515 237 505.384 237 493.529V478H221.043Z" fill="#695E93"/>
<path opacity="0.04" d="M161.043 643C148.872 643 139 652.616 139 664.471V680H154.957C167.128 680 177 670.384 177 658.529V643H161.043Z" fill="#695E93"/>
<path opacity="0.04" d="M133.502 789C125.495 789 119 795.497 119 803.507V814H129.498C137.505 814 144 807.503 144 799.493V789H133.502Z" fill="#695E93"/>
<path opacity="0.04" d="M301.402 799C291.794 799 284 806.537 284 815.829V828H296.598C306.206 828 314 820.463 314 811.171V799H301.402Z" fill="#695E93"/>
<path opacity="0.04" d="M28.0427 730C15.872 730 6 739.616 6 751.471V767H21.9573C34.128 767 44 757.384 44 745.529V730H28.0427Z" fill="#695E93"/>
<path opacity="0.04" d="M263.982 620C254.054 620 246 628.057 246 637.989V651H259.018C268.946 651 277 642.943 277 633.011V620H263.982Z" fill="#695E93"/>
<path opacity="0.04" d="M64.9822 813C55.0535 813 47 821.057 47 830.989V844H60.0178C69.9465 844 78 835.943 78 826.011V813H64.9822Z" fill="#695E93"/>
<path opacity="0.04" d="M289.043 239C276.872 239 267 248.616 267 260.471V276H282.957C295.128 276 305 266.384 305 254.529V239H289.043Z" fill="#695E93"/>
<path opacity="0.04" d="M304.043 153C291.872 153 282 162.616 282 174.471V190H297.957C310.128 190 320 180.384 320 168.529V153H304.043Z" fill="#695E93"/>
<path opacity="0.04" d="M50.0427 -1C37.872 -1 28 8.61599 28 20.4709V36H43.9573C56.128 36 66 26.384 66 14.5291V-1H50.0427Z" fill="#695E93"/>
<path opacity="0.04" d="M339.762 89C332.715 89 327 94.4577 327 101.186V110H336.238C343.285 110 349 104.542 349 97.8138V89H339.762Z" fill="#695E93"/>
<path opacity="0.04" d="M304.043 70C291.872 70 282 79.616 282 91.4709V107H297.957C310.128 107 320 97.384 320 85.5291V70H304.043Z" fill="#695E93"/>
<path opacity="0.04" d="M204.722 172C193.833 172 185 180.576 185 191.15V205H199.278C210.167 205 219 196.424 219 185.85V172H204.722Z" fill="#695E93"/>
<path opacity="0.04" d="M106.142 155C95.5731 155 87 163.317 87 173.569V187H100.858C111.427 187 120 178.683 120 168.431V155H106.142Z" fill="#695E93"/>
<path opacity="0.04" d="M201.142 93C190.573 93 182 101.317 182 111.569V125H195.858C206.427 125 215 116.683 215 106.431V93H201.142Z" fill="#695E93"/>
<path opacity="0.04" d="M282.142 -2C271.573 -2 263 6.31653 263 16.5694V30H276.858C287.427 30 296 21.6835 296 11.4306V-2H282.142Z" fill="#695E93"/>
<path opacity="0.04" d="M205.043 310C192.872 310 183 319.616 183 331.471V347H198.957C211.128 347 221 337.384 221 325.529V310H205.043Z" fill="#695E93"/>
<path opacity="0.04" d="M196.463 438C184.612 438 175 447.356 175 458.891V474H190.537C202.388 474 212 464.644 212 453.109V438H196.463Z" fill="#695E93"/>
<path opacity="0.04" d="M246.043 566C233.872 566 224 575.616 224 587.471V603H239.957C252.128 603 262 593.384 262 581.529V566H246.043Z" fill="#695E93"/>
<path opacity="0.04" d="M356.762 267C349.715 267 344 272.458 344 279.186V288H353.238C360.285 288 366 282.542 366 275.814V267H356.762Z" fill="#695E93"/>
<path opacity="0.04" fill-rule="evenodd" clip-rule="evenodd" d="M340.58 407.073L351.607 408.607L350.073 397.58C349.267 391.846 344.761 387.34 339.027 386.534L328 385L329.534 396.027C330.34 401.761 334.846 406.267 340.58 407.073ZM362.634 407.073L351.607 408.607L353.141 397.58C353.947 391.846 358.453 387.34 364.187 386.534L375.214 385L373.68 396.027C372.874 401.761 368.368 406.267 362.634 407.073ZM351.607 408.607L362.634 410.141C368.368 410.947 372.874 415.453 373.68 421.187L375.214 432.214L364.187 430.68C358.453 429.874 353.947 425.368 353.141 419.634L351.607 408.607ZM340.58 410.141L351.607 408.607L350.073 419.634C349.267 425.368 344.761 429.874 339.027 430.68L328 432.214L329.534 421.187C330.34 415.453 334.846 410.947 340.58 410.141Z" fill="#695E93"/>
<path opacity="0.04" fill-rule="evenodd" clip-rule="evenodd" d="M50.113 446.008L61.6067 447.607L50.113 449.206C44.1362 450.046 39.4387 454.743 38.5991 460.72L37 472.214L48.4939 470.615C54.4707 469.775 59.1682 465.078 60.0077 459.101L61.6069 447.607L61.607 447.607L63.2061 459.101C64.0457 465.078 68.7432 469.775 74.72 470.615L86.2139 472.214L84.6147 460.72C83.7752 454.743 79.0777 450.046 73.1008 449.206L61.607 447.607L73.1007 446.008C79.0775 445.168 83.775 440.471 84.6146 434.494L86.2137 423L74.7199 424.599C68.7431 425.439 64.0456 430.136 63.206 436.113L61.6069 447.607L60.0077 436.113C59.1682 430.136 54.4707 425.439 48.4939 424.599L37 423L38.5991 434.494C39.4387 440.471 44.1362 445.168 50.113 446.008Z" fill="#695E93"/>
<path opacity="0.04" fill-rule="evenodd" clip-rule="evenodd" d="M89.113 583.008L100.607 584.607L89.113 586.206C83.1362 587.046 78.4387 591.743 77.5991 597.72L76 609.214L87.4939 607.615C93.4707 606.775 98.1682 602.078 99.0077 596.101L100.607 584.607L100.607 584.607L102.206 596.101C103.046 602.078 107.743 606.775 113.72 607.615L125.214 609.214L123.615 597.72C122.775 591.743 118.078 587.046 112.101 586.206L100.607 584.607L112.101 583.008C118.078 582.168 122.775 577.471 123.615 571.494L125.214 560L113.72 561.599C107.743 562.439 103.046 567.136 102.206 573.113L100.607 584.607L99.0077 573.113C98.1682 567.136 93.4707 562.439 87.4939 561.599L76 560L77.5991 571.494C78.4387 577.471 83.1362 582.168 89.113 583.008Z" fill="#695E93"/>
<path opacity="0.04" fill-rule="evenodd" clip-rule="evenodd" d="M14.113 300.008L25.6067 301.607L14.113 303.206C8.1362 304.046 3.4387 308.743 2.59915 314.72L1 326.214L12.4939 324.615C18.4707 323.775 23.1682 319.078 24.0077 313.101L25.6069 301.607L25.607 301.607L27.2061 313.101C28.0457 319.078 32.7432 323.775 38.72 324.615L50.2139 326.214L48.6147 314.72C47.7752 308.743 43.0777 304.046 37.1008 303.206L25.607 301.607L37.1007 300.008C43.0775 299.168 47.775 294.471 48.6146 288.494L50.2137 277L38.7199 278.599C32.7431 279.439 28.0456 284.136 27.206 290.113L25.6069 301.607L24.0077 290.113C23.1682 284.136 18.4707 279.439 12.4939 278.599L1 277L2.59915 288.494C3.4387 294.471 8.1362 299.168 14.113 300.008Z" fill="#695E93"/>
<path opacity="0.04" fill-rule="evenodd" clip-rule="evenodd" d="M168.966 374.735L159.107 376.107L160.479 366.248C161.199 361.121 165.228 357.092 170.355 356.372L180.214 355L178.842 364.859C178.122 369.986 174.093 374.015 168.966 374.735ZM149.248 374.735L159.107 376.107L157.735 366.248C157.015 361.121 152.986 357.092 147.859 356.372L138 355L139.372 364.859C140.092 369.986 144.121 374.015 149.248 374.735ZM159.107 376.107L168.966 377.479C174.093 378.199 178.122 382.228 178.842 387.355L180.214 397.214L170.355 395.842C165.228 395.122 161.199 391.093 160.479 385.966L159.107 376.107ZM149.248 377.479L159.107 376.107L157.735 385.966C157.015 391.093 152.986 395.122 147.859 395.842L138 397.214L139.372 387.355C140.092 382.228 144.121 378.199 149.248 377.479Z" fill="#695E93"/>
<path opacity="0.04" fill-rule="evenodd" clip-rule="evenodd" d="M153.113 513.008L164.607 514.607L153.113 516.206C147.136 517.046 142.439 521.743 141.599 527.72L140 539.214L151.494 537.615C157.471 536.775 162.168 532.078 163.008 526.101L164.607 514.607L164.607 514.607L166.206 526.101C167.046 532.078 171.743 536.775 177.72 537.615L189.214 539.214L187.615 527.72C186.775 521.743 182.078 517.046 176.101 516.206L164.607 514.607L176.101 513.008C182.078 512.168 186.775 507.471 187.615 501.494L189.214 490L177.72 491.599C171.743 492.439 167.046 497.136 166.206 503.113L164.607 514.607L163.008 503.113C162.168 497.136 157.471 492.439 151.494 491.599L140 490L141.599 501.494C142.439 507.471 147.136 512.168 153.113 513.008Z" fill="#695E93"/>
<path opacity="0.04" fill-rule="evenodd" clip-rule="evenodd" d="M228.113 733.008L239.607 734.607L228.113 736.206C222.136 737.046 217.439 741.743 216.599 747.72L215 759.214L226.494 757.615C232.471 756.775 237.168 752.078 238.008 746.101L239.607 734.607L239.607 734.607L241.206 746.101C242.046 752.078 246.743 756.775 252.72 757.615L264.214 759.214L262.615 747.72C261.775 741.743 257.078 737.046 251.101 736.206L239.607 734.607L251.101 733.008C257.078 732.168 261.775 727.471 262.615 721.494L264.214 710L252.72 711.599C246.743 712.439 242.046 717.136 241.206 723.113L239.607 734.607L238.008 723.113C237.168 717.136 232.471 712.439 226.494 711.599L215 710L216.599 721.494C217.439 727.471 222.136 732.168 228.113 733.008Z" fill="#695E93"/>
<path opacity="0.04" fill-rule="evenodd" clip-rule="evenodd" d="M359.113 608.008L370.607 609.607L359.113 611.206C353.136 612.046 348.439 616.743 347.599 622.72L346 634.214L357.494 632.615C363.471 631.775 368.168 627.078 369.008 621.101L370.607 609.607L370.607 609.607L372.206 621.101C373.046 627.078 377.743 631.775 383.72 632.615L395.214 634.214L393.615 622.72C392.775 616.743 388.078 612.046 382.101 611.206L370.607 609.607L382.101 608.008C388.078 607.168 392.775 602.471 393.615 596.494L395.214 585L383.72 586.599C377.743 587.439 373.046 592.136 372.206 598.113L370.607 609.607L369.008 598.113C368.168 592.136 363.471 587.439 357.494 586.599L346 585L347.599 596.494C348.439 602.471 353.136 607.168 359.113 608.008Z" fill="#695E93"/>
<path opacity="0.04" fill-rule="evenodd" clip-rule="evenodd" d="M203.113 642.008L214.607 643.607L203.113 645.206C197.136 646.046 192.439 650.743 191.599 656.72L190 668.214L201.494 666.615C207.471 665.775 212.168 661.078 213.008 655.101L214.607 643.607L214.607 643.607L216.206 655.101C217.046 661.078 221.743 665.775 227.72 666.615L239.214 668.214L237.615 656.72C236.775 650.743 232.078 646.046 226.101 645.206L214.607 643.607L226.101 642.008C232.078 641.168 236.775 636.471 237.615 630.494L239.214 619L227.72 620.599C221.743 621.439 217.046 626.136 216.206 632.113L214.607 643.607L213.008 632.113C212.168 626.136 207.471 621.439 201.494 620.599L190 619L191.599 630.494C192.439 636.471 197.136 641.168 203.113 642.008Z" fill="#695E93"/>
<path opacity="0.04" fill-rule="evenodd" clip-rule="evenodd" d="M172.26 807.493L179.5 808.5L178.493 801.26C177.964 797.495 175.005 794.536 171.24 794.007L164 793L165.007 800.24C165.536 804.005 168.495 806.964 172.26 807.493ZM186.74 807.493L179.5 808.5L180.507 801.26C181.036 797.495 183.995 794.536 187.76 794.007L195 793L193.993 800.24C193.464 804.005 190.505 806.964 186.74 807.493ZM179.5 808.5L186.74 809.507C190.505 810.036 193.464 812.995 193.993 816.76L195 824L187.76 822.993C183.995 822.464 181.036 819.505 180.507 815.74L179.5 808.5ZM172.26 809.507L179.5 808.5L178.493 815.74C177.964 819.505 175.005 822.464 171.24 822.993L164 824L165.007 816.76C165.536 812.995 168.495 810.036 172.26 809.507Z" fill="#695E93"/>
<path opacity="0.04" fill-rule="evenodd" clip-rule="evenodd" d="M366.113 713.008L377.607 714.607L366.113 716.206C360.136 717.046 355.439 721.743 354.599 727.72L353 739.214L364.494 737.615C370.471 736.775 375.168 732.078 376.008 726.101L377.607 714.607L377.607 714.607L379.206 726.101C380.046 732.078 384.743 736.775 390.72 737.615L402.214 739.214L400.615 727.72C399.775 721.743 395.078 717.046 389.101 716.206L377.607 714.607L389.101 713.008C395.078 712.168 399.775 707.471 400.615 701.494L402.214 690L390.72 691.599C384.743 692.439 380.046 697.136 379.206 703.113L377.607 714.607L376.008 703.113C375.168 697.136 370.471 692.439 364.494 691.599L353 690L354.599 701.494C355.439 707.471 360.136 712.168 366.113 713.008Z" fill="#695E93"/>
<path opacity="0.04" fill-rule="evenodd" clip-rule="evenodd" d="M33.113 659.008L44.6067 660.607L33.113 662.206C27.1362 663.046 22.4387 667.743 21.5991 673.72L20 685.214L31.4939 683.615C37.4707 682.775 42.1682 678.078 43.0077 672.101L44.6069 660.607L44.607 660.607L46.2061 672.101C47.0457 678.078 51.7432 682.775 57.72 683.615L69.2139 685.214L67.6147 673.72C66.7752 667.743 62.0777 663.046 56.1008 662.206L44.607 660.607L56.1007 659.008C62.0775 658.168 66.775 653.471 67.6146 647.494L69.2137 636L57.7199 637.599C51.7431 638.439 47.0456 643.136 46.206 649.113L44.6069 660.607L43.0077 649.113C42.1682 643.136 37.4707 638.439 31.4939 637.599L20 636L21.5991 647.494C22.4387 653.471 27.1362 658.168 33.113 659.008Z" fill="#695E93"/>
<path opacity="0.04" fill-rule="evenodd" clip-rule="evenodd" d="M4.11301 796.008L15.6067 797.607L4.11301 799.206C-1.8638 800.046 -6.5613 804.743 -7.40085 810.72L-9 822.214L2.49388 820.615C8.47069 819.775 13.1682 815.078 14.0077 809.101L15.6069 797.607L15.607 797.607L17.2061 809.101C18.0457 815.078 22.7432 819.775 28.72 820.615L40.2139 822.214L38.6147 810.72C37.7752 804.743 33.0777 800.046 27.1008 799.206L15.607 797.607L27.1007 796.008C33.0775 795.168 37.775 790.471 38.6146 784.494L40.2137 773L28.7199 774.599C22.7431 775.439 18.0456 780.136 17.206 786.113L15.6069 797.607L14.0077 786.113C13.1682 780.136 8.47069 775.439 2.49388 774.599L-9 773L-7.40085 784.494C-6.5613 790.471 -1.8638 795.168 4.11301 796.008Z" fill="#695E93"/>
<path opacity="0.04" fill-rule="evenodd" clip-rule="evenodd" d="M332.113 234.008L343.607 235.607L332.113 237.206C326.136 238.046 321.439 242.743 320.599 248.72L319 260.214L330.494 258.615C336.471 257.775 341.168 253.078 342.008 247.101L343.607 235.607L343.607 235.607L345.206 247.101C346.046 253.078 350.743 257.775 356.72 258.615L368.214 260.214L366.615 248.72C365.775 242.743 361.078 238.046 355.101 237.206L343.607 235.607L355.101 234.008C361.078 233.168 365.775 228.471 366.615 222.494L368.214 211L356.72 212.599C350.743 213.439 346.046 218.136 345.206 224.113L343.607 235.607L342.008 224.113C341.168 218.136 336.471 213.439 330.494 212.599L319 211L320.599 222.494C321.439 228.471 326.136 233.168 332.113 234.008Z" fill="#695E93"/>
<path opacity="0.04" fill-rule="evenodd" clip-rule="evenodd" d="M342.113 142.008L353.607 143.607L342.113 145.206C336.136 146.046 331.439 150.743 330.599 156.72L329 168.214L340.494 166.615C346.471 165.775 351.168 161.078 352.008 155.101L353.607 143.607L353.607 143.607L355.206 155.101C356.046 161.078 360.743 165.775 366.72 166.615L378.214 168.214L376.615 156.72C375.775 150.743 371.078 146.046 365.101 145.206L353.607 143.607L365.101 142.008C371.078 141.168 375.775 136.471 376.615 130.494L378.214 119L366.72 120.599C360.743 121.439 356.046 126.136 355.206 132.113L353.607 143.607L352.008 132.113C351.168 126.136 346.471 121.439 340.494 120.599L329 119L330.599 130.494C331.439 136.471 336.136 141.168 342.113 142.008Z" fill="#695E93"/>
<path opacity="0.04" fill-rule="evenodd" clip-rule="evenodd" d="M142.113 16.0077L153.607 17.6069L142.113 19.206C136.136 20.0456 131.439 24.743 130.599 30.7199L129 42.2137L140.494 40.6146C146.471 39.775 151.168 35.0775 152.008 29.1007L153.607 17.6069L153.607 17.6069L155.206 29.1007C156.046 35.0775 160.743 39.775 166.72 40.6146L178.214 42.2137L176.615 30.7199C175.775 24.743 171.078 20.0456 165.101 19.206L153.607 17.6069L165.101 16.0077C171.078 15.1682 175.775 10.4707 176.615 4.49388L178.214 -7L166.72 -5.40085C160.743 -4.5613 156.046 0.136199 155.206 6.11301L153.607 17.6068L152.008 6.11301C151.168 0.136199 146.471 -4.5613 140.494 -5.40085L129 -7L130.599 4.49388C131.439 10.4707 136.136 15.1682 142.113 16.0077Z" fill="#695E93"/>
<path opacity="0.04" fill-rule="evenodd" clip-rule="evenodd" d="M236.113 76.0077L247.607 77.6069L236.113 79.206C230.136 80.0456 225.439 84.743 224.599 90.7199L223 102.214L234.494 100.615C240.471 99.775 245.168 95.0775 246.008 89.1007L247.607 77.6069L247.607 77.6069L249.206 89.1007C250.046 95.0775 254.743 99.775 260.72 100.615L272.214 102.214L270.615 90.7199C269.775 84.743 265.078 80.0456 259.101 79.206L247.607 77.6069L259.101 76.0077C265.078 75.1682 269.775 70.4707 270.615 64.4939L272.214 53L260.72 54.5991C254.743 55.4387 250.046 60.1362 249.206 66.113L247.607 77.6068L246.008 66.113C245.168 60.1362 240.471 55.4387 234.494 54.5991L223 53L224.599 64.4939C225.439 70.4707 230.136 75.1682 236.113 76.0077Z" fill="#695E93"/>
<path opacity="0.04" fill-rule="evenodd" clip-rule="evenodd" d="M238.113 173.008L249.607 174.607L238.113 176.206C232.136 177.046 227.439 181.743 226.599 187.72L225 199.214L236.494 197.615C242.471 196.775 247.168 192.078 248.008 186.101L249.607 174.607L249.607 174.607L251.206 186.101C252.046 192.078 256.743 196.775 262.72 197.615L274.214 199.214L272.615 187.72C271.775 181.743 267.078 177.046 261.101 176.206L249.607 174.607L261.101 173.008C267.078 172.168 271.775 167.471 272.615 161.494L274.214 150L262.72 151.599C256.743 152.439 252.046 157.136 251.206 163.113L249.607 174.607L248.008 163.113C247.168 157.136 242.471 152.439 236.494 151.599L225 150L226.599 161.494C227.439 167.471 232.136 172.168 238.113 173.008Z" fill="#695E93"/>
<path opacity="0.04" fill-rule="evenodd" clip-rule="evenodd" d="M144.113 156.008L155.607 157.607L144.113 159.206C138.136 160.046 133.439 164.743 132.599 170.72L131 182.214L142.494 180.615C148.471 179.775 153.168 175.078 154.008 169.101L155.607 157.607L155.607 157.607L157.206 169.101C158.046 175.078 162.743 179.775 168.72 180.615L180.214 182.214L178.615 170.72C177.775 164.743 173.078 160.046 167.101 159.206L155.607 157.607L167.101 156.008C173.078 155.168 177.775 150.471 178.615 144.494L180.214 133L168.72 134.599C162.743 135.439 158.046 140.136 157.206 146.113L155.607 157.607L154.008 146.113C153.168 140.136 148.471 135.439 142.494 134.599L131 133L132.599 144.494C133.439 150.471 138.136 155.168 144.113 156.008Z" fill="#695E93"/>
<path opacity="0.04" fill-rule="evenodd" clip-rule="evenodd" d="M68.113 79.0077L79.6067 80.6069L68.113 82.206C62.1362 83.0456 57.4387 87.743 56.5991 93.7199L55 105.214L66.4939 103.615C72.4707 102.775 77.1682 98.0775 78.0077 92.1007L79.6069 80.6069L79.607 80.6069L81.2061 92.1007C82.0457 98.0775 86.7432 102.775 92.72 103.615L104.214 105.214L102.615 93.7199C101.775 87.743 97.0777 83.0456 91.1008 82.206L79.607 80.6069L91.1007 79.0077C97.0775 78.1682 101.775 73.4707 102.615 67.4939L104.214 56L92.7199 57.5991C86.7431 58.4387 82.0456 63.1362 81.206 69.113L79.6069 80.6068L78.0077 69.113C77.1682 63.1362 72.4707 58.4387 66.4939 57.5991L55 56L56.5991 67.4939C57.4387 73.4707 62.1362 78.1682 68.113 79.0077Z" fill="#695E93"/>
<path opacity="0.04" fill-rule="evenodd" clip-rule="evenodd" d="M362.113 50.0077L373.607 51.6069L362.113 53.206C356.136 54.0456 351.439 58.743 350.599 64.7199L349 76.2137L360.494 74.6146C366.471 73.775 371.168 69.0775 372.008 63.1007L373.607 51.6069L373.607 51.6069L375.206 63.1007C376.046 69.0775 380.743 73.775 386.72 74.6146L398.214 76.2137L396.615 64.7199C395.775 58.743 391.078 54.0456 385.101 53.206L373.607 51.6069L385.101 50.0077C391.078 49.1682 395.775 44.4707 396.615 38.4939L398.214 27L386.72 28.5991C380.743 29.4387 376.046 34.1362 375.206 40.113L373.607 51.6068L372.008 40.113C371.168 34.1362 366.471 29.4387 360.494 28.5991L349 27L350.599 38.4939C351.439 44.4707 356.136 49.1682 362.113 50.0077Z" fill="#695E93"/>
<path opacity="0.04" fill-rule="evenodd" clip-rule="evenodd" d="M221.113 271.008L232.607 272.607L221.113 274.206C215.136 275.046 210.439 279.743 209.599 285.72L208 297.214L219.494 295.615C225.471 294.775 230.168 290.078 231.008 284.101L232.607 272.607L232.607 272.607L234.206 284.101C235.046 290.078 239.743 294.775 245.72 295.615L257.214 297.214L255.615 285.72C254.775 279.743 250.078 275.046 244.101 274.206L232.607 272.607L244.101 271.008C250.078 270.168 254.775 265.471 255.615 259.494L257.214 248L245.72 249.599C239.743 250.439 235.046 255.136 234.206 261.113L232.607 272.607L231.008 261.113C230.168 255.136 225.471 250.439 219.494 249.599L208 248L209.599 259.494C210.439 265.471 215.136 270.168 221.113 271.008Z" fill="#695E93"/>
<path opacity="0.04" fill-rule="evenodd" clip-rule="evenodd" d="M13.113 173.008L24.6067 174.607L13.113 176.206C7.1362 177.046 2.4387 181.743 1.59915 187.72L0 199.214L11.4939 197.615C17.4707 196.775 22.1682 192.078 23.0077 186.101L24.6069 174.607L24.607 174.607L26.2061 186.101C27.0457 192.078 31.7432 196.775 37.72 197.615L49.2139 199.214L47.6147 187.72C46.7752 181.743 42.0777 177.046 36.1008 176.206L24.607 174.607L36.1007 173.008C42.0775 172.168 46.775 167.471 47.6146 161.494L49.2137 150L37.7199 151.599C31.7431 152.439 27.0456 157.136 26.206 163.113L24.6069 174.607L23.0077 163.113C22.1682 157.136 17.4707 152.439 11.4939 151.599L0 150L1.59915 161.494C2.4387 167.471 7.1362 172.168 13.113 173.008Z" fill="#695E93"/>
<path opacity="0.04" d="M164.726 294.112L167.197 302.516C167.609 303.934 168.758 305.056 170.21 305.459L178.814 307.872C183.062 309.057 183.062 314.943 178.814 316.128L170.21 318.541C168.758 318.944 167.609 320.066 167.197 321.484L164.726 329.888C163.513 334.037 157.487 334.037 156.274 329.888L153.803 321.484C153.391 320.066 152.242 318.944 150.79 318.541L142.186 316.128C137.938 314.943 137.938 309.057 142.186 307.872L150.79 305.459C152.242 305.056 153.391 303.934 153.803 302.516L156.274 294.112C157.487 289.963 163.513 289.963 164.726 294.112Z" fill="#695E93"/>
<path opacity="0.04" d="M69.7263 193.112L72.1971 201.516C72.6089 202.934 73.7576 204.056 75.2097 204.459L83.814 206.872C88.062 208.057 88.062 213.943 83.814 215.128L75.2097 217.541C73.7576 217.944 72.6089 219.066 72.1971 220.484L69.7263 228.888C68.5126 233.037 62.4874 233.037 61.2737 228.888L58.8029 220.484C58.3911 219.066 57.2424 217.944 55.7903 217.541L47.186 215.128C42.938 213.943 42.938 208.057 47.186 206.872L55.7903 204.459C57.2424 204.056 58.3911 202.934 58.8029 201.516L61.2737 193.112C62.4874 188.963 68.5126 188.963 69.7263 193.112Z" fill="#695E93"/>
<path opacity="0.04" d="M149.137 189.741L151.263 197.145C151.617 198.395 152.605 199.383 153.855 199.737L161.259 201.863C164.914 202.908 164.914 208.092 161.259 209.137L153.855 211.263C152.605 211.617 151.617 212.605 151.263 213.855L149.137 221.259C148.092 224.914 142.908 224.914 141.863 221.259L139.737 213.855C139.383 212.605 138.395 211.617 137.145 211.263L129.741 209.137C126.086 208.092 126.086 202.908 129.741 201.863L137.145 199.737C138.395 199.383 139.383 198.395 139.737 197.145L141.863 189.741C142.908 186.086 148.092 186.086 149.137 189.741Z" fill="#695E93"/>
<path opacity="0.04" d="M158.137 93.7414L160.263 101.145C160.617 102.395 161.605 103.383 162.855 103.737L170.259 105.863C173.914 106.908 173.914 112.092 170.259 113.137L162.855 115.263C161.605 115.617 160.617 116.605 160.263 117.855L158.137 125.259C157.092 128.914 151.908 128.914 150.863 125.259L148.737 117.855C148.383 116.605 147.395 115.617 146.145 115.263L138.741 113.137C135.086 112.092 135.086 106.908 138.741 105.863L146.145 103.737C147.395 103.383 148.383 102.395 148.737 101.145L150.863 93.7414C151.908 90.0862 157.092 90.0862 158.137 93.7414Z" fill="#695E93"/>
<path opacity="0.04" d="M271.555 118.926L273.049 124.129C273.298 125.007 273.993 125.702 274.871 125.951L280.074 127.445C282.642 128.178 282.642 131.822 280.074 132.555L274.871 134.049C273.993 134.298 273.298 134.993 273.049 135.871L271.555 141.074C270.822 143.642 267.178 143.642 266.445 141.074L264.951 135.871C264.702 134.993 264.007 134.298 263.129 134.049L257.926 132.555C255.358 131.822 255.358 128.178 257.926 127.445L263.129 125.951C264.007 125.702 264.702 125.007 264.951 124.129L266.445 118.926C267.178 116.358 270.822 116.358 271.555 118.926Z" fill="#695E93"/>
<path opacity="0.04" d="M37.5554 45.9264L39.0494 51.129C39.2984 52.0071 39.9929 52.7016 40.871 52.9506L46.0736 54.4446C48.6421 55.1784 48.6421 58.8216 46.0736 59.5554L40.871 61.0494C39.9929 61.2984 39.2984 61.9929 39.0494 62.871L37.5554 68.0736C36.8216 70.6421 33.1784 70.6421 32.4446 68.0736L30.9506 62.871C30.7016 61.9929 30.0071 61.2984 29.129 61.0494L23.9264 59.5554C21.3579 58.8216 21.3579 55.1784 23.9264 54.4446L29.129 52.9506C30.0071 52.7016 30.7016 52.0071 30.9506 51.129L32.4446 45.9264C33.1784 43.3579 36.8216 43.3579 37.5554 45.9264Z" fill="#695E93"/>
<path opacity="0.04" d="M208.367 66.4078L209.459 70.2097C209.641 70.8513 210.149 71.3589 210.79 71.5408L214.592 72.6326C216.469 73.1689 216.469 75.8311 214.592 76.3674L210.79 77.4592C210.149 77.6411 209.641 78.1487 209.459 78.7903L208.367 82.5922C207.831 84.4693 205.169 84.4693 204.633 82.5922L203.541 78.7903C203.359 78.1487 202.851 77.6411 202.21 77.4592L198.408 76.3674C196.531 75.8311 196.531 73.1689 198.408 72.6326L202.21 71.5408C202.851 71.3589 203.359 70.8513 203.541 70.2097L204.633 66.4078C205.169 64.5307 207.831 64.5307 208.367 66.4078Z" fill="#695E93"/>
<path opacity="0.04" d="M154.555 47.9264L156.049 53.129C156.298 54.0071 156.993 54.7016 157.871 54.9506L163.074 56.4446C165.642 57.1784 165.642 60.8216 163.074 61.5554L157.871 63.0494C156.993 63.2984 156.298 63.9929 156.049 64.871L154.555 70.0736C153.822 72.6421 150.178 72.6421 149.445 70.0736L147.951 64.871C147.702 63.9929 147.007 63.2984 146.129 63.0494L140.926 61.5554C138.358 60.8216 138.358 57.1784 140.926 56.4446L146.129 54.9506C147.007 54.7016 147.702 54.0071 147.951 53.129L149.445 47.9264C150.178 45.3579 153.822 45.3579 154.555 47.9264Z" fill="#695E93"/>
<path opacity="0.04" d="M237.555 -4.07359L239.049 1.12903C239.298 2.00705 239.993 2.70161 240.871 2.9506L246.074 4.44456C248.642 5.17843 248.642 8.82157 246.074 9.55544L240.871 11.0494C239.993 11.2984 239.298 11.9929 239.049 12.871L237.555 18.0736C236.822 20.6421 233.178 20.6421 232.445 18.0736L230.951 12.871C230.702 11.9929 230.007 11.2984 229.129 11.0494L223.926 9.55544C221.358 8.82157 221.358 5.17843 223.926 4.44456L229.129 2.9506C230.007 2.70161 230.702 2.00705 230.951 1.12903L232.445 -4.07359C233.178 -6.64214 236.822 -6.64214 237.555 -4.07359Z" fill="#695E93"/>
<path opacity="0.04" d="M118.137 107.741L120.263 115.145C120.617 116.395 121.605 117.383 122.855 117.737L130.259 119.863C133.914 120.908 133.914 126.092 130.259 127.137L122.855 129.263C121.605 129.617 120.617 130.605 120.263 131.855L118.137 139.259C117.092 142.914 111.908 142.914 110.863 139.259L108.737 131.855C108.383 130.605 107.395 129.617 106.145 129.263L98.7414 127.137C95.0862 126.092 95.0862 120.908 98.7414 119.863L106.145 117.737C107.395 117.383 108.383 116.395 108.737 115.145L110.863 107.741C111.908 104.086 117.092 104.086 118.137 107.741Z" fill="#695E93"/>
<path opacity="0.04" d="M11.1366 104.741L13.2626 112.145C13.6169 113.395 14.6053 114.383 15.8548 114.737L23.2586 116.863C26.9138 117.908 26.9138 123.092 23.2586 124.137L15.8548 126.263C14.6053 126.617 13.6169 127.605 13.2626 128.855L11.1366 136.259C10.0922 139.914 4.90776 139.914 3.86341 136.259L1.73739 128.855C1.38306 127.605 0.394648 126.617 -0.854848 126.263L-8.25857 124.137C-11.9138 123.092 -11.9138 117.908 -8.25857 116.863L-0.854848 114.737C0.394648 114.383 1.38306 113.395 1.73739 112.145L3.86341 104.741C4.90776 101.086 10.0922 101.086 11.1366 104.741Z" fill="#695E93"/>
<path opacity="0.04" d="M108.137 -2.25857L110.263 5.14516C110.617 6.39465 111.605 7.38306 112.855 7.73739L120.259 9.86341C123.914 10.9078 123.914 16.0922 120.259 17.1366L112.855 19.2626C111.605 19.6169 110.617 20.6053 110.263 21.8548L108.137 29.2586C107.092 32.9138 101.908 32.9138 100.863 29.2586L98.7374 21.8548C98.3831 20.6053 97.3946 19.6169 96.1452 19.2626L88.7414 17.1366C85.0862 16.0922 85.0862 10.9078 88.7414 9.86341L96.1452 7.73739C97.3946 7.38306 98.3831 6.39465 98.7374 5.14516L100.863 -2.25857C101.908 -5.91381 107.092 -5.91381 108.137 -2.25857Z" fill="#695E93"/>
<path opacity="0.04" d="M80.7263 287.112L83.1971 295.516C83.6089 296.934 84.7576 298.056 86.2097 298.459L94.814 300.872C99.062 302.057 99.062 307.943 94.814 309.128L86.2097 311.541C84.7576 311.944 83.6089 313.066 83.1971 314.484L80.7263 322.888C79.5126 327.037 73.4874 327.037 72.2737 322.888L69.8029 314.484C69.3911 313.066 68.2424 311.944 66.7903 311.541L58.186 309.128C53.938 307.943 53.938 302.057 58.186 300.872L66.7903 298.459C68.2424 298.056 69.3911 296.934 69.8029 295.516L72.2737 287.112C73.4874 282.963 79.5126 282.963 80.7263 287.112Z" fill="#695E93"/>
<path opacity="0.04" d="M13.7263 378.112L16.1971 386.516C16.6089 387.934 17.7576 389.056 19.2097 389.459L27.814 391.872C32.062 393.057 32.062 398.943 27.814 400.128L19.2097 402.541C17.7576 402.944 16.6089 404.066 16.1971 405.484L13.7263 413.888C12.5126 418.037 6.4874 418.037 5.27369 413.888L2.80292 405.484C2.39112 404.066 1.24243 402.944 -0.209688 402.541L-8.81401 400.128C-13.062 398.943 -13.062 393.057 -8.81401 391.872L-0.209688 389.459C1.24243 389.056 2.39112 387.934 2.80292 386.516L5.27369 378.112C6.4874 373.963 12.5126 373.963 13.7263 378.112Z" fill="#695E93"/>
<path opacity="0.04" d="M313.726 311.112L316.197 319.516C316.609 320.934 317.758 322.056 319.21 322.459L327.814 324.872C332.062 326.057 332.062 331.943 327.814 333.128L319.21 335.541C317.758 335.944 316.609 337.066 316.197 338.484L313.726 346.888C312.513 351.037 306.487 351.037 305.274 346.888L302.803 338.484C302.391 337.066 301.242 335.944 299.79 335.541L291.186 333.128C286.938 331.943 286.938 326.057 291.186 324.872L299.79 322.459C301.242 322.056 302.391 320.934 302.803 319.516L305.274 311.112C306.487 306.963 312.513 306.963 313.726 311.112Z" fill="#695E93"/>
<path opacity="0.04" d="M393.726 311.112L396.197 319.516C396.609 320.934 397.758 322.056 399.21 322.459L407.814 324.872C412.062 326.057 412.062 331.943 407.814 333.128L399.21 335.541C397.758 335.944 396.609 337.066 396.197 338.484L393.726 346.888C392.513 351.037 386.487 351.037 385.274 346.888L382.803 338.484C382.391 337.066 381.242 335.944 379.79 335.541L371.186 333.128C366.938 331.943 366.938 326.057 371.186 324.872L379.79 322.459C381.242 322.056 382.391 320.934 382.803 319.516L385.274 311.112C386.487 306.963 392.513 306.963 393.726 311.112Z" fill="#695E93"/>
<path opacity="0.04" d="M384.726 178.112L387.197 186.516C387.609 187.934 388.758 189.056 390.21 189.459L398.814 191.872C403.062 193.057 403.062 198.943 398.814 200.128L390.21 202.541C388.758 202.944 387.609 204.066 387.197 205.484L384.726 213.888C383.513 218.037 377.487 218.037 376.274 213.888L373.803 205.484C373.391 204.066 372.242 202.944 370.79 202.541L362.186 200.128C357.938 198.943 357.938 193.057 362.186 191.872L370.79 189.459C372.242 189.056 373.391 187.934 373.803 186.516L376.274 178.112C377.487 173.963 383.513 173.963 384.726 178.112Z" fill="#695E93"/>
<path opacity="0.04" d="M322.726 507.112L325.197 515.516C325.609 516.934 326.758 518.056 328.21 518.459L336.814 520.872C341.062 522.057 341.062 527.943 336.814 529.128L328.21 531.541C326.758 531.944 325.609 533.066 325.197 534.484L322.726 542.888C321.513 547.037 315.487 547.037 314.274 542.888L311.803 534.484C311.391 533.066 310.242 531.944 308.79 531.541L300.186 529.128C295.938 527.943 295.938 522.057 300.186 520.872L308.79 518.459C310.242 518.056 311.391 516.934 311.803 515.516L314.274 507.112C315.487 502.963 321.513 502.963 322.726 507.112Z" fill="#695E93"/>
<path opacity="0.04" d="M126.726 620.112L129.197 628.516C129.609 629.934 130.758 631.056 132.21 631.459L140.814 633.872C145.062 635.057 145.062 640.943 140.814 642.128L132.21 644.541C130.758 644.944 129.609 646.066 129.197 647.484L126.726 655.888C125.513 660.037 119.487 660.037 118.274 655.888L115.803 647.484C115.391 646.066 114.242 644.944 112.79 644.541L104.186 642.128C99.938 640.943 99.938 635.057 104.186 633.872L112.79 631.459C114.242 631.056 115.391 629.934 115.803 628.516L118.274 620.112C119.487 615.963 125.513 615.963 126.726 620.112Z" fill="#695E93"/>
<path opacity="0.04" d="M9.72631 602.112L12.1971 610.516C12.6089 611.934 13.7576 613.056 15.2097 613.459L23.814 615.872C28.062 617.057 28.062 622.943 23.814 624.128L15.2097 626.541C13.7576 626.944 12.6089 628.066 12.1971 629.484L9.72631 637.888C8.5126 642.037 2.4874 642.037 1.27369 637.888L-1.19708 629.484C-1.60888 628.066 -2.75757 626.944 -4.20969 626.541L-12.814 624.128C-17.062 622.943 -17.062 617.057 -12.814 615.872L-4.20969 613.459C-2.75757 613.056 -1.60888 611.934 -1.19708 610.516L1.27369 602.112C2.4874 597.963 8.5126 597.963 9.72631 602.112Z" fill="#695E93"/>
<path opacity="0.04" d="M149.726 437.112L152.197 445.516C152.609 446.934 153.758 448.056 155.21 448.459L163.814 450.872C168.062 452.057 168.062 457.943 163.814 459.128L155.21 461.541C153.758 461.944 152.609 463.066 152.197 464.484L149.726 472.888C148.513 477.037 142.487 477.037 141.274 472.888L138.803 464.484C138.391 463.066 137.242 461.944 135.79 461.541L127.186 459.128C122.938 457.943 122.938 452.057 127.186 450.872L135.79 448.459C137.242 448.056 138.391 446.934 138.803 445.516L141.274 437.112C142.487 432.963 148.513 432.963 149.726 437.112Z" fill="#695E93"/>
<path opacity="0.04" d="M199.726 570.112L202.197 578.516C202.609 579.934 203.758 581.056 205.21 581.459L213.814 583.872C218.062 585.057 218.062 590.943 213.814 592.128L205.21 594.541C203.758 594.944 202.609 596.066 202.197 597.484L199.726 605.888C198.513 610.037 192.487 610.037 191.274 605.888L188.803 597.484C188.391 596.066 187.242 594.944 185.79 594.541L177.186 592.128C172.938 590.943 172.938 585.057 177.186 583.872L185.79 581.459C187.242 581.056 188.391 579.934 188.803 578.516L191.274 570.112C192.487 565.963 198.513 565.963 199.726 570.112Z" fill="#695E93"/>
<path opacity="0.04" d="M195.333 721.89L197.574 729.694C197.948 731.011 198.989 732.052 200.306 732.426L208.11 734.667C211.963 735.768 211.963 741.232 208.11 742.333L200.306 744.574C198.989 744.948 197.948 745.989 197.574 747.306L195.333 755.11C194.232 758.963 188.768 758.963 187.667 755.11L185.426 747.306C185.052 745.989 184.011 744.948 182.694 744.574L174.89 742.333C171.037 741.232 171.037 735.768 174.89 734.667L182.694 732.426C184.011 732.052 185.052 731.011 185.426 729.694L187.667 721.89C188.768 718.037 194.232 718.037 195.333 721.89Z" fill="#695E93"/>
<path opacity="0.04" d="M53.7263 524.112L56.1971 532.516C56.6089 533.934 57.7576 535.056 59.2097 535.459L67.814 537.872C72.062 539.057 72.062 544.943 67.814 546.128L59.2097 548.541C57.7576 548.944 56.6089 550.066 56.1971 551.484L53.7263 559.888C52.5126 564.037 46.4874 564.037 45.2737 559.888L42.8029 551.484C42.3911 550.066 41.2424 548.944 39.7903 548.541L31.186 546.128C26.938 544.943 26.938 539.057 31.186 537.872L39.7903 535.459C41.2424 535.056 42.3911 533.934 42.8029 532.516L45.2737 524.112C46.4874 519.963 52.5126 519.963 53.7263 524.112Z" fill="#695E93"/>
<path opacity="0.04" d="M307.726 386.112L310.197 394.516C310.609 395.934 311.758 397.056 313.21 397.459L321.814 399.872C326.062 401.057 326.062 406.943 321.814 408.128L313.21 410.541C311.758 410.944 310.609 412.066 310.197 413.484L307.726 421.888C306.513 426.037 300.487 426.037 299.274 421.888L296.803 413.484C296.391 412.066 295.242 410.944 293.79 410.541L285.186 408.128C280.938 406.943 280.938 401.057 285.186 399.872L293.79 397.459C295.242 397.056 296.391 395.934 296.803 394.516L299.274 386.112C300.487 381.963 306.513 381.963 307.726 386.112Z" fill="#695E93"/>
<path opacity="0.04" d="M72.7263 484.112L75.1971 492.516C75.6089 493.934 76.7576 495.056 78.2097 495.459L86.814 497.872C91.062 499.057 91.062 504.943 86.814 506.128L78.2097 508.541C76.7576 508.944 75.6089 510.066 75.1971 511.484L72.7263 519.888C71.5126 524.037 65.4874 524.037 64.2737 519.888L61.8029 511.484C61.3911 510.066 60.2424 508.944 58.7903 508.541L50.186 506.128C45.938 504.943 45.938 499.057 50.186 497.872L58.7903 495.459C60.2424 495.056 61.3911 493.934 61.8029 492.516L64.2737 484.112C65.4874 479.963 71.5126 479.963 72.7263 484.112Z" fill="#695E93"/>
<path opacity="0.04" d="M255.726 503.112L258.197 511.516C258.609 512.934 259.758 514.056 261.21 514.459L269.814 516.872C274.062 518.057 274.062 523.943 269.814 525.128L261.21 527.541C259.758 527.944 258.609 529.066 258.197 530.484L255.726 538.888C254.513 543.037 248.487 543.037 247.274 538.888L244.803 530.484C244.391 529.066 243.242 527.944 241.79 527.541L233.186 525.128C228.938 523.943 228.938 518.057 233.186 516.872L241.79 514.459C243.242 514.056 244.391 512.934 244.803 511.516L247.274 503.112C248.487 498.963 254.513 498.963 255.726 503.112Z" fill="#695E93"/>
<path opacity="0.04" d="M300.726 641.112L303.197 649.516C303.609 650.934 304.758 652.056 306.21 652.459L314.814 654.872C319.062 656.057 319.062 661.943 314.814 663.128L306.21 665.541C304.758 665.944 303.609 667.066 303.197 668.484L300.726 676.888C299.513 681.037 293.487 681.037 292.274 676.888L289.803 668.484C289.391 667.066 288.242 665.944 286.79 665.541L278.186 663.128C273.938 661.943 273.938 656.057 278.186 654.872L286.79 652.459C288.242 652.056 289.391 650.934 289.803 649.516L292.274 641.112C293.487 636.963 299.513 636.963 300.726 641.112Z" fill="#695E93"/>
<path opacity="0.04" d="M273.726 822.112L276.197 830.516C276.609 831.934 277.758 833.056 279.21 833.459L287.814 835.872C292.062 837.057 292.062 842.943 287.814 844.128L279.21 846.541C277.758 846.944 276.609 848.066 276.197 849.484L273.726 857.888C272.513 862.037 266.487 862.037 265.274 857.888L262.803 849.484C262.391 848.066 261.242 846.944 259.79 846.541L251.186 844.128C246.938 842.943 246.938 837.057 251.186 835.872L259.79 833.459C261.242 833.056 262.391 831.934 262.803 830.516L265.274 822.112C266.487 817.963 272.513 817.963 273.726 822.112Z" fill="#695E93"/>
<path opacity="0.04" d="M285.145 720.371L286.984 726.774C287.29 727.855 288.145 728.71 289.226 729.016L295.629 730.855C298.79 731.758 298.79 736.242 295.629 737.145L289.226 738.984C288.145 739.29 287.29 740.145 286.984 741.226L285.145 747.629C284.242 750.79 279.758 750.79 278.855 747.629L277.016 741.226C276.71 740.145 275.855 739.29 274.774 738.984L268.371 737.145C265.21 736.242 265.21 731.758 268.371 730.855L274.774 729.016C275.855 728.71 276.71 727.855 277.016 726.774L278.855 720.371C279.758 717.21 284.242 717.21 285.145 720.371Z" fill="#695E93"/>
<path opacity="0.04" d="M55.5469 597.297L57.3281 603.5C57.625 604.547 58.4531 605.375 59.5 605.672L65.7031 607.453C68.7656 608.328 68.7656 612.672 65.7031 613.547L59.5 615.328C58.4531 615.625 57.625 616.453 57.3281 617.5L55.5469 623.703C54.6719 626.766 50.3281 626.766 49.4531 623.703L47.6719 617.5C47.375 616.453 46.5469 615.625 45.5 615.328L39.2969 613.547C36.2344 612.672 36.2344 608.328 39.2969 607.453L45.5 605.672C46.5469 605.375 47.375 604.547 47.6719 603.5L49.4531 597.297C50.3281 594.234 54.6719 594.234 55.5469 597.297Z" fill="#695E93"/>
<path opacity="0.04" d="M150.547 817.297L152.328 823.5C152.625 824.547 153.453 825.375 154.5 825.672L160.703 827.453C163.766 828.328 163.766 832.672 160.703 833.547L154.5 835.328C153.453 835.625 152.625 836.453 152.328 837.5L150.547 843.703C149.672 846.766 145.328 846.766 144.453 843.703L142.672 837.5C142.375 836.453 141.547 835.625 140.5 835.328L134.297 833.547C131.234 832.672 131.234 828.328 134.297 827.453L140.5 825.672C141.547 825.375 142.375 824.547 142.672 823.5L144.453 817.297C145.328 814.234 149.672 814.234 150.547 817.297Z" fill="#695E93"/>
<path opacity="0.04" d="M71.5469 745.297L73.3281 751.5C73.625 752.547 74.4531 753.375 75.5 753.672L81.7031 755.453C84.7656 756.328 84.7656 760.672 81.7031 761.547L75.5 763.328C74.4531 763.625 73.625 764.453 73.3281 765.5L71.5469 771.703C70.6719 774.766 66.3281 774.766 65.4531 771.703L63.6719 765.5C63.375 764.453 62.5469 763.625 61.5 763.328L55.2969 761.547C52.2344 760.672 52.2344 756.328 55.2969 755.453L61.5 753.672C62.5469 753.375 63.375 752.547 63.6719 751.5L65.4531 745.297C66.3281 742.234 70.6719 742.234 71.5469 745.297Z" fill="#695E93"/>
<path opacity="0.04" d="M52.5469 693.297L54.3281 699.5C54.625 700.547 55.4531 701.375 56.5 701.672L62.7031 703.453C65.7656 704.328 65.7656 708.672 62.7031 709.547L56.5 711.328C55.4531 711.625 54.625 712.453 54.3281 713.5L52.5469 719.703C51.6719 722.766 47.3281 722.766 46.4531 719.703L44.6719 713.5C44.375 712.453 43.5469 711.625 42.5 711.328L36.2969 709.547C33.2344 708.672 33.2344 704.328 36.2969 703.453L42.5 701.672C43.5469 701.375 44.375 700.547 44.6719 699.5L46.4531 693.297C47.3281 690.234 51.6719 690.234 52.5469 693.297Z" fill="#695E93"/>
<path opacity="0.04" d="M343.726 659.112L346.197 667.516C346.609 668.934 347.758 670.056 349.21 670.459L357.814 672.872C362.062 674.057 362.062 679.943 357.814 681.128L349.21 683.541C347.758 683.944 346.609 685.066 346.197 686.484L343.726 694.888C342.513 699.037 336.487 699.037 335.274 694.888L332.803 686.484C332.391 685.066 331.242 683.944 329.79 683.541L321.186 681.128C316.938 679.943 316.938 674.057 321.186 672.872L329.79 670.459C331.242 670.056 332.391 668.934 332.803 667.516L335.274 659.112C336.487 654.963 342.513 654.963 343.726 659.112Z" fill="#695E93"/>
<path opacity="0.04" d="M117.726 362.112L120.197 370.516C120.609 371.934 121.758 373.056 123.21 373.459L131.814 375.872C136.062 377.057 136.062 382.943 131.814 384.128L123.21 386.541C121.758 386.944 120.609 388.066 120.197 389.484L117.726 397.888C116.513 402.037 110.487 402.037 109.274 397.888L106.803 389.484C106.391 388.066 105.242 386.944 103.79 386.541L95.186 384.128C90.938 382.943 90.938 377.057 95.186 375.872L103.79 373.459C105.242 373.056 106.391 371.934 106.803 370.516L109.274 362.112C110.487 357.963 116.513 357.963 117.726 362.112Z" fill="#695E93"/>
<path opacity="0.04" d="M253.726 311.112L256.197 319.516C256.609 320.934 257.758 322.056 259.21 322.459L267.814 324.872C272.062 326.057 272.062 331.943 267.814 333.128L259.21 335.541C257.758 335.944 256.609 337.066 256.197 338.484L253.726 346.888C252.513 351.037 246.487 351.037 245.274 346.888L242.803 338.484C242.391 337.066 241.242 335.944 239.79 335.541L231.186 333.128C226.938 331.943 226.938 326.057 231.186 324.872L239.79 322.459C241.242 322.056 242.391 320.934 242.803 319.516L245.274 311.112C246.487 306.963 252.513 306.963 253.726 311.112Z" fill="#695E93"/>
<path opacity="0.04" d="M249.726 440.112L252.197 448.516C252.609 449.934 253.758 451.056 255.21 451.459L263.814 453.872C268.062 455.057 268.062 460.943 263.814 462.128L255.21 464.541C253.758 464.944 252.609 466.066 252.197 467.484L249.726 475.888C248.513 480.037 242.487 480.037 241.274 475.888L238.803 467.484C238.391 466.066 237.242 464.944 235.79 464.541L227.186 462.128C222.938 460.943 222.938 455.057 227.186 453.872L235.79 451.459C237.242 451.056 238.391 449.934 238.803 448.516L241.274 440.112C242.487 435.963 248.513 435.963 249.726 440.112Z" fill="#695E93"/>
<path opacity="0.04" d="M292.726 581.112L295.197 589.516C295.609 590.934 296.758 592.056 298.21 592.459L306.814 594.872C311.062 596.057 311.062 601.943 306.814 603.128L298.21 605.541C296.758 605.944 295.609 607.066 295.197 608.484L292.726 616.888C291.513 621.037 285.487 621.037 284.274 616.888L281.803 608.484C281.391 607.066 280.242 605.944 278.79 605.541L270.186 603.128C265.938 601.943 265.938 596.057 270.186 594.872L278.79 592.459C280.242 592.056 281.391 590.934 281.803 589.516L284.274 581.112C285.487 576.963 291.513 576.963 292.726 581.112Z" fill="#695E93"/>
<path opacity="0.04" d="M95.7263 775.112L98.1971 783.516C98.6089 784.934 99.7576 786.056 101.21 786.459L109.814 788.872C114.062 790.057 114.062 795.943 109.814 797.128L101.21 799.541C99.7576 799.944 98.6089 801.066 98.1971 802.484L95.7263 810.888C94.5126 815.037 88.4874 815.037 87.2737 810.888L84.8029 802.484C84.3911 801.066 83.2424 799.944 81.7903 799.541L73.186 797.128C68.938 795.943 68.938 790.057 73.186 788.872L81.7903 786.459C83.2424 786.056 84.3911 784.934 84.8029 783.516L87.2737 775.112C88.4874 770.963 94.5126 770.963 95.7263 775.112Z" fill="#695E93"/>
<path opacity="0.04" d="M127.726 679.112L130.197 687.516C130.609 688.934 131.758 690.056 133.21 690.459L141.814 692.872C146.062 694.057 146.062 699.943 141.814 701.128L133.21 703.541C131.758 703.944 130.609 705.066 130.197 706.484L127.726 714.888C126.513 719.037 120.487 719.037 119.274 714.888L116.803 706.484C116.391 705.066 115.242 703.944 113.79 703.541L105.186 701.128C100.938 699.943 100.938 694.057 105.186 692.872L113.79 690.459C115.242 690.056 116.391 688.934 116.803 687.516L119.274 679.112C120.487 674.963 126.513 674.963 127.726 679.112Z" fill="#695E93"/>
<path opacity="0.04" d="M370.726 746.112L373.197 754.516C373.609 755.934 374.758 757.056 376.21 757.459L384.814 759.872C389.062 761.057 389.062 766.943 384.814 768.128L376.21 770.541C374.758 770.944 373.609 772.066 373.197 773.484L370.726 781.888C369.513 786.037 363.487 786.037 362.274 781.888L359.803 773.484C359.391 772.066 358.242 770.944 356.79 770.541L348.186 768.128C343.938 766.943 343.938 761.057 348.186 759.872L356.79 757.459C358.242 757.056 359.391 755.934 359.803 754.516L362.274 746.112C363.487 741.963 369.513 741.963 370.726 746.112Z" fill="#695E93"/>
<path opacity="0.04" d="M251.726 783.112L254.197 791.516C254.609 792.934 255.758 794.056 257.21 794.459L265.814 796.872C270.062 798.057 270.062 803.943 265.814 805.128L257.21 807.541C255.758 807.944 254.609 809.066 254.197 810.484L251.726 818.888C250.513 823.037 244.487 823.037 243.274 818.888L240.803 810.484C240.391 809.066 239.242 807.944 237.79 807.541L229.186 805.128C224.938 803.943 224.938 798.057 229.186 796.872L237.79 794.459C239.242 794.056 240.391 792.934 240.803 791.516L243.274 783.112C244.487 778.963 250.513 778.963 251.726 783.112Z" fill="#695E93"/>
<path opacity="0.04" d="M359.726 477.112L362.197 485.516C362.609 486.934 363.758 488.056 365.21 488.459L373.814 490.872C378.062 492.057 378.062 497.943 373.814 499.128L365.21 501.541C363.758 501.944 362.609 503.066 362.197 504.484L359.726 512.888C358.513 517.037 352.487 517.037 351.274 512.888L348.803 504.484C348.391 503.066 347.242 501.944 345.79 501.541L337.186 499.128C332.938 497.943 332.938 492.057 337.186 490.872L345.79 488.459C347.242 488.056 348.391 486.934 348.803 485.516L351.274 477.112C352.487 472.963 358.513 472.963 359.726 477.112Z" fill="#695E93"/>
<path opacity="0.04" d="M138.778 332.145L138.061 328.103L126.227 330.189L134.149 320.753L131.003 318.113L123.277 327.321V315H119.169V327.028L111.264 317.591L108.118 320.215L115.844 329.423L103.701 327.288L103 331.33L114.834 333.416L104.157 339.577L106.211 343.113L116.627 337.116L112.405 348.687L116.268 350.089L120.376 338.794L124.581 350.366L128.444 348.964L124.32 337.67L134.997 343.83L137.05 340.294L126.635 334.28L138.778 332.145Z" fill="#695E93"/>
<path opacity="0.04" d="M132.778 482.145L132.061 478.103L120.227 480.189L128.149 470.753L125.003 468.113L117.277 477.321V465H113.169V477.028L105.264 467.591L102.118 470.215L109.844 479.423L97.7009 477.288L97 481.33L108.834 483.416L98.1573 489.577L100.211 493.113L110.627 487.116L106.405 498.687L110.268 500.089L114.376 488.794L118.581 500.366L122.444 498.964L118.32 487.67L128.997 493.83L131.05 490.294L120.635 484.28L132.778 482.145Z" fill="#695E93"/>
<path opacity="0.04" d="M30.7781 442.145L30.0609 438.103L18.2272 440.189L26.149 430.753L23.0031 428.113L15.277 437.321V425H11.1694V437.028L3.26401 427.591L0.118146 430.215L7.84426 439.423L-4.29911 437.288L-5 441.33L6.83367 443.416L-3.84271 449.577L-1.78893 453.113L8.62665 447.116L4.405 458.687L8.26806 460.089L12.3756 448.794L16.581 460.366L20.444 458.964L16.3202 447.67L26.9966 453.83L29.0503 450.294L18.6347 444.28L30.7781 442.145Z" fill="#695E93"/>
<path opacity="0.04" d="M370.778 552.145L370.061 548.103L358.227 550.189L366.149 540.753L363.003 538.113L355.277 547.321V535H351.169V547.028L343.264 537.591L340.118 540.215L347.844 549.423L335.701 547.288L335 551.33L346.834 553.416L336.157 559.577L338.211 563.113L348.627 557.116L344.405 568.687L348.268 570.089L352.376 558.794L356.581 570.366L360.444 568.964L356.32 557.67L366.997 563.83L369.05 560.294L358.635 554.28L370.778 552.145Z" fill="#695E93"/>
<path opacity="0.04" d="M345 714.12L344.479 711.263L335.879 712.737L341.636 706.067L339.35 704.2L333.735 710.71V702H330.75V710.502L325.005 703.832L322.719 705.687L328.334 712.196L319.509 710.687L319 713.544L327.6 715.018L319.841 719.373L321.333 721.873L328.903 717.634L325.835 725.813L328.642 726.804L331.627 718.82L334.683 727L337.49 726.009L334.493 718.025L342.252 722.38L343.744 719.88L336.175 715.629L345 714.12Z" fill="#695E93"/>
<path opacity="0.04" d="M82.7781 395.145L82.0609 391.103L70.2272 393.189L78.149 383.753L75.0031 381.113L67.277 390.321V378H63.1694V390.028L55.264 380.591L52.1181 383.215L59.8443 392.423L47.7009 390.288L47 394.33L58.8337 396.416L48.1573 402.577L50.2111 406.113L60.6267 400.116L56.405 411.687L60.2681 413.089L64.3756 401.794L68.581 413.366L72.444 411.964L68.3202 400.67L78.9966 406.83L81.0503 403.294L70.6347 397.28L82.7781 395.145Z" fill="#695E93"/>
<path opacity="0.04" d="M97.7781 255.145L97.0609 251.103L85.2272 253.189L93.149 243.753L90.0031 241.113L82.277 250.321V238H78.1694V250.028L70.264 240.591L67.1181 243.215L74.8443 252.423L62.7009 250.288L62 254.33L73.8337 256.416L63.1573 262.577L65.2111 266.113L75.6267 260.116L71.405 271.687L75.2681 273.089L79.3756 261.794L83.581 273.366L87.444 271.964L83.3202 260.67L93.9966 266.83L96.0503 263.294L85.6347 257.28L97.7781 255.145Z" fill="#695E93"/>
<path opacity="0.04" d="M332.696 286.751L332.121 283.51L322.63 285.183L328.984 277.614L326.46 275.497L320.264 282.882V273H316.969V282.647L310.628 275.078L308.105 277.183L314.302 284.568L304.562 282.856L304 286.098L313.491 287.771L304.928 292.712L306.575 295.549L314.929 290.738L311.543 300.019L314.642 301.143L317.936 292.085L321.309 301.366L324.408 300.241L321.1 291.183L329.663 296.124L331.311 293.287L322.957 288.464L332.696 286.751Z" fill="#695E93"/>
<path opacity="0.04" d="M403.696 370.751L403.121 367.51L393.63 369.183L399.984 361.614L397.46 359.497L391.264 366.882V357H387.969V366.647L381.628 359.078L379.105 361.183L385.302 368.568L375.562 366.856L375 370.098L384.491 371.771L375.928 376.712L377.575 379.549L385.929 374.738L382.543 384.019L385.642 385.143L388.936 376.085L392.309 385.366L395.408 384.241L392.1 375.183L400.663 380.124L402.311 377.287L393.957 372.464L403.696 370.751Z" fill="#695E93"/>
<path opacity="0.04" d="M401.696 237.751L401.121 234.51L391.63 236.183L397.984 228.614L395.46 226.497L389.264 233.882V224H385.969V233.647L379.628 226.078L377.105 228.183L383.302 235.568L373.562 233.856L373 237.098L382.491 238.771L373.928 243.712L375.575 246.549L383.929 241.738L380.543 251.019L383.642 252.143L386.936 243.085L390.309 252.366L393.408 251.241L390.1 242.183L398.663 247.124L400.311 244.287L391.957 239.464L401.696 237.751Z" fill="#695E93"/>
<path opacity="0.04" d="M274.696 219.751L274.121 216.51L264.63 218.183L270.984 210.614L268.46 208.497L262.264 215.882V206H258.969V215.647L252.628 208.078L250.105 210.183L256.302 217.568L246.562 215.856L246 219.098L255.491 220.771L246.928 225.712L248.575 228.549L256.929 223.738L253.543 233.019L256.642 234.143L259.936 225.085L263.309 234.366L266.408 233.241L263.1 224.183L271.663 229.124L273.311 226.287L264.957 221.464L274.696 219.751Z" fill="#695E93"/>
<path opacity="0.04" d="M318.696 129.751L318.121 126.51L308.63 128.183L314.984 120.614L312.46 118.497L306.264 125.882V116H302.969V125.647L296.628 118.078L294.105 120.183L300.302 127.568L290.562 125.856L290 129.098L299.491 130.771L290.928 135.712L292.575 138.549L300.929 133.738L297.543 143.019L300.642 144.143L303.936 135.085L307.309 144.366L310.408 143.241L307.1 134.183L315.663 139.124L317.311 136.287L308.957 131.464L318.696 129.751Z" fill="#695E93"/>
<path opacity="0.04" d="M394.696 97.7514L394.121 94.5097L384.63 96.1828L390.984 88.6143L388.46 86.4967L382.264 93.8822V84H378.969V93.6469L372.628 86.0784L370.105 88.1829L376.302 95.5685L366.562 93.8561L366 97.0979L375.491 98.771L366.928 103.712L368.575 106.549L376.929 101.738L373.543 111.019L376.642 112.143L379.936 103.085L383.309 112.366L386.408 111.241L383.1 102.183L391.663 107.124L393.311 104.287L384.957 99.4638L394.696 97.7514Z" fill="#695E93"/>
<path opacity="0.04" d="M216.696 149.751L216.121 146.51L206.63 148.183L212.984 140.614L210.46 138.497L204.264 145.882V136H200.969V145.647L194.628 138.078L192.105 140.183L198.302 147.568L188.562 145.856L188 149.098L197.491 150.771L188.928 155.712L190.575 158.549L198.929 153.738L195.543 163.019L198.642 164.143L201.936 155.085L205.309 164.366L208.408 163.241L205.1 154.183L213.663 159.124L215.311 156.287L206.957 151.464L216.696 149.751Z" fill="#695E93"/>
<path opacity="0.04" d="M140.696 84.7514L140.121 81.5097L130.63 83.1828L136.984 75.6143L134.46 73.4967L128.264 80.8822V71H124.969V80.6469L118.628 73.0784L116.105 75.1829L122.302 82.5685L112.562 80.8561L112 84.0979L121.491 85.771L112.928 90.7121L114.575 93.5487L122.929 88.7383L119.543 98.0192L122.642 99.1434L125.936 90.0847L129.309 99.3656L132.408 98.2414L129.1 89.1828L137.663 94.1239L139.311 91.2873L130.957 86.4638L140.696 84.7514Z" fill="#695E93"/>
<path opacity="0.04" d="M216.696 8.75145L216.121 5.50965L206.63 7.18284L212.984 -0.385686L210.46 -2.50331L204.264 4.88222V-5H200.969V4.64692L194.628 -2.9216L192.105 -0.817051L198.302 6.56846L188.562 4.85607L188 8.09786L197.491 9.77103L188.928 14.7121L190.575 17.5487L198.929 12.7383L195.543 22.0192L198.642 23.1434L201.936 14.0847L205.309 23.3656L208.408 22.2414L205.1 13.1828L213.663 18.1239L215.311 15.2873L206.957 10.4638L216.696 8.75145Z" fill="#695E93"/>
<path opacity="0.04" d="M47.6965 90.7514L47.1212 87.5097L37.6298 89.1828L43.9836 81.6143L41.4604 79.4967L35.2635 86.8822V77H31.969V86.6469L25.6283 79.0784L23.1051 81.1829L29.302 88.5685L19.5622 86.8561L19 90.0979L28.4914 91.771L19.9282 96.7121L21.5755 99.5487L29.9295 94.7383L26.5434 104.019L29.6419 105.143L32.9364 96.0847L36.3094 105.366L39.4078 104.241L36.1002 95.1828L44.6634 100.124L46.3107 97.2873L37.9567 92.4638L47.6965 90.7514Z" fill="#695E93"/>
<path opacity="0.04" d="M22.6965 3.75145L22.1212 0.509654L12.6298 2.18284L18.9836 -5.38569L16.4604 -7.50331L10.2635 -0.117779V-10H6.96897V-0.353076L0.628297 -7.9216L-1.8949 -5.81705L4.30197 1.56846L-5.43784 -0.143932L-6 3.09786L3.49141 4.77103L-5.07178 9.71214L-3.42451 12.5487L4.9295 7.73832L1.54345 17.0192L4.64188 18.1434L7.93642 9.08469L11.3094 18.3656L14.4078 17.2414L11.1002 8.18276L19.6634 13.1239L21.3107 10.2873L12.9567 5.46384L22.6965 3.75145Z" fill="#695E93"/>
<path opacity="0.04" d="M93.6965 38.7514L93.1212 35.5097L83.6298 37.1828L89.9836 29.6143L87.4604 27.4967L81.2635 34.8822V25H77.969V34.6469L71.6283 27.0784L69.1051 29.1829L75.302 36.5685L65.5622 34.8561L65 38.0979L74.4914 39.771L65.9282 44.7121L67.5755 47.5487L75.9295 42.7383L72.5434 52.0192L75.6419 53.1434L78.9364 44.0847L82.3094 53.3656L85.4078 52.2414L82.1002 43.1828L90.6634 48.1239L92.3107 45.2873L83.9567 40.4638L93.6965 38.7514Z" fill="#695E93"/>
<path opacity="0.04" d="M308.696 48.7514L308.121 45.5097L298.63 47.1828L304.984 39.6143L302.46 37.4967L296.264 44.8822V35H292.969V44.6469L286.628 37.0784L284.105 39.1829L290.302 46.5685L280.562 44.8561L280 48.0979L289.491 49.771L280.928 54.7121L282.575 57.5487L290.929 52.7383L287.543 62.0192L290.642 63.1434L293.936 54.0847L297.309 63.3656L300.408 62.2414L297.1 53.1828L305.663 58.1239L307.311 55.2873L298.957 50.4638L308.696 48.7514Z" fill="#695E93"/>
<path opacity="0.04" d="M351 13.2111L350.619 11.0396L344.335 12.1604L348.542 7.09078L346.871 5.67235L342.768 10.6194V4H340.587V10.4618L336.389 5.39216L334.718 6.80184L338.821 11.7488L332.372 10.6018L332 12.7733L338.284 13.894L332.615 17.2037L333.705 19.1037L339.236 15.8816L336.995 22.0982L339.046 22.8512L341.227 16.7834L343.461 23L345.512 22.247L343.322 16.1793L348.992 19.4889L350.082 17.5889L344.551 14.3581L351 13.2111Z" fill="#695E93"/>
<path opacity="0.04" d="M256.696 36.7514L256.121 33.5097L246.63 35.1828L252.984 27.6143L250.46 25.4967L244.264 32.8822V23H240.969V32.6469L234.628 25.0784L232.105 27.1829L238.302 34.5685L228.562 32.8561L228 36.0979L237.491 37.771L228.928 42.7121L230.575 45.5487L238.929 40.7383L235.543 50.0192L238.642 51.1434L241.936 42.0847L245.309 51.3656L248.408 50.2414L245.1 41.1828L253.663 46.1239L255.311 43.2873L246.957 38.4638L256.696 36.7514Z" fill="#695E93"/>
<path opacity="0.04" d="M390.696 8.75145L390.121 5.50965L380.63 7.18284L386.984 -0.385686L384.46 -2.50331L378.264 4.88222V-5H374.969V4.64692L368.628 -2.9216L366.105 -0.817051L372.302 6.56846L362.562 4.85607L362 8.09786L371.491 9.77103L362.928 14.7121L364.575 17.5487L372.929 12.7383L369.543 22.0192L372.642 23.1434L375.936 14.0847L379.309 23.3656L382.408 22.2414L379.1 13.1828L387.663 18.1239L389.311 15.2873L380.957 10.4638L390.696 8.75145Z" fill="#695E93"/>
<path opacity="0.04" d="M351.696 188.751L351.121 185.51L341.63 187.183L347.984 179.614L345.46 177.497L339.264 184.882V175H335.969V184.647L329.628 177.078L327.105 179.183L333.302 186.568L323.562 184.856L323 188.098L332.491 189.771L323.928 194.712L325.575 197.549L333.929 192.738L330.543 202.019L333.642 203.143L336.936 194.085L340.309 203.366L343.408 202.241L340.1 193.183L348.663 198.124L350.311 195.287L341.957 190.464L351.696 188.751Z" fill="#695E93"/>
<path opacity="0.04" d="M121 205.12L120.479 202.263L111.879 203.737L117.636 197.067L115.35 195.2L109.735 201.71V193H106.75V201.502L101.005 194.832L98.7194 196.687L104.334 203.196L95.5093 201.687L95 204.544L103.6 206.018L95.841 210.373L97.3335 212.873L104.903 208.634L101.835 216.813L104.642 217.804L107.627 209.82L110.683 218L113.49 217.009L110.493 209.025L118.252 213.38L119.744 210.88L112.175 206.629L121 205.12Z" fill="#695E93"/>
<path opacity="0.04" d="M81 169.12L80.4788 166.263L71.8793 167.737L77.636 161.067L75.3499 159.2L69.7353 165.71V157H66.7503V165.502L61.0055 158.832L58.7194 160.687L64.3339 167.196L55.5093 165.687L55 168.544L63.5995 170.018L55.841 174.373L57.3335 176.873L64.9025 172.634L61.8346 180.813L64.6419 181.804L67.6269 173.82L70.6829 182L73.4902 181.009L70.4934 173.025L78.2519 177.38L79.7444 174.88L72.1754 170.629L81 169.12Z" fill="#695E93"/>
<path opacity="0.04" d="M178.778 616.145L178.061 612.103L166.227 614.189L174.149 604.753L171.003 602.113L163.277 611.321V599H159.169V611.028L151.264 601.591L148.118 604.215L155.844 613.423L143.701 611.288L143 615.33L154.834 617.416L144.157 623.577L146.211 627.113L156.627 621.116L152.405 632.687L156.268 634.089L160.376 622.794L164.581 634.366L168.444 632.964L164.32 621.67L174.997 627.83L177.05 624.294L166.635 618.28L178.778 616.145Z" fill="#695E93"/>
<path opacity="0.04" d="M389.778 813.145L389.061 809.103L377.227 811.189L385.149 801.753L382.003 799.113L374.277 808.321V796H370.169V808.028L362.264 798.591L359.118 801.215L366.844 810.423L354.701 808.288L354 812.33L365.834 814.416L355.157 820.577L357.211 824.113L367.627 818.116L363.405 829.687L367.268 831.089L371.376 819.794L375.581 831.366L379.444 829.964L375.32 818.67L385.997 824.83L388.05 821.294L377.635 815.28L389.778 813.145Z" fill="#695E93"/>
<path opacity="0.04" d="M238.778 831.145L238.061 827.103L226.227 829.189L234.149 819.753L231.003 817.113L223.277 826.321V814H219.169V826.028L211.264 816.591L208.118 819.215L215.844 828.423L203.701 826.288L203 830.33L214.834 832.416L204.157 838.577L206.211 842.113L216.627 836.116L212.405 847.687L216.268 849.089L220.376 837.794L224.581 849.366L228.444 847.964L224.32 836.67L234.997 842.83L237.05 839.294L226.635 833.28L238.778 831.145Z" fill="#695E93"/>
<path opacity="0.04" d="M198.778 230.145L198.061 226.103L186.227 228.189L194.149 218.753L191.003 216.113L183.277 225.321V213H179.169V225.028L171.264 215.591L168.118 218.215L175.844 227.423L163.701 225.288L163 229.33L174.834 231.416L164.157 237.577L166.211 241.113L176.627 235.116L172.405 246.687L176.268 248.089L180.376 236.794L184.581 248.366L188.444 246.964L184.32 235.67L194.997 241.83L197.05 238.294L186.635 232.28L198.778 230.145Z" fill="#695E93"/>
<path opacity="0.04" d="M298 358.483L297.298 354.597L285.722 356.603L293.472 347.531L290.394 344.993L282.836 353.845V342H278.818V353.563L271.084 344.491L268.007 347.014L275.565 355.866L263.686 353.814L263 357.7L274.576 359.705L264.132 365.628L266.141 369.028L276.33 363.262L272.2 374.386L275.979 375.734L279.998 364.876L284.112 376L287.891 374.653L283.856 363.794L294.301 369.717L296.31 366.317L286.121 360.535L298 358.483Z" fill="#695E93"/>
<path opacity="0.04" d="M301.778 552.145L301.061 548.103L289.227 550.189L297.149 540.753L294.003 538.113L286.277 547.321V535H282.169V547.028L274.264 537.591L271.118 540.215L278.844 549.423L266.701 547.288L266 551.33L277.834 553.416L267.157 559.577L269.211 563.113L279.627 557.116L275.405 568.687L279.268 570.089L283.376 558.794L287.581 570.366L291.444 568.964L287.32 557.67L297.997 563.83L300.05 560.294L289.635 554.28L301.778 552.145Z" fill="#695E93"/>
<path opacity="0.04" d="M26.7781 708.145L26.0609 704.103L14.2272 706.189L22.149 696.753L19.0031 694.113L11.277 703.321V691H7.16943V703.028L-0.735987 693.591L-3.88185 696.215L3.84426 705.423L-8.29911 703.288L-9 707.33L2.83367 709.416L-7.84271 715.577L-5.78893 719.113L4.62665 713.116L0.405001 724.687L4.26806 726.089L8.37561 714.794L12.581 726.366L16.444 724.964L12.3202 713.67L22.9966 719.83L25.0503 716.294L14.6347 710.28L26.7781 708.145Z" fill="#695E93"/>
<path opacity="0.04" d="M207.778 694.145L207.061 690.103L195.227 692.189L203.149 682.753L200.003 680.113L192.277 689.321V677H188.169V689.028L180.264 679.591L177.118 682.215L184.844 691.423L172.701 689.288L172 693.33L183.834 695.416L173.157 701.577L175.211 705.113L185.627 699.116L181.405 710.687L185.268 712.089L189.376 700.794L193.581 712.366L197.444 710.964L193.32 699.67L203.997 705.83L206.05 702.294L195.635 696.28L207.778 694.145Z" fill="#695E93"/>
<path opacity="0.04" d="M394.778 658.145L394.061 654.103L382.227 656.189L390.149 646.753L387.003 644.113L379.277 653.321V641H375.169V653.028L367.264 643.591L364.118 646.215L371.844 655.423L359.701 653.288L359 657.33L370.834 659.416L360.157 665.577L362.211 669.113L372.627 663.116L368.405 674.687L372.268 676.089L376.376 664.794L380.581 676.366L384.444 674.964L380.32 663.67L390.997 669.83L393.05 666.294L382.635 660.28L394.778 658.145Z" fill="#695E93"/>
<path opacity="0.04" d="M336.778 749.145L336.061 745.103L324.227 747.189L332.149 737.753L329.003 735.113L321.277 744.321V732H317.169V744.028L309.264 734.591L306.118 737.215L313.844 746.423L301.701 744.288L301 748.33L312.834 750.416L302.157 756.577L304.211 760.113L314.627 754.116L310.405 765.687L314.268 767.089L318.376 755.794L322.581 767.366L326.444 765.964L322.32 754.67L332.997 760.83L335.05 757.294L324.635 751.28L336.778 749.145Z" fill="#695E93"/>
<path opacity="0.04" d="M122.778 528.145L122.061 524.103L110.227 526.189L118.149 516.753L115.003 514.113L107.277 523.321V511H103.169V523.028L95.264 513.591L92.1181 516.215L99.8443 525.423L87.7009 523.288L87 527.33L98.8337 529.416L88.1573 535.577L90.2111 539.113L100.627 533.116L96.405 544.687L100.268 546.089L104.376 534.794L108.581 546.366L112.444 544.964L108.32 533.67L118.997 539.83L121.05 536.294L110.635 530.28L122.778 528.145Z" fill="#695E93"/>
<path opacity="0.04" d="M103.778 721.145L103.061 717.103L91.2272 719.189L99.149 709.753L96.0031 707.113L88.277 716.321V704H84.1694V716.028L76.264 706.591L73.1181 709.215L80.8443 718.423L68.7009 716.288L68 720.33L79.8337 722.416L69.1573 728.577L71.2111 732.113L81.6267 726.116L77.405 737.687L81.2681 739.089L85.3756 727.794L89.581 739.366L93.444 737.964L89.3202 726.67L99.9966 732.83L102.05 729.294L91.6347 723.28L103.778 721.145Z" fill="#695E93"/>
<path opacity="0.04" d="M178.778 767.145L178.061 763.103L166.227 765.189L174.149 755.753L171.003 753.113L163.277 762.321V750H159.169V762.028L151.264 752.591L148.118 755.215L155.844 764.423L143.701 762.288L143 766.33L154.834 768.416L144.157 774.577L146.211 778.113L156.627 772.116L152.405 783.687L156.268 785.089L160.376 773.794L164.581 785.366L168.444 783.964L164.32 772.67L174.997 778.83L177.05 775.294L166.635 769.28L178.778 767.145Z" fill="#695E93"/>
<path opacity="0.04" d="M43.7781 577.145L43.0609 573.103L31.2272 575.189L39.149 565.753L36.0031 563.113L28.277 572.321V560H24.1694V572.028L16.264 562.591L13.1181 565.215L20.8443 574.423L8.70089 572.288L8 576.33L19.8337 578.416L9.15729 584.577L11.2111 588.113L21.6267 582.116L17.405 593.687L21.2681 595.089L25.3756 583.794L29.581 595.366L33.444 593.964L29.3202 582.67L39.9966 588.83L42.0503 585.294L31.6347 579.28L43.7781 577.145Z" fill="#695E93"/>
<path opacity="0.04" d="M225.778 407.145L225.061 403.103L213.227 405.189L221.149 395.753L218.003 393.113L210.277 402.321V390H206.169V402.028L198.264 392.591L195.118 395.215L202.844 404.423L190.701 402.288L190 406.33L201.834 408.416L191.157 414.577L193.211 418.113L203.627 412.116L199.405 423.687L203.268 425.089L207.376 413.794L211.581 425.366L215.444 423.964L211.32 412.67L221.997 418.83L224.05 415.294L213.635 409.28L225.778 407.145Z" fill="#695E93"/>
<path opacity="0.04" d="M330.778 468.145L330.061 464.103L318.227 466.189L326.149 456.753L323.003 454.113L315.277 463.321V451H311.169V463.028L303.264 453.591L300.118 456.215L307.844 465.423L295.701 463.288L295 467.33L306.834 469.416L296.157 475.577L298.211 479.113L308.627 473.116L304.405 484.687L308.268 486.089L312.376 474.794L316.581 486.366L320.444 484.964L316.32 473.67L326.997 479.83L329.05 476.294L318.635 470.28L330.778 468.145Z" fill="#695E93"/>
<path opacity="0.04" d="M406.778 457.145L406.061 453.103L394.227 455.189L402.149 445.753L399.003 443.113L391.277 452.321V440H387.169V452.028L379.264 442.591L376.118 445.215L383.844 454.423L371.701 452.288L371 456.33L382.834 458.416L372.157 464.577L374.211 468.113L384.627 462.116L380.405 473.687L384.268 475.089L388.376 463.794L392.581 475.366L396.444 473.964L392.32 462.67L402.997 468.83L405.05 465.294L394.635 459.28L406.778 457.145Z" fill="#695E93"/>
<path opacity="0.04" d="M274.778 685.145L274.061 681.103L262.227 683.189L270.149 673.753L267.003 671.113L259.277 680.321V668H255.169V680.028L247.264 670.591L244.118 673.215L251.844 682.423L239.701 680.288L239 684.33L250.834 686.416L240.157 692.577L242.211 696.113L252.627 690.116L248.405 701.687L252.268 703.089L256.376 691.794L260.581 703.366L264.444 701.964L260.32 690.67L270.997 696.83L273.05 693.294L262.635 687.28L274.778 685.145Z" fill="#695E93"/>
<path opacity="0.04" d="M301.778 778.145L301.061 774.103L289.227 776.189L297.149 766.753L294.003 764.113L286.277 773.321V761H282.169V773.028L274.264 763.591L271.118 766.215L278.844 775.423L266.701 773.288L266 777.33L277.834 779.416L267.157 785.577L269.211 789.113L279.627 783.116L275.405 794.687L279.268 796.089L283.376 784.794L287.581 796.366L291.444 794.964L287.32 783.67L297.997 789.83L300.05 786.294L289.635 780.28L301.778 778.145Z" fill="#695E93"/>
<path opacity="0.04" d="M346.778 839.145L346.061 835.103L334.227 837.189L342.149 827.753L339.003 825.113L331.277 834.321V822H327.169V834.028L319.264 824.591L316.118 827.215L323.844 836.423L311.701 834.288L311 838.33L322.834 840.416L312.157 846.577L314.211 850.113L324.627 844.116L320.405 855.687L324.268 857.089L328.376 845.794L332.581 857.366L336.444 855.964L332.32 844.67L342.997 850.83L345.05 847.294L334.635 841.28L346.778 839.145Z" fill="#695E93"/>
<path opacity="0.04" d="M185.989 275.502C202.678 287.197 193.197 296.689 181.5 279.99C169.803 296.677 160.31 287.197 177.011 275.502C160.322 263.806 169.803 254.314 181.5 271.013C193.197 254.314 202.69 263.795 185.989 275.502Z" fill="#695E93"/>
<path opacity="0.04" d="M4.98879 346.502C21.6782 358.197 12.1966 367.689 0.499994 350.99C-11.1966 367.677 -20.6899 358.197 -3.98878 346.502C-20.6782 334.806 -11.1966 325.314 0.499994 342.013C12.1966 325.314 21.6899 334.795 4.98879 346.502Z" fill="#695E93"/>
<path opacity="0.04" d="M172.989 420.502C189.678 432.197 180.197 441.689 168.5 424.99C156.803 441.677 147.31 432.197 164.011 420.502C147.322 408.806 156.803 399.314 168.5 416.013C180.197 399.314 189.69 408.795 172.989 420.502Z" fill="#695E93"/>
<path opacity="0.04" d="M221.989 546.502C238.678 558.197 229.197 567.689 217.5 550.99C205.803 567.677 196.31 558.197 213.011 546.502C196.322 534.806 205.803 525.314 217.5 542.013C229.197 525.314 238.69 534.795 221.989 546.502Z" fill="#695E93"/>
<path opacity="0.04" d="M153.989 725.502C170.678 737.197 161.197 746.689 149.5 729.99C137.803 746.677 128.31 737.197 145.011 725.502C128.322 713.806 137.803 704.314 149.5 721.013C161.197 704.314 170.69 713.795 153.989 725.502Z" fill="#695E93"/>
<path opacity="0.04" d="M31.9888 499.502C48.6782 511.197 39.1966 520.689 27.5 503.99C15.8034 520.677 6.31012 511.197 23.0112 499.502C6.32184 487.806 15.8034 478.314 27.5 495.013C39.1966 478.314 48.6899 487.795 31.9888 499.502Z" fill="#695E93"/>
<path opacity="0.04" d="M355.989 309.502C372.678 321.197 363.197 330.689 351.5 313.99C339.803 330.677 330.31 321.197 347.011 309.502C330.322 297.806 339.803 288.314 351.5 305.013C363.197 288.314 372.69 297.795 355.989 309.502Z" fill="#695E93"/>
<path opacity="0.04" d="M301.656 215.501C317.109 226.33 308.33 235.119 297.5 219.657C286.67 235.109 277.88 226.33 293.344 215.501C277.891 204.673 286.67 195.884 297.5 211.346C308.33 195.884 317.12 204.662 301.656 215.501Z" fill="#695E93"/>
<path opacity="0.04" d="M332.656 49.5015C348.109 60.3304 339.33 69.1194 328.5 53.6573C317.67 69.1086 308.88 60.3304 324.344 49.5015C308.891 38.6726 317.67 29.8836 328.5 45.3457C339.33 29.8836 348.12 38.6617 332.656 49.5015Z" fill="#695E93"/>
<path opacity="0.04" d="M181.656 78.5015C197.109 89.3304 188.33 98.1194 177.5 82.6573C166.67 98.1086 157.88 89.3304 173.344 78.5015C157.891 67.6726 166.67 58.8836 177.5 74.3457C188.33 58.8836 197.12 67.6617 181.656 78.5015Z" fill="#695E93"/>
<path opacity="0.04" d="M204.656 43.5015C220.109 54.3304 211.33 63.1194 200.5 47.6573C189.67 63.1086 180.88 54.3304 196.344 43.5015C180.891 32.6726 189.67 23.8836 200.5 39.3457C211.33 23.8836 220.12 32.6617 204.656 43.5015Z" fill="#695E93"/>
<path opacity="0.04" d="M239.656 122.501C255.109 133.33 246.33 142.119 235.5 126.657C224.67 142.109 215.88 133.33 231.344 122.501C215.891 111.673 224.67 102.884 235.5 118.346C246.33 102.884 255.12 111.662 239.656 122.501Z" fill="#695E93"/>
<path opacity="0.04" d="M317.656 6.5015C333.109 17.3304 324.33 26.1194 313.5 10.6573C302.67 26.1086 293.88 17.3304 309.344 6.5015C293.891 -4.32741 302.67 -13.1164 313.5 2.34571C324.33 -13.1164 333.12 -4.33826 317.656 6.5015Z" fill="#695E93"/>
<path opacity="0.04" d="M228.989 366.502C245.678 378.197 236.197 387.689 224.5 370.99C212.803 387.677 203.31 378.197 220.011 366.502C203.322 354.806 212.803 345.314 224.5 362.013C236.197 345.314 245.69 354.795 228.989 366.502Z" fill="#695E93"/>
<path opacity="0.04" d="M280.989 494.502C297.678 506.197 288.197 515.689 276.5 498.99C264.803 515.677 255.31 506.197 272.011 494.502C255.322 482.806 264.803 473.314 276.5 490.013C288.197 473.314 297.69 482.795 280.989 494.502Z" fill="#695E93"/>
<path opacity="0.04" d="M327.989 627.502C344.678 639.197 335.197 648.689 323.5 631.99C311.803 648.677 302.31 639.197 319.011 627.502C302.322 615.806 311.803 606.314 323.5 623.013C335.197 606.314 344.69 615.795 327.989 627.502Z" fill="#695E93"/>
<path opacity="0.04" d="M104.989 835.502C121.678 847.197 112.197 856.689 100.5 839.99C88.8034 856.677 79.3101 847.197 96.0112 835.502C79.3218 823.806 88.8034 814.314 100.5 831.013C112.197 814.314 121.69 823.795 104.989 835.502Z" fill="#695E93"/>
<path opacity="0.04" d="M87.9888 354.502C104.678 366.197 95.1966 375.689 83.5 358.99C71.8034 375.677 62.3101 366.197 79.0112 354.502C62.3218 342.806 71.8034 333.314 83.5 350.013C95.1966 333.314 104.69 342.795 87.9888 354.502Z" fill="#695E93"/>
<path opacity="0.04" d="M284.989 301.502C301.678 313.197 292.197 322.689 280.5 305.99C268.803 322.677 259.31 313.197 276.011 301.502C259.322 289.806 268.803 280.314 280.5 297.013C292.197 280.314 301.69 289.795 284.989 301.502Z" fill="#695E93"/>
<path opacity="0.04" d="M390.989 277.502C407.678 289.197 398.197 298.689 386.5 281.99C374.803 298.677 365.31 289.197 382.011 277.502C365.322 265.806 374.803 256.314 386.5 273.013C398.197 256.314 407.69 265.795 390.989 277.502Z" fill="#695E93"/>
<path opacity="0.04" d="M280.989 436.502C297.678 448.197 288.197 457.689 276.5 440.99C264.803 457.677 255.31 448.197 272.011 436.502C255.322 424.806 264.803 415.314 276.5 432.013C288.197 415.314 297.69 424.795 280.989 436.502Z" fill="#695E93"/>
<path opacity="0.04" d="M355.989 454.502C372.678 466.197 363.197 475.689 351.5 458.99C339.803 475.677 330.31 466.197 347.011 454.502C330.322 442.806 339.803 433.314 351.5 450.013C363.197 433.314 372.69 442.795 355.989 454.502Z" fill="#695E93"/>
<path opacity="0.04" d="M323.989 577.502C340.678 589.197 331.197 598.689 319.5 581.99C307.803 598.677 298.31 589.197 315.011 577.502C298.322 565.806 307.803 556.314 319.5 573.013C331.197 556.314 340.69 565.795 323.989 577.502Z" fill="#695E93"/>
<path opacity="0.04" d="M301.989 699.502C318.678 711.197 309.197 720.689 297.5 703.99C285.803 720.677 276.31 711.197 293.011 699.502C276.322 687.806 285.803 678.314 297.5 695.013C309.197 678.314 318.69 687.795 301.989 699.502Z" fill="#695E93"/>
<path opacity="0.04" d="M226.325 681.001C238.688 689.664 231.664 696.696 223 684.326C214.336 696.687 207.304 689.664 219.675 681.001C207.312 672.338 214.336 665.307 223 677.677C231.664 665.307 238.696 672.329 226.325 681.001Z" fill="#695E93"/>
<path opacity="0.04" d="M340.989 790.502C357.678 802.197 348.197 811.689 336.5 794.99C324.803 811.677 315.31 802.197 332.011 790.502C315.322 778.806 324.803 769.314 336.5 786.013C348.197 769.314 357.69 778.795 340.989 790.502Z" fill="#695E93"/>
<path opacity="0.04" d="M95.9888 663.502C112.678 675.197 103.197 684.689 91.5 667.99C79.8034 684.677 70.3101 675.197 87.0112 663.502C70.3218 651.806 79.8034 642.314 91.5 659.013C103.197 642.314 112.69 651.795 95.9888 663.502Z" fill="#695E93"/>
<path opacity="0.04" d="M216.989 777.502C233.678 789.197 224.197 798.689 212.5 781.99C200.803 798.677 191.31 789.197 208.011 777.502C191.322 765.806 200.803 756.314 212.5 773.013C224.197 756.314 233.69 765.795 216.989 777.502Z" fill="#695E93"/>
<path opacity="0.04" d="M119.989 753.502C136.678 765.197 127.197 774.689 115.5 757.99C103.803 774.677 94.3101 765.197 111.011 753.502C94.3218 741.806 103.803 732.314 115.5 749.013C127.197 732.314 136.69 741.795 119.989 753.502Z" fill="#695E93"/>
<path opacity="0.04" d="M388.989 521.502C405.678 533.197 396.197 542.689 384.5 525.99C372.803 542.677 363.31 533.197 380.011 521.502C363.322 509.806 372.803 500.314 384.5 517.013C396.197 500.314 405.69 509.795 388.989 521.502Z" fill="#695E93"/>
<path opacity="0.04" d="M126.989 242.502C143.678 254.197 134.197 263.689 122.5 246.99C110.803 263.677 101.31 254.197 118.011 242.502C101.322 230.806 110.803 221.314 122.5 238.013C134.197 221.314 143.69 230.795 126.989 242.502Z" fill="#695E93"/>
<path opacity="0.04" d="M80.9888 136.502C97.6782 148.197 88.1966 157.689 76.5 140.99C64.8034 157.677 55.3101 148.197 72.0112 136.502C55.3218 124.806 64.8034 115.314 76.5 132.013C88.1966 115.314 97.6899 124.795 80.9888 136.502Z" fill="#695E93"/>
<path opacity="0.04" d="M44.325 131.001C56.6875 139.664 49.6642 146.696 41 134.326C32.3358 146.687 25.3038 139.664 37.675 131.001C25.3125 122.338 32.3358 115.307 41 127.677C49.6642 115.307 56.6962 122.329 44.325 131.001Z" fill="#695E93"/>
<path opacity="0.04" d="M123.659 56.5011C135.403 64.7311 128.731 71.4107 120.5 59.6595C112.269 71.4025 105.589 64.7311 117.341 56.5011C105.597 48.2712 112.269 41.5915 120.5 53.3427C128.731 41.5915 135.411 48.2629 123.659 56.5011Z" fill="#695E93"/>
<path opacity="0.04" d="M225.989 223.502C242.678 235.197 233.197 244.689 221.5 227.99C209.803 244.677 200.31 235.197 217.011 223.502C200.322 211.806 209.803 202.314 221.5 219.013C233.197 202.314 242.69 211.795 225.989 223.502Z" fill="#695E93"/>
<path opacity="0.04" d="M25.3238 217.501C39.5407 227.464 31.4638 235.55 21.5 221.325C11.5362 235.54 3.44936 227.464 17.6762 217.501C3.45935 207.539 11.5362 199.453 21.5 213.678C31.4638 199.453 39.5506 207.529 25.3238 217.501Z" fill="#695E93"/>
<path opacity="0.04" d="M13.3238 39.5014C27.5407 49.464 19.4638 57.5499 9.5 43.3247C-0.463797 57.5399 -8.55064 49.464 5.67622 39.5014C-8.54065 29.5388 -0.463797 21.4529 9.5 35.6781C19.4638 21.4529 27.5506 29.5288 13.3238 39.5014Z" fill="#695E93"/>
</g>
<defs>
<clipPath id="clip0_219_2426">
<rect width="390" height="844" fill="white"/>
</clipPath>
</defs>
</svg>
