<svg width="85" height="85" viewBox="0 0 85 85" fill="none" xmlns="http://www.w3.org/2000/svg">
<g clip-path="url(#clip0_1106_10128)">
<path d="M68.2364 29.1982C66.8307 25.8731 64.8163 22.8862 62.2512 20.3201C59.6871 17.7561 56.7002 15.7417 53.373 14.335C49.9274 12.8783 46.2693 12.1398 42.4998 12.1398C38.7303 12.1398 35.0722 12.8783 31.6276 14.334C28.3025 15.7406 25.3145 17.7551 22.7484 20.3201C20.1843 22.8842 18.1709 25.8711 16.7632 29.1982C15.3055 32.6428 14.5669 36.3009 14.5669 40.0723C14.5669 42.0868 16.2065 43.7253 18.2209 43.7253H34.8127C36.2092 46.6632 39.1961 48.5816 42.4998 48.5816C45.8034 48.5816 48.7904 46.6622 50.1879 43.7253H66.7786C68.7931 43.7253 70.4327 42.0868 70.4327 40.0723C70.4327 36.3009 69.6941 32.6428 68.2364 29.1982ZM42.4998 42.7038C41.0482 42.7038 39.8673 41.5229 39.8673 40.0723C39.8673 38.6218 41.0482 37.4399 42.4998 37.4399C43.9514 37.4399 45.1323 38.6207 45.1323 40.0723C45.1323 41.5239 43.9514 42.7038 42.4998 42.7038ZM50.1868 36.4183C49.8171 35.643 49.3308 34.9259 48.7465 34.2936L50.7477 29.2901C51.1103 28.3871 51.0991 27.3932 50.714 26.4942C50.3288 25.5963 49.6178 24.9027 48.7128 24.5401C48.2756 24.3664 47.8199 24.2785 47.3562 24.2785C45.8525 24.2785 44.5214 25.1805 43.9636 26.577L41.9625 31.5794C38.8744 31.7745 36.1325 33.6408 34.8127 36.4183H22.1957C23.9303 26.6526 32.4295 19.4467 42.4998 19.4467C52.5701 19.4467 61.0672 26.6515 62.8038 36.4183H50.1868Z" fill="#F4F4F4"/>
<path d="M81.0855 3.91448C78.5623 1.39029 75.2065 0 71.6352 0H13.3658C9.79551 0 6.43874 1.39029 3.91453 3.91448C1.39031 6.43867 0 9.79539 0 13.3656V71.6344C0 75.2056 1.39031 78.5613 3.91453 81.0845C6.43976 83.6097 9.79653 85 13.3658 85H71.6352C75.2055 85 78.5613 83.6097 81.0855 81.0845C83.6097 78.5613 85 75.2056 85 71.6344V13.3656C85 9.79539 83.6097 6.43867 81.0855 3.91448ZM7.30705 13.3656C7.30705 10.0252 10.0254 7.30696 13.3658 7.30696H71.6352C74.9757 7.30696 77.6929 10.0252 77.6929 13.3656V71.6344C77.6929 74.9748 74.9757 77.692 71.6352 77.692H13.3658C10.0254 77.692 7.30705 74.9748 7.30705 71.6344V13.3656Z" fill="#F4F4F4"/>
</g>
<defs>
<clipPath id="clip0_1106_10128">
<rect width="85" height="85" fill="#F4F4F4"/>
</clipPath>
</defs>
</svg>
