<svg width="85" height="70" viewBox="0 0 85 70" fill="none" xmlns="http://www.w3.org/2000/svg">
<g clip-path="url(#clip0_1106_10129)">
<path d="M71.3453 45.6035C71.3453 46.5525 70.9563 47.4414 70.2511 48.1056L49.8645 67.3179C48.0232 69.048 45.5769 70.0001 42.9741 70.0001C40.3713 70.0001 37.9281 69.048 36.0868 67.3179L15.7022 48.1076L15.7001 48.1056L15.6981 48.1036C14.9959 47.4353 14.6121 46.5433 14.6182 45.5903C14.6254 44.6423 15.0205 43.7564 15.7298 43.0953C16.4156 42.4576 17.3224 42.1056 18.2845 42.1056C19.2466 42.1056 20.1514 42.4565 20.8372 43.0932L20.8403 43.0963L20.8433 43.0983L41.2269 62.3076C41.6896 62.7419 42.3098 62.9799 42.9741 62.9799C43.6384 62.9799 44.2617 62.7409 44.7233 62.3066L65.1079 43.0983C65.7967 42.4494 66.7097 42.0924 67.679 42.0924C68.6483 42.0924 69.504 42.4281 70.1846 43.0383L70.1948 43.0475L70.2051 43.0576L70.2491 43.0994C70.9564 43.7635 71.3453 44.6525 71.3453 45.6035Z" fill="#D8D9ED"/>
<path d="M84.7135 25.376L84.4811 27.1214L84.4781 27.1499V27.159L84.475 27.1692C84.344 28.1111 83.8527 28.9502 83.0963 29.5299C82.4627 30.0192 81.6695 30.2877 80.8629 30.2877H80.8189C80.6715 30.2846 80.5385 30.2755 80.4116 30.2592C79.7657 30.1789 79.1526 29.9266 78.6388 29.5299C77.8855 28.9502 77.3819 28.0795 77.2591 27.1418V27.1387L77.2478 27.0604V27.0451C77.2243 26.801 77.2427 26.5528 77.3021 26.3098C77.5743 25.1635 77.7146 23.9887 77.7197 22.8149C77.7258 21.4601 77.5518 20.1094 77.2049 18.8024C76.2857 15.3259 74.1558 12.2593 71.209 10.1661C68.554 8.28238 65.4281 7.28662 62.1723 7.28662C58.0321 7.30086 54.1345 8.90893 51.2011 11.8118L45.5471 17.4303C44.8808 18.0935 43.9944 18.4729 43.0538 18.4963H43.0528L41.8368 18.6153V18.3193C41.2954 18.1433 40.799 17.8423 40.3844 17.4313L34.7315 11.8118C31.796 8.90791 27.8994 7.30086 23.7623 7.28662C20.5024 7.28662 17.3765 8.28238 14.7225 10.1661C11.7737 12.2593 9.64477 15.3269 8.72564 18.8024C8.37867 20.1104 8.20569 21.4612 8.21183 22.816C8.21695 23.9897 8.35615 25.1635 8.62738 26.3057C8.69084 26.5661 8.70824 26.8326 8.67754 27.097L8.67549 27.1092V27.1214L8.67139 27.1397C8.4585 28.7702 7.16374 30.0517 5.5179 30.2592C5.36847 30.2785 5.21596 30.2877 5.06448 30.2877C3.25693 30.2877 1.70526 28.9482 1.45551 27.1723V27.1652L1.21703 25.3771C0.313256 18.6163 2.59368 11.7202 7.3142 6.92962C7.4012 6.84113 7.48922 6.75162 7.57827 6.66313L7.60999 6.6316L7.61716 6.6255C11.9303 2.35259 17.658 0 23.748 0H23.7633C29.8666 0.00406847 35.6025 2.36988 39.9136 6.65906L42.9647 9.69211L46.0169 6.66008C50.329 2.36988 56.0639 0.00406847 62.1682 0H62.1825C68.2807 0 74.0155 2.35869 78.3307 6.64279L78.3614 6.67229L78.3666 6.67839C78.4618 6.77298 78.5426 6.85231 78.6163 6.92758C83.3378 11.7213 85.6183 18.6183 84.7135 25.376Z" fill="#D8D9ED"/>
<path d="M85 35.4892C85 37.501 83.3531 39.1376 81.3296 39.1376H72.1557C72.1373 39.1376 72.1158 39.1376 72.0933 39.1366H62.3667C59.2982 39.1366 56.4579 37.618 54.769 35.0752L54.2 34.229L46.1591 48.2103C45.5092 49.3423 44.2902 50.0462 42.977 50.0472C42.9084 50.0472 42.846 50.0441 42.7927 50.0421C41.4038 49.9729 40.1909 49.145 39.628 47.8838L31.5114 29.7364L28.4971 34.7253C28.0928 35.3885 27.5974 36.0049 27.0253 36.5551C25.3098 38.2069 23.0509 39.1213 20.6599 39.1294H11.3888C11.3069 39.1345 11.2281 39.1376 11.1513 39.1376H3.6714C1.64686 39.1376 0 37.501 0 35.4892C0 33.4773 1.64686 31.8418 3.6714 31.8418H11.1513C11.178 31.8418 11.2056 31.8418 11.2332 31.8428H20.6579C20.7398 31.8418 20.8176 31.8367 20.8882 31.8265L20.9414 31.8184L20.9885 31.8164C21.5003 31.7208 21.9445 31.4146 22.2126 30.9722L28.8543 19.9782C29.1839 19.434 29.6496 18.9926 30.1931 18.6874C30.7366 18.3813 31.3579 18.2124 31.9965 18.2114H31.9976C32.0723 18.2114 32.1501 18.2145 32.2299 18.2206C33.5963 18.305 34.7908 19.1309 35.3466 20.3748L43.3874 38.3493L50.7732 25.5042C51.0516 25.017 51.4487 24.5938 51.9216 24.2795C52.5255 23.8788 53.2276 23.6672 53.9523 23.6672C55.1815 23.6672 56.3228 24.2724 57.0055 25.2855L60.8744 31.0403L60.8764 31.0434L60.8785 31.0474C61.2111 31.5499 61.771 31.8499 62.3759 31.8499H71.9101C71.9848 31.8449 72.0636 31.8418 72.1557 31.8418H81.3296C83.3531 31.8418 85 33.4783 85 35.4892Z" fill="#D8D9ED"/>
</g>
<defs>
<clipPath id="clip0_1106_10129">
<rect width="85" height="70" fill="#D8D9ED"/>
</clipPath>
</defs>
</svg>
