<svg width="390" height="153" viewBox="0 0 390 153" fill="none" xmlns="http://www.w3.org/2000/svg">
<rect width="390" height="153" fill="#F3F4FA"/>
<path opacity="0.1" d="M242.641 28.8906L247.984 47.5C248.875 50.6406 251.359 53.125 254.5 54.0156L273.109 59.3594C282.297 61.9844 282.297 75.0156 273.109 77.6406L254.5 82.9844C251.359 83.875 248.875 86.3594 247.984 89.5L242.641 108.109C240.016 117.297 226.984 117.297 224.359 108.109L219.016 89.5C218.125 86.3594 215.641 83.875 212.5 82.9844L193.891 77.6406C184.703 75.0156 184.703 61.9844 193.891 59.3594L212.5 54.0156C215.641 53.125 218.125 50.6406 219.016 47.5L224.359 28.8906C226.984 19.7031 240.016 19.7031 242.641 28.8906Z" fill="#695E93"/>
<path opacity="0.1" d="M192 112.553L190.416 103.628L164.287 108.235L181.779 87.3988L174.832 81.5691L157.773 101.901V74.6958H148.703V101.253L131.247 80.4175L124.301 86.2113L141.361 106.543L114.548 101.829L113 110.754L139.129 115.36L115.555 128.962L120.09 136.771L143.088 123.529L133.767 149.078L142.297 152.173L151.366 127.235L160.652 152.785L169.182 149.69L160.076 124.752L183.65 138.355L188.185 130.546L165.187 117.267L192 112.553Z" fill="#695E93"/>
<path opacity="0.1" fill-rule="evenodd" clip-rule="evenodd" d="M119.614 0H192V16.8355C192 43.429 170.437 65 143.854 65H109V30.1645C109 18.7475 112.974 8.25615 119.614 0Z" fill="#695E93"/>
<path opacity="0.1" fill-rule="evenodd" clip-rule="evenodd" d="M299.126 0H320.756C317.93 4.97806 312.283 11.0878 302.975 17.5035C340.063 43.0598 318.992 63.8018 293 27.3112C267.007 63.7762 245.911 43.0598 283.025 17.5035C273.717 11.0896 268.072 4.97884 265.249 0H286.874C288.866 2.21585 290.917 4.77216 293 7.69587C295.082 4.77236 297.133 2.21604 299.126 0Z" fill="#695E93"/>
<path opacity="0.1" fill-rule="evenodd" clip-rule="evenodd" d="M0 31.7691V0H8.375L19.3791 1.531C32.5762 3.38478 42.9486 13.7571 44.8023 26.9542L48.3333 52.3333L22.9542 48.8023C12.7173 47.3644 4.18009 40.8008 0 31.7691ZM0 105.832V72.8976C4.18009 63.8659 12.7173 57.3023 22.9542 55.8643L48.3333 52.3333L44.8023 77.7124C42.9486 90.9096 32.5762 101.282 19.3791 103.136L0 105.832ZM48.3333 52.3333L51.8643 26.9542C53.7181 13.7571 64.0904 3.38478 77.2876 1.531L88.2917 0H102.388L99.1357 23.3791C97.2819 36.5762 86.9096 46.9486 73.7124 48.8023L48.3333 52.3333ZM48.3334 52.3333L73.7125 55.8643C86.9096 57.7181 97.2819 68.0904 99.1357 81.2876L102.667 106.667L77.2876 103.136C64.0905 101.282 53.7182 90.9096 51.8644 77.7124L48.3334 52.3333Z" fill="#695E93"/>
</svg>
